<svg width="470" height="470" viewBox="0 0 470 470" fill="none" xmlns="http://www.w3.org/2000/svg">
<g clip-path="url(#clip0_7_2)">
<mask id="mask0_7_2" style="mask-type:luminance" maskUnits="userSpaceOnUse" x="0" y="0" width="470" height="470">
<path d="M470 0H0V470H470V0Z" fill="white"/>
</mask>
<g mask="url(#mask0_7_2)">
<path d="M217.07 183.73C222.517 180.69 226.997 176.947 230.51 172.5C232.957 169.4 235.157 166.143 237.11 162.73C237.243 162.483 237.513 161.743 237.92 160.51C238.18 159.723 238.64 159.05 239.3 158.49C239.562 158.268 239.752 158.001 239.85 157.72C240.863 154.82 242.117 152.027 243.61 149.34C243.79 149.013 243.843 148.697 243.77 148.39C243.723 148.205 243.698 148.028 243.696 147.872C243.694 147.715 243.716 147.582 243.76 147.48C245.933 142.293 247.84 137.01 249.48 131.63C249.573 131.343 249.64 130.743 249.68 129.83C249.707 129.163 249.93 128.57 250.35 128.05C250.583 127.757 250.73 127.477 250.79 127.21C251.843 122.47 253.057 117.773 254.43 113.12C254.643 112.4 254.84 111.253 255.02 109.68C255.14 108.633 255.383 107.49 255.75 106.25C256.897 102.39 257.8 97.8901 258.46 92.7501C259.58 84.1101 257.037 76.8367 250.83 70.9301C248.357 68.5767 245.247 67.5167 241.5 67.7501C235.593 68.1167 230.48 69.9634 226.16 73.2901C224.707 74.4101 223.043 76.1534 221.17 78.5201C219.21 81.0067 217.757 82.9367 216.81 84.3101C205.983 100.057 195.607 116.103 185.68 132.45C185.509 132.731 185.248 132.947 184.94 133.061C184.631 133.175 184.293 133.182 183.98 133.08C180.24 131.867 176.26 130.85 172.04 130.03C167.08 129.07 163.357 130.677 160.87 134.85C158.99 138.003 158.97 141.117 160.81 144.19C163.523 148.703 166.983 152.91 171.19 156.81C172.963 158.457 175.307 159.84 178.22 160.96C182.353 162.54 184.84 163.553 185.68 164C189.68 166.14 193.14 168.453 196.06 170.94C196.893 171.647 197.63 172.203 198.27 172.61C199.537 173.41 200.303 173.917 200.57 174.13C205.31 177.97 210.467 181.183 216.04 183.77C216.201 183.844 216.378 183.88 216.557 183.873C216.735 183.866 216.911 183.817 217.07 183.73Z" stroke="#E3E0CC" stroke-width="2"/>
<path d="M303 387.54C312.687 382.42 320.857 375.497 327.51 366.77C336.43 355.063 343.857 342.473 349.79 329" stroke="#A99A90" stroke-width="2"/>
<path d="M349.79 329C355.63 315.887 359.717 302.267 362.05 288.14C362.377 286.153 362.667 283.337 362.92 279.69C363.113 276.87 363.39 274.057 363.75 271.25C364.103 268.49 363.95 263.573 363.29 256.5" stroke="#86837E" stroke-width="2"/>
<path d="M363.29 256.5L363.04 254" stroke="#D0AD9F" stroke-width="2"/>
<path d="M363.04 254C362.447 244.433 360.92 235.017 358.46 225.75" stroke="#86837E" stroke-width="2"/>
<path d="M358.46 225.75C355.393 213.65 350.77 202.19 344.59 191.37C340.81 184.75 336.037 178.957 330.27 173.99C318.537 163.87 305.127 159.723 290.04 161.55C286.98 161.923 283.45 162.683 279.45 163.83C275.243 165.043 271.843 166.267 269.25 167.5C263.263 170.353 255.783 174.68 246.81 180.48C242.15 183.5 237.3 186.18 232.26 188.52C220.62 193.92 208.367 196.247 195.5 195.5C189.167 195.133 182.473 193.833 175.42 191.6C167.64 189.133 163.133 187.78 161.9 187.54C145.833 184.393 131.977 187.967 120.33 198.26C115.637 202.4 111.58 207.607 108.16 213.88C104.747 220.12 102.423 226.39 101.19 232.69C99.5567 241.003 98.5767 248.023 98.25 253.75C98.0033 258.117 98.1267 262.907 98.62 268.12C99.3867 276.113 99.8333 280.877 99.96 282.41C100.807 292.483 102.487 303.263 105 314.75C108.907 332.59 115.53 348.64 124.87 362.9C133.85 376.62 145.163 386.633 158.81 392.94C164.41 395.527 170.63 396.643 177.47 396.29C181.457 396.09 184.96 395.62 187.98 394.88C191.047 394.133 194.407 392.943 198.06 391.31C203.833 388.737 207.5 387.153 209.06 386.56C213.347 384.947 217.727 384.26 222.2 384.5C224.767 384.633 227.573 385.24 230.62 386.32C233.04 387.18 235.73 388.26 238.69 389.56C249.683 394.407 261.453 396.477 274 395.77C284.307 395.197 293.973 392.453 303 387.54" stroke="#D0AD9F" stroke-width="2"/>
<path d="M358.46 225.75C358.18 226.37 358.13 227.017 358.31 227.69C360.65 236.57 362.207 245.583 362.98 254.73C363.033 255.417 363.053 255.173 363.04 254" stroke="#71443C" stroke-width="2"/>
<path d="M363.29 256.5C364.203 281.567 359.677 305.567 349.71 328.5" stroke="#71443C" stroke-width="2"/>
<path d="M349.71 328.5C344.657 339.06 338.907 349.223 332.46 358.99C329.607 363.317 326.473 367.423 323.06 371.31C318.02 377.057 312.19 381.827 305.57 385.62C304.803 386.053 304.063 386.537 303.35 387.07C303.243 387.143 303.123 387.19 302.99 387.21C302.39 387.29 302.393 387.4 303 387.54" stroke="#945B4D" stroke-width="2"/>
<path d="M349.79 329L349.71 328.5" stroke="#4A312D" stroke-width="2"/>
<path d="M465.3 235.83C465.3 266.038 459.35 295.95 447.79 323.859C436.23 351.767 419.286 377.126 397.926 398.486C376.566 419.846 351.207 436.79 323.299 448.35C295.39 459.91 265.478 465.86 235.27 465.86C174.262 465.86 115.753 441.625 72.6142 398.486C29.4752 355.347 5.23999 296.838 5.23999 235.83C5.23999 174.822 29.4752 116.313 72.6142 73.1743C115.753 30.0353 174.262 5.80005 235.27 5.80005C265.478 5.80005 295.39 11.7499 323.299 23.31C351.207 34.8701 376.566 51.814 397.926 73.1743C419.286 94.5345 436.23 119.893 447.79 147.801C459.35 175.71 465.3 205.622 465.3 235.83ZM217.07 183.73C222.517 180.69 226.997 176.947 230.51 172.5C232.957 169.4 235.157 166.143 237.11 162.73C237.243 162.483 237.513 161.743 237.92 160.51C238.18 159.723 238.64 159.05 239.3 158.49C239.562 158.268 239.752 158.001 239.85 157.72C240.863 154.82 242.117 152.027 243.61 149.34C243.79 149.013 243.843 148.697 243.77 148.39C243.723 148.205 243.698 148.028 243.696 147.872C243.694 147.715 243.716 147.582 243.76 147.48C245.933 142.293 247.84 137.01 249.48 131.63C249.573 131.343 249.64 130.743 249.68 129.83C249.707 129.163 249.93 128.57 250.35 128.05C250.583 127.757 250.73 127.477 250.79 127.21C251.843 122.47 253.057 117.773 254.43 113.12C254.643 112.4 254.84 111.253 255.02 109.68C255.14 108.633 255.383 107.49 255.75 106.25C256.897 102.39 257.8 97.89 258.46 92.75C259.58 84.11 257.037 76.8367 250.83 70.9301C248.357 68.5767 245.247 67.5167 241.5 67.75C235.593 68.1167 230.48 69.9634 226.16 73.2901C224.707 74.4101 223.043 76.1534 221.17 78.5201C219.21 81.0067 217.757 82.9367 216.81 84.31C205.983 100.057 195.607 116.103 185.68 132.45C185.509 132.731 185.248 132.947 184.94 133.061C184.631 133.175 184.293 133.182 183.98 133.08C180.24 131.867 176.26 130.85 172.04 130.03C167.08 129.07 163.357 130.677 160.87 134.85C158.99 138.003 158.97 141.117 160.81 144.19C163.523 148.703 166.983 152.91 171.19 156.81C172.963 158.457 175.307 159.84 178.22 160.96C182.353 162.54 184.84 163.553 185.68 164C189.68 166.14 193.14 168.453 196.06 170.94C196.893 171.647 197.63 172.203 198.27 172.61C199.537 173.41 200.303 173.917 200.57 174.13C205.31 177.97 210.467 181.183 216.04 183.77C216.201 183.844 216.378 183.88 216.557 183.873C216.735 183.866 216.911 183.817 217.07 183.73ZM303 387.54C312.687 382.42 320.857 375.497 327.51 366.77C336.43 355.063 343.857 342.473 349.79 329C355.63 315.887 359.717 302.267 362.05 288.14C362.377 286.153 362.667 283.337 362.92 279.69C363.113 276.87 363.39 274.057 363.75 271.25C364.103 268.49 363.95 263.573 363.29 256.5L363.04 254C362.447 244.433 360.92 235.017 358.46 225.75C355.393 213.65 350.77 202.19 344.59 191.37C340.81 184.75 336.037 178.957 330.27 173.99C318.537 163.87 305.127 159.723 290.04 161.55C286.98 161.923 283.45 162.683 279.45 163.83C275.243 165.043 271.843 166.267 269.25 167.5C263.263 170.353 255.783 174.68 246.81 180.48C242.15 183.5 237.3 186.18 232.26 188.52C220.62 193.92 208.367 196.247 195.5 195.5C189.167 195.133 182.473 193.833 175.42 191.6C167.64 189.133 163.133 187.78 161.9 187.54C145.833 184.393 131.977 187.967 120.33 198.26C115.637 202.4 111.58 207.607 108.16 213.88C104.747 220.12 102.423 226.39 101.19 232.69C99.5567 241.003 98.5767 248.023 98.25 253.75C98.0033 258.117 98.1267 262.907 98.62 268.12C99.3867 276.113 99.8333 280.877 99.96 282.41C100.807 292.483 102.487 303.263 105 314.75C108.907 332.59 115.53 348.64 124.87 362.9C133.85 376.62 145.163 386.633 158.81 392.94C164.41 395.527 170.63 396.643 177.47 396.29C181.457 396.09 184.96 395.62 187.98 394.88C191.047 394.133 194.407 392.943 198.06 391.31C203.833 388.737 207.5 387.153 209.06 386.56C213.347 384.947 217.727 384.26 222.2 384.5C224.767 384.633 227.573 385.24 230.62 386.32C233.04 387.18 235.73 388.26 238.69 389.56C249.683 394.407 261.453 396.477 274 395.77C284.307 395.197 293.973 392.453 303 387.54Z" fill="#E5ECE1"/>
<path d="M217.07 183.73C216.911 183.817 216.735 183.866 216.557 183.873C216.378 183.879 216.201 183.844 216.04 183.77C210.467 181.183 205.31 177.97 200.57 174.13C200.303 173.917 199.537 173.41 198.27 172.61C197.63 172.203 196.893 171.647 196.06 170.94C193.14 168.453 189.68 166.14 185.68 164C184.84 163.553 182.353 162.54 178.22 160.96C175.307 159.84 172.963 158.457 171.19 156.81C166.983 152.91 163.523 148.703 160.81 144.19C158.97 141.117 158.99 138.003 160.87 134.85C163.357 130.677 167.08 129.07 172.04 130.03C176.26 130.85 180.24 131.867 183.98 133.08C184.293 133.182 184.631 133.175 184.94 133.061C185.248 132.946 185.509 132.731 185.68 132.45C195.607 116.103 205.983 100.057 216.81 84.3101C217.757 82.9367 219.21 81.0067 221.17 78.5201C223.043 76.1534 224.707 74.4101 226.16 73.2901C230.48 69.9634 235.593 68.1167 241.5 67.7501C245.247 67.5167 248.357 68.5767 250.83 70.9301C257.037 76.8367 259.58 84.1101 258.46 92.7501C257.8 97.8901 256.897 102.39 255.75 106.25C255.383 107.49 255.14 108.633 255.02 109.68C254.84 111.253 254.643 112.4 254.43 113.12C253.057 117.773 251.843 122.47 250.79 127.21C250.73 127.477 250.583 127.757 250.35 128.05C249.93 128.57 249.707 129.163 249.68 129.83C249.64 130.743 249.573 131.343 249.48 131.63C247.84 137.01 245.933 142.293 243.76 147.48C243.716 147.582 243.694 147.715 243.696 147.872C243.698 148.028 243.723 148.205 243.77 148.39C243.843 148.697 243.79 149.013 243.61 149.34C242.117 152.027 240.863 154.82 239.85 157.72C239.752 158.001 239.562 158.268 239.3 158.49C238.64 159.05 238.18 159.723 237.92 160.51C237.513 161.743 237.243 162.483 237.11 162.73C235.157 166.143 232.957 169.4 230.51 172.5C226.997 176.947 222.517 180.69 217.07 183.73Z" fill="#E1D4B7"/>
<path d="M358.46 225.75C358.18 226.37 358.13 227.017 358.31 227.69C360.65 236.57 362.207 245.583 362.98 254.73C363.033 255.417 363.053 255.173 363.04 254L363.29 256.5C364.203 281.567 359.677 305.567 349.71 328.5C344.657 339.06 338.907 349.223 332.46 358.99C329.607 363.317 326.473 367.423 323.06 371.31C318.02 377.057 312.19 381.827 305.57 385.62C304.803 386.053 304.063 386.537 303.35 387.07C303.243 387.143 303.123 387.19 302.99 387.21C302.39 387.29 302.393 387.4 303 387.54C293.973 392.453 284.307 395.197 274 395.77C261.453 396.477 249.683 394.407 238.69 389.56C235.73 388.26 233.04 387.18 230.62 386.32C227.573 385.24 224.767 384.633 222.2 384.5C217.727 384.26 213.347 384.947 209.06 386.56C207.5 387.153 203.833 388.737 198.06 391.31C194.407 392.943 191.047 394.133 187.98 394.88C184.96 395.62 181.457 396.09 177.47 396.29C170.63 396.643 164.41 395.527 158.81 392.94C145.163 386.633 133.85 376.62 124.87 362.9C115.53 348.64 108.907 332.59 105 314.75C102.487 303.263 100.807 292.483 99.96 282.41C99.8333 280.877 99.3867 276.113 98.62 268.12C98.1267 262.907 98.0033 258.117 98.25 253.75C98.5767 248.023 99.5567 241.003 101.19 232.69C102.423 226.39 104.747 220.12 108.16 213.88C111.58 207.607 115.637 202.4 120.33 198.26C131.977 187.967 145.833 184.393 161.9 187.54C163.133 187.78 167.64 189.133 175.42 191.6C182.473 193.833 189.167 195.133 195.5 195.5C208.367 196.247 220.62 193.92 232.26 188.52C237.3 186.18 242.15 183.5 246.81 180.48C255.783 174.68 263.263 170.353 269.25 167.5C271.843 166.267 275.243 165.043 279.45 163.83C283.45 162.683 286.98 161.923 290.04 161.55C305.127 159.723 318.537 163.87 330.27 173.99C336.037 178.957 340.81 184.75 344.59 191.37C350.77 202.19 355.393 213.65 358.46 225.75Z" fill="#BB6D5C"/>
<path d="M358.46 225.75C360.92 235.017 362.447 244.433 363.04 254C363.053 255.173 363.033 255.417 362.98 254.73C362.207 245.583 360.65 236.57 358.31 227.69C358.13 227.017 358.18 226.37 358.46 225.75Z" fill="#271A1B"/>
<path d="M363.29 256.5C363.95 263.573 364.103 268.49 363.75 271.25C363.39 274.057 363.113 276.87 362.92 279.69C362.667 283.337 362.377 286.153 362.05 288.14C359.717 302.267 355.63 315.887 349.79 329L349.71 328.5C359.677 305.567 364.203 281.567 363.29 256.5Z" fill="#271A1B"/>
<path d="M349.71 328.5L349.79 329C343.857 342.473 336.43 355.063 327.51 366.77C320.857 375.497 312.687 382.42 303 387.54C302.393 387.4 302.39 387.29 302.99 387.21C303.123 387.19 303.243 387.143 303.35 387.07C304.063 386.537 304.803 386.053 305.57 385.62C312.19 381.827 318.02 377.057 323.06 371.31C326.473 367.423 329.607 363.317 332.46 358.99C338.907 349.223 344.657 339.06 349.71 328.5Z" fill="#6D483E"/>
</g>
</g>
<defs>
<clipPath id="clip0_7_2">
<rect width="470" height="470" fill="white"/>
</clipPath>
</defs>
</svg>
