<svg width="652" height="582" viewBox="0 0 652 582" fill="none" xmlns="http://www.w3.org/2000/svg">
<path d="M402.86 52.19C402.767 51.1767 403.153 50.35 404.02 49.71C404.299 49.5086 404.499 49.2488 404.59 48.97C405.51 46.2167 406.997 43.86 409.05 41.9C410.603 40.4333 411.41 39.6667 411.47 39.6C421.27 29.4733 432.95 21.34 446.51 15.2C449.043 14.0533 449.71 14.7367 448.51 17.25C447.743 18.8567 446.643 20.6833 445.21 22.73C443.623 24.99 442.48 26.7867 441.78 28.12C438.86 33.6533 436.443 39.3833 434.53 45.31C432.41 51.8767 431.34 58.1033 431.32 63.99C431.307 69.9767 432.013 76.3333 433.44 83.06C435.72 93.82 437.193 100.287 437.86 102.46C442.613 117.927 445.827 131.44 447.5 143C448.073 146.967 448.12 151.487 447.64 156.56C447.207 161.107 446.233 165.48 444.72 169.68C442.987 174.487 440.6 179.947 437.56 186.06C433.313 194.613 428.44 201.407 422.94 206.44C415.62 213.133 406.677 219.047 396.11 224.18C396.057 224.207 395.543 224.49 394.57 225.03C393.623 225.557 392.593 225.88 391.48 226C390.133 226.147 389.877 225.687 390.71 224.62L395.94 217.9C396.029 217.787 396.087 217.648 396.108 217.496C396.129 217.344 396.112 217.184 396.06 217.03C395.707 215.937 395.873 214.863 396.56 213.81C408.02 196.323 411.917 177.053 408.25 156C407.617 152.36 404.2 140.943 398 121.75C394.947 112.303 393.477 101.93 393.59 90.63C393.637 85.9833 393.777 82.5667 394.01 80.38C394.317 77.46 394.897 74.0833 395.75 70.25C396.283 67.8367 396.937 66.0533 397.71 64.9C397.795 64.7743 397.851 64.6307 397.875 64.4788C397.899 64.327 397.891 64.1705 397.85 64.02C397.47 62.5667 397.897 61.42 399.13 60.58C399.406 60.3879 399.595 60.1161 399.66 59.82C400.193 57.38 401.187 55.1367 402.64 53.09C402.814 52.8524 402.892 52.5314 402.86 52.19Z" fill="#794F63"/>
<path d="M485.96 57.78C491.08 52.22 495.947 48.23 500.56 45.81C503.547 44.25 506.497 42.6233 509.41 40.93C510.797 40.1233 511.933 39.8067 512.82 39.98C514.207 40.24 515.003 41.25 515.21 43.01C515.242 43.3136 515.153 43.6335 514.96 43.91C511.16 49.43 507.777 56.48 504.81 65.06C502.89 70.62 501.893 75.35 501.82 79.25C501.713 85.13 502.25 90.95 503.43 96.71C504.45 101.73 505.517 106.743 506.63 111.75C506.63 111.77 507.45 115.09 509.09 121.71C510.017 125.45 510.757 129.227 511.31 133.04C511.87 136.907 511.97 140.727 511.61 144.5C510.823 152.6 509.1 159.997 506.44 166.69C503.347 174.47 498.583 181.037 492.15 186.39C486.07 191.45 479.433 195.623 472.24 198.91C471.68 199.17 471.163 199.253 470.69 199.16C469.59 198.933 469.443 198.347 470.25 197.4C470.757 196.8 471.027 196.477 471.06 196.43C483.367 179.79 487.29 161.707 482.83 142.18C482.403 140.307 480.57 134.803 477.33 125.67C474.503 117.723 472.497 110.23 471.31 103.19C470.49 98.29 470.713 92.71 471.98 86.45C473.687 78.0367 476.673 70.3667 480.94 63.44C481.547 62.4533 482.34 61.4633 483.32 60.47C484.927 58.8367 485.807 57.94 485.96 57.78Z" fill="#794F63"/>
<path d="M164.62 345.94C164.533 345.553 164.373 345.307 164.14 345.2C164.058 345.162 163.986 345.107 163.928 345.038C163.87 344.969 163.828 344.889 163.806 344.802C163.783 344.715 163.779 344.624 163.796 344.535C163.812 344.447 163.848 344.363 163.9 344.29C175.54 328.057 188.767 313.833 203.58 301.62C210.02 296.307 215.233 292.157 219.22 289.17C227.22 283.183 235.917 277.98 245.31 273.56C255.29 268.867 264.53 264.907 273.03 261.68C273.303 261.576 273.635 261.562 273.98 261.64C274.927 261.853 275.953 261.743 277.06 261.31C277.88 260.997 278.947 260.813 280.26 260.76C280.561 260.747 280.869 260.643 281.15 260.46C282.21 259.753 283.41 259.487 284.75 259.66C285.017 259.7 285.34 259.67 285.72 259.57L292.75 257.82C293.067 257.742 293.342 257.57 293.53 257.33C294.35 256.297 295.727 256.17 297.66 256.95C298.003 257.092 298.384 257.114 298.74 257.01C301.393 256.27 304.147 255.853 307 255.76C307.148 255.758 307.291 255.707 307.405 255.616C307.519 255.526 307.598 255.4 307.63 255.26C307.903 254.1 307.887 252.943 307.58 251.79C307.543 251.646 307.467 251.512 307.358 251.402C307.25 251.292 307.113 251.209 306.96 251.16C297.833 248.3 290.39 243.043 284.63 235.39C282.05 231.963 281.43 228.633 282.77 225.4C283.517 223.587 285.387 221.157 288.38 218.11C291.013 215.417 293.937 213.097 297.15 211.15C299.99 209.43 303.397 208.013 307.37 206.9C322.15 202.773 336.913 202.797 351.66 206.97C356.007 208.197 359.707 209.78 362.76 211.72C366.22 213.92 369.327 216.553 372.08 219.62C374.313 222.12 375.68 224.463 376.18 226.65C376.887 229.71 376.307 232.557 374.44 235.19C368.9 242.997 361.013 248.49 350.78 251.67C350.628 251.717 350.489 251.795 350.374 251.899C350.26 252.003 350.173 252.13 350.12 252.27C349.38 254.303 350.093 255.447 352.26 255.7C385.027 259.613 414.783 270.973 441.53 289.78C443.783 291.36 446.327 293.47 449.16 296.11C451.58 298.37 454.053 300.573 456.58 302.72C462.007 307.34 465.723 310.607 467.73 312.52C472.923 317.467 476.367 321.023 478.06 323.19C481.133 327.103 484.367 330.873 487.76 334.5C491.333 338.32 494.05 341.557 495.91 344.21C510.957 365.61 521.813 389.04 528.48 414.5C528.793 415.7 528.947 416.91 528.94 418.13C528.927 419.717 528.997 420.91 529.15 421.71C530.823 430.737 532.523 442.083 534.25 455.75C534.503 457.777 534.527 459.633 534.32 461.32C534.107 463.093 533.477 464.79 532.43 466.41C529.23 471.403 524.253 473.683 517.5 473.25C505.133 472.457 491.713 472.257 477.24 472.65C466.18 472.943 459.517 473.103 457.25 473.13C433.67 473.403 416.253 473.36 405 473C386.64 472.413 373.747 472.14 366.32 472.18C366.176 472.183 366.032 472.145 365.901 472.072C365.77 471.999 365.656 471.891 365.57 471.76C365.13 471.107 364.737 471.1 364.39 471.74C364.314 471.876 364.21 471.99 364.088 472.069C363.967 472.149 363.833 472.19 363.7 472.19C339.8 472.263 315.9 472.36 292 472.48C291.36 472.48 290.833 472.25 290.42 471.79C290.325 471.685 290.194 471.621 290.054 471.61C289.915 471.598 289.777 471.642 289.67 471.73C289.143 472.15 288.587 472.357 288 472.35C278.087 472.283 268.17 472.25 258.25 472.25C257.337 472.25 256.68 472.05 256.28 471.65C256.242 471.612 256.197 471.582 256.147 471.561C256.097 471.54 256.044 471.53 255.99 471.53C255.936 471.53 255.883 471.54 255.833 471.561C255.783 471.582 255.738 471.612 255.7 471.65L255.37 471.97C255.281 472.058 255.162 472.129 255.019 472.177C254.876 472.225 254.713 472.25 254.54 472.25C242.94 472.25 231.34 472.25 219.74 472.25C213.62 472.25 206.96 472.163 199.76 471.99C181.5 471.557 163.24 471.313 144.98 471.26C138.673 471.24 135.197 471.153 134.55 471C131.577 470.287 129.367 468.5 127.92 465.64C127.1 464.027 126.757 461.857 126.89 459.13C127.31 450.177 128.213 441.277 129.6 432.43C131.033 423.29 131.86 418.123 132.08 416.93C132.98 412.177 134.267 407.097 135.94 401.69C136.82 398.837 137.673 396.67 138.5 395.19C138.649 394.911 138.705 394.588 138.66 394.27C138.44 392.757 138.897 391.573 140.03 390.72C140.31 390.505 140.512 390.244 140.61 389.97C144.99 378.45 148.1 371.19 149.94 368.19C153.68 362.083 157.387 355.957 161.06 349.81C161.567 348.963 162.64 347.937 164.28 346.73C164.413 346.632 164.517 346.505 164.578 346.364C164.638 346.224 164.653 346.076 164.62 345.94Z" fill="#794F63"/>
<path d="M163.2 529.31C157.38 529.237 151.563 529.21 145.75 529.23C141.743 529.243 137.773 528.953 133.84 528.36C130.713 527.887 126.807 527.197 122.12 526.29C112.347 524.39 103.243 521.107 94.8099 516.44C77.8633 507.053 65.63 493.483 58.11 475.73C56.4966 471.93 55.8066 468.663 56.04 465.93C56.2666 463.243 57.0633 460.72 58.43 458.36C59.75 456.08 61.5433 454.243 63.81 452.85C69.51 449.357 75.3033 450.01 81.19 454.81C83.1766 456.43 84.88 458.273 86.3 460.34C86.8533 461.153 87.9766 463.37 89.6699 466.99C91.6233 471.17 93.7533 474.487 96.0599 476.94C105.26 486.693 116.343 492.443 129.31 494.19C137.063 495.23 145.96 495.75 156 495.75C171.753 495.75 187.503 495.82 203.25 495.96C209.417 496.013 215.583 495.943 221.75 495.75C223.33 495.703 224.623 495.603 225.63 495.45C227.743 495.143 229.013 494.987 229.44 494.98C252.873 494.727 276.31 494.66 299.75 494.78C304.103 494.8 308.453 494.903 312.8 495.09C317.72 495.303 322.067 495.373 325.84 495.3C353.893 494.733 381.943 494.593 409.99 494.88C415.29 494.933 421.953 495.12 429.98 495.44C455.027 496.427 481.617 496.697 509.75 496.25C516.283 496.15 522.383 495.827 528.05 495.28C534.657 494.64 540.157 493.38 544.55 491.5C553.69 487.58 561.237 481.393 567.19 472.94C568.363 471.267 570.323 467.727 573.07 462.32C576.99 454.607 582.89 451.457 590.77 452.87C593.63 453.383 595.95 454.307 597.73 455.64C599.923 457.293 601.347 459.497 602 462.25C602.493 464.317 602.68 466.657 602.56 469.27C602.467 471.43 601.887 473.657 600.82 475.95C586.567 506.537 562.147 523.407 527.56 526.56C526.813 526.633 525.407 526.98 523.34 527.6C521.9 528.033 520.48 528.25 519.08 528.25C511.267 528.25 503.273 528.25 495.1 528.25C494.914 528.25 494.732 528.305 494.577 528.408C494.422 528.511 494.301 528.658 494.23 528.83C492.01 534.25 489.013 539.127 485.24 543.46C483.133 545.88 481.097 548.027 479.13 549.9C476.803 552.107 474.407 553.87 471.94 555.19C465.2 558.783 457.963 561.013 450.23 561.88C448.037 562.127 441.377 562.25 430.25 562.25C424.97 562.25 419.69 562.25 414.41 562.25C409.063 562.25 403.79 562.337 398.59 562.51C385.977 562.93 373.363 563.38 360.75 563.86C353.85 564.127 347.183 564.26 340.75 564.26C320.117 564.267 299.487 564.187 278.86 564.02C277.547 564.007 276.19 563.75 274.79 563.25C273.903 562.93 273.007 562.64 272.1 562.38C271.267 562.133 270.35 562.067 269.35 562.18C266.777 562.473 264.2 562.577 261.62 562.49C257.747 562.363 255.787 562.3 255.74 562.3C242.16 562.233 228.58 562.183 215 562.15C204.993 562.123 195.713 559.82 187.16 555.24C184.2 553.66 181.06 551.283 177.74 548.11C172.967 543.557 169.867 540.373 168.44 538.56C167.727 537.66 166.213 534.73 163.9 529.77C163.837 529.633 163.738 529.516 163.613 529.435C163.489 529.353 163.346 529.31 163.2 529.31Z" fill="#794F63"/>
</svg>
