<svg width="300" height="300" viewBox="0 0 300 300" fill="none" xmlns="http://www.w3.org/2000/svg">
<rect width="300" height="300" fill="#E4E9E0"/>
<path d="M146.831 125.648C140.631 141.355 134.341 157.271 127.961 173.398C126.941 175.965 125.535 178.078 123.741 179.738C121.935 181.398 119.738 182.478 117.151 182.978C112.665 183.845 108.518 182.691 104.711 179.518C94.2979 170.831 83.8646 162.168 73.4112 153.528C73.1594 153.321 72.8438 153.211 72.5212 153.218C60.8946 153.398 53.8946 153.311 51.5212 152.958C49.6146 152.671 47.9679 151.748 46.5812 150.188C45.3612 148.808 44.5679 147.195 44.2012 145.348C43.5212 141.961 44.5646 139.018 47.3312 136.518C48.8046 135.191 50.7012 134.481 53.0212 134.388C55.7746 134.275 62.6079 134.298 73.5212 134.458C76.5612 134.505 79.2112 135.101 81.4712 136.248C82.3246 136.681 84.4212 138.285 87.7612 141.058C95.8546 147.771 103.958 154.465 112.071 161.138C112.117 161.175 112.171 161.201 112.229 161.214C112.287 161.226 112.347 161.225 112.404 161.211C112.461 161.196 112.514 161.168 112.559 161.13C112.604 161.091 112.639 161.043 112.661 160.988C119.835 142.888 126.955 124.878 134.021 106.958C135.088 104.251 136.405 102.021 137.971 100.268C139.565 98.4812 141.718 97.2446 144.431 96.5579C150.038 95.1512 154.551 96.4046 157.971 100.318C159.645 102.231 161.338 105.915 163.051 111.368C170.125 133.848 177.111 156.275 184.011 178.648C184.218 179.335 184.525 179.385 184.931 178.798C192.925 167.178 200.851 155.711 208.711 144.398C210.145 142.331 212.095 140.865 214.561 139.998C215.988 139.491 218.325 139.185 221.571 139.078C233.358 138.678 242.175 138.721 248.021 139.208C249.881 139.361 251.515 140.238 252.921 141.838C254.055 143.118 254.801 144.705 255.161 146.598C255.961 150.805 254.711 153.945 251.411 156.018C249.678 157.105 247.091 157.711 243.651 157.838C237.278 158.071 230.738 158.015 224.031 157.668C222.831 157.608 221.895 158.075 221.221 159.068C212.248 172.295 203.245 185.405 194.211 198.398C192.471 200.898 190.168 202.625 187.301 203.578C184.608 204.478 181.871 204.555 179.091 203.808C176.205 203.028 173.825 201.488 171.951 199.188C170.778 197.748 169.638 195.281 168.531 191.788C161.565 169.801 154.728 147.771 148.021 125.698C147.668 124.551 147.271 124.535 146.831 125.648Z" fill="#372965"/>
</svg>
