<svg width="241" height="370" viewBox="0 0 241 370" fill="none" xmlns="http://www.w3.org/2000/svg">
<path d="M1.87005 215.51L2.03005 215.49C2.0744 215.484 2.11719 215.461 2.15286 215.423C2.18853 215.386 2.21543 215.336 2.23005 215.28C3.45005 210.053 4.58005 204.81 5.62005 199.55C7.53338 189.877 8.49338 185.013 8.50005 184.96C21.0934 123.827 33.6 62.64 46.02 1.4C46.071 1.14588 46.2084 0.917283 46.409 0.753168C46.6096 0.589053 46.8609 0.49958 47.12 0.500001L185.33 0.560001C185.4 0.559724 185.468 0.577226 185.529 0.610851C185.591 0.644476 185.642 0.693114 185.679 0.75217C185.716 0.811226 185.737 0.878749 185.741 0.94836C185.745 1.01797 185.731 1.08737 185.7 1.15C181.853 9.09 178.077 16.84 174.37 24.4C154.223 65.5 134.11 106.613 114.03 147.74C114.006 147.788 113.995 147.84 113.997 147.894C113.999 147.947 114.015 147.999 114.043 148.044C114.072 148.089 114.111 148.126 114.158 148.152C114.204 148.177 114.257 148.191 114.31 148.19L240.43 148.25C240.817 148.25 240.883 148.397 240.63 148.69L51.79 368.96C51.49 369.307 51.4134 369.263 51.56 368.83L100.93 221.47C100.957 221.39 100.964 221.305 100.952 221.221C100.939 221.137 100.908 221.058 100.859 220.989C100.81 220.92 100.746 220.863 100.672 220.823C100.597 220.784 100.514 220.762 100.43 220.76C88.6434 220.567 77.0834 220.563 65.75 220.75C57.0767 220.89 35.58 220.807 1.26005 220.5C1.18338 220.5 1.10722 220.488 1.03646 220.463C0.965699 220.438 0.901901 220.401 0.849165 220.355C0.796429 220.309 0.75592 220.254 0.730239 220.195C0.704558 220.136 0.694274 220.073 0.700047 220.01L1.01005 215.27C1.01511 215.202 1.04472 215.139 1.09294 215.092C1.14116 215.046 1.20443 215.02 1.27005 215.02C1.37005 215.02 1.44338 215.06 1.49005 215.14C1.5559 215.252 1.62922 215.349 1.69816 215.416C1.76711 215.483 1.82766 215.516 1.87005 215.51Z" fill="#B96C5B"/>
</svg>
