<?xml version="1.0" encoding="UTF-8" standalone="no"?>
<!DOCTYPE svg PUBLIC "-//W3C//DTD SVG 1.1//EN" "http://www.w3.org/Graphics/SVG/1.1/DTD/svg11.dtd">
<svg xmlns="http://www.w3.org/2000/svg" version="1.1" viewBox="0 0 561 561">
<g stroke-width="2.00" fill="none" stroke-linecap="butt">
<path stroke="#988ea1" vector-effect="non-scaling-stroke" d="
  M 555.83 279.28
  A 276.25 276.25 0.0 0 0 279.58 3.03
  A 276.25 276.25 0.0 0 0 3.33 279.28
  A 276.25 276.25 0.0 0 0 279.58 555.53
  A 276.25 276.25 0.0 0 0 555.83 279.28"
/>
<path stroke="#988ea1" vector-effect="non-scaling-stroke" d="
  M 283.29 218.95
  Q 311.81 248.34 340.09 277.95
  A 0.52 0.52 -90.0 0 1 340.09 278.67
  Q 285.92 334.97 231.85 391.37
  Q 227.13 396.29 225.32 400.04
  Q 220.50 410.07 223.85 420.40
  Q 226.40 428.26 232.24 433.17
  Q 238.54 438.46 247.25 439.00
  Q 254.20 439.43 260.53 435.99
  Q 263.01 434.64 265.97 431.88
  Q 268.46 429.55 270.84 427.09
  Q 330.54 365.25 390.14 303.31
  Q 390.19 303.26 394.05 299.36
  Q 398.39 294.98 399.69 292.44
  Q 406.73 278.64 400.57 266.13
  Q 398.51 261.94 392.18 255.37
  Q 332.74 193.64 273.19 132.01
  Q 264.54 123.05 261.94 121.42
  Q 255.13 117.16 246.25 117.77
  Q 239.65 118.23 234.29 122.06
  Q 222.83 130.22 222.72 144.50
  Q 222.64 155.50 229.06 162.44
  Q 241.82 176.22 283.29 218.95"
/>
</g>
<path fill="#e4e9e0" d="
  M 0.00 0.00
  L 561.00 0.00
  L 561.00 561.00
  L 0.00 561.00
  L 0.00 0.00
  Z
  M 555.83 279.28
  A 276.25 276.25 0.0 0 0 279.58 3.03
  A 276.25 276.25 0.0 0 0 3.33 279.28
  A 276.25 276.25 0.0 0 0 279.58 555.53
  A 276.25 276.25 0.0 0 0 555.83 279.28
  Z"
/>
<path fill="#4b3262" d="
  M 555.83 279.28
  A 276.25 276.25 0.0 0 1 279.58 555.53
  A 276.25 276.25 0.0 0 1 3.33 279.28
  A 276.25 276.25 0.0 0 1 279.58 3.03
  A 276.25 276.25 0.0 0 1 555.83 279.28
  Z
  M 283.29 218.95
  Q 311.81 248.34 340.09 277.95
  A 0.52 0.52 -90.0 0 1 340.09 278.67
  Q 285.92 334.97 231.85 391.37
  Q 227.13 396.29 225.32 400.04
  Q 220.50 410.07 223.85 420.40
  Q 226.40 428.26 232.24 433.17
  Q 238.54 438.46 247.25 439.00
  Q 254.20 439.43 260.53 435.99
  Q 263.01 434.64 265.97 431.88
  Q 268.46 429.55 270.84 427.09
  Q 330.54 365.25 390.14 303.31
  Q 390.19 303.26 394.05 299.36
  Q 398.39 294.98 399.69 292.44
  Q 406.73 278.64 400.57 266.13
  Q 398.51 261.94 392.18 255.37
  Q 332.74 193.64 273.19 132.01
  Q 264.54 123.05 261.94 121.42
  Q 255.13 117.16 246.25 117.77
  Q 239.65 118.23 234.29 122.06
  Q 222.83 130.22 222.72 144.50
  Q 222.64 155.50 229.06 162.44
  Q 241.82 176.22 283.29 218.95
  Z"
/>
<path fill="#e4e9e0" d="
  M 283.29 218.95
  Q 241.82 176.22 229.06 162.44
  Q 222.64 155.50 222.72 144.50
  Q 222.83 130.22 234.29 122.06
  Q 239.65 118.23 246.25 117.77
  Q 255.13 117.16 261.94 121.42
  Q 264.54 123.05 273.19 132.01
  Q 332.74 193.64 392.18 255.37
  Q 398.51 261.94 400.57 266.13
  Q 406.73 278.64 399.69 292.44
  Q 398.39 294.98 394.05 299.36
  Q 390.19 303.26 390.14 303.31
  Q 330.54 365.25 270.84 427.09
  Q 268.46 429.55 265.97 431.88
  Q 263.01 434.64 260.53 435.99
  Q 254.20 439.43 247.25 439.00
  Q 238.54 438.46 232.24 433.17
  Q 226.40 428.26 223.85 420.40
  Q 220.50 410.07 225.32 400.04
  Q 227.13 396.29 231.85 391.37
  Q 285.92 334.97 340.09 278.67
  A 0.52 0.52 0.0 0 0 340.09 277.95
  Q 311.81 248.34 283.29 218.95
  Z"
/>
</svg>
