<svg width="553" height="553" viewBox="0 0 553 553" fill="none" xmlns="http://www.w3.org/2000/svg">
<path d="M552.83 276.28C552.83 312.558 545.684 348.48 531.802 381.996C517.919 415.513 497.57 445.966 471.918 471.618C446.266 497.27 415.812 517.619 382.296 531.502C348.78 545.385 312.858 552.53 276.58 552.53C203.314 552.53 133.049 523.425 81.2417 471.618C29.4348 419.811 0.329956 349.546 0.329956 276.28C0.329956 203.014 29.4348 132.749 81.2417 80.9418C133.049 29.1349 203.314 0.0300293 276.58 0.0300293C312.858 0.0300293 348.78 7.17545 382.296 21.0583C415.812 34.9412 446.266 55.2896 471.918 80.9418C497.57 106.594 517.919 137.048 531.802 170.564C545.684 204.08 552.83 240.002 552.83 276.28ZM280.29 215.95C299.303 235.543 318.237 255.21 337.09 274.95C337.183 275.047 337.235 275.176 337.235 275.31C337.235 275.444 337.183 275.573 337.09 275.67C300.977 313.203 264.897 350.77 228.85 388.37C225.703 391.65 223.527 394.54 222.32 397.04C219.107 403.727 218.617 410.513 220.85 417.4C222.55 422.64 225.347 426.897 229.24 430.17C233.44 433.697 238.443 435.64 244.25 436C248.883 436.287 253.31 435.283 257.53 432.99C259.183 432.09 260.997 430.72 262.97 428.88C264.63 427.327 266.253 425.73 267.84 424.09C307.64 382.863 347.407 341.603 387.14 300.31C387.173 300.277 388.477 298.96 391.05 296.36C393.943 293.44 395.823 291.133 396.69 289.44C401.383 280.24 401.677 271.47 397.57 263.13C396.197 260.337 393.4 256.75 389.18 252.37C349.553 211.217 309.89 170.097 270.19 129.01C264.423 123.037 260.673 119.507 258.94 118.42C254.4 115.58 249.17 114.363 243.25 114.77C238.85 115.077 234.863 116.507 231.29 119.06C223.65 124.5 219.793 131.98 219.72 141.5C219.667 148.833 221.78 154.813 226.06 159.44C234.567 168.627 252.643 187.463 280.29 215.95Z" fill="#4B3262"/>
</svg>
