<?xml version="1.0" encoding="UTF-8" standalone="no"?>
<!DOCTYPE svg PUBLIC "-//W3C//DTD SVG 1.1//EN" "http://www.w3.org/Graphics/SVG/1.1/DTD/svg11.dtd">
<svg xmlns="http://www.w3.org/2000/svg" version="1.1" viewBox="0 0 196 204">
<path stroke="#ff964d" stroke-width="2.00" fill="none" stroke-linecap="butt" vector-effect="non-scaling-stroke" d="
  M 98.49 92.29
  Q 98.69 91.65 99.02 92.23
  Q 105.09 102.94 115.36 105.75
  Q 121.92 107.55 130.63 105.60
  Q 137.61 104.03 145.31 100.56
  Q 154.90 96.24 158.62 86.41
  Q 160.97 80.17 162.92 73.15
  A 0.82 0.81 -67.9 0 0 162.53 72.22
  Q 160.40 71.03 158.40 69.34
  Q 142.42 55.74 127.20 39.52
  A 1.56 1.55 58.2 0 0 125.52 39.12
  Q 112.82 43.91 103.45 52.50
  Q 101.10 54.66 100.17 55.01
  Q 97.84 55.89 95.69 53.81
  Q 85.11 43.61 71.73 39.16
  A 0.79 0.78 30.6 0 0 70.91 39.36
  Q 58.08 52.69 44.49 65.24
  Q 40.36 69.06 35.39 72.39
  A 0.72 0.71 66.2 0 0 35.09 73.17
  Q 36.70 79.61 38.84 85.47
  Q 43.16 97.31 54.93 101.94
  Q 60.94 104.30 67.24 105.80
  Q 84.23 109.84 95.64 97.16
  Q 97.64 94.93 98.49 92.29"
/>
<path fill="#ffb74d" d="
  M 40.20 106.88
  Q 40.05 106.26 39.92 106.89
  Q 37.21 119.50 30.72 126.27
  A 0.96 0.91 -52.7 0 1 29.58 126.45
  L 6.08 112.52
  Q 4.57 111.62 4.70 109.78
  Q 5.16 102.98 5.82 96.98
  Q 6.73 88.78 9.56 83.56
  Q 12.83 77.54 11.63 72.03
  Q 10.44 66.57 10.23 61.03
  Q 9.97 54.46 10.48 49.99
  Q 11.41 41.77 15.93 35.09
  Q 19.99 29.09 27.44 24.96
  Q 39.97 18.00 54.93 18.42
  A 1.75 1.65 28.3 0 0 55.86 18.17
  Q 64.22 12.77 73.54 9.27
  Q 76.43 8.18 79.50 8.16
  Q 97.50 8.00 115.50 8.00
  Q 120.54 8.00 123.10 8.82
  Q 131.67 11.56 139.21 16.79
  Q 141.64 18.48 144.60 18.38
  Q 153.61 18.06 162.57 21.30
  Q 172.07 24.73 177.89 30.43
  Q 186.31 38.68 187.50 51.50
  Q 188.50 62.27 185.98 73.47
  Q 185.50 75.62 186.06 77.52
  Q 187.02 80.79 188.32 83.95
  Q 189.92 87.86 190.48 90.38
  Q 192.60 99.99 193.05 110.79
  A 1.56 1.49 73.7 0 1 192.33 112.17
  L 168.85 126.23
  A 1.78 1.73 52.8 0 1 166.67 125.90
  Q 159.75 118.47 158.38 107.94
  A 0.64 0.44 81.2 0 0 157.83 107.36
  Q 157.46 107.44 157.31 108.02
  Q 156.16 112.64 154.71 117.17
  Q 154.36 118.29 151.33 126.07
  Q 144.17 144.49 147.75 163.00
  Q 148.69 167.86 147.98 171.82
  Q 147.38 175.20 144.45 179.64
  Q 139.46 187.21 131.94 193.19
  Q 130.31 194.48 128.72 195.24
  Q 127.28 195.94 125.04 195.94
  Q 81.32 196.11 71.00 196.00
  Q 68.92 195.98 67.14 194.66
  Q 66.97 194.53 64.20 191.99
  Q 57.96 186.26 52.44 178.06
  Q 48.55 172.31 49.85 166.02
  Q 54.23 144.85 46.10 124.96
  Q 42.49 116.10 40.20 106.88
  Z
  M 98.49 92.29
  Q 98.69 91.65 99.02 92.23
  Q 105.09 102.94 115.36 105.75
  Q 121.92 107.55 130.63 105.60
  Q 137.61 104.03 145.31 100.56
  Q 154.90 96.24 158.62 86.41
  Q 160.97 80.17 162.92 73.15
  A 0.82 0.81 -67.9 0 0 162.53 72.22
  Q 160.40 71.03 158.40 69.34
  Q 142.42 55.74 127.20 39.52
  A 1.56 1.55 58.2 0 0 125.52 39.12
  Q 112.82 43.91 103.45 52.50
  Q 101.10 54.66 100.17 55.01
  Q 97.84 55.89 95.69 53.81
  Q 85.11 43.61 71.73 39.16
  A 0.79 0.78 30.6 0 0 70.91 39.36
  Q 58.08 52.69 44.49 65.24
  Q 40.36 69.06 35.39 72.39
  A 0.72 0.71 66.2 0 0 35.09 73.17
  Q 36.70 79.61 38.84 85.47
  Q 43.16 97.31 54.93 101.94
  Q 60.94 104.30 67.24 105.80
  Q 84.23 109.84 95.64 97.16
  Q 97.64 94.93 98.49 92.29
  Z"
/>
<path fill="#ff754c" d="
  M 98.49 92.29
  Q 97.64 94.93 95.64 97.16
  Q 84.23 109.84 67.24 105.80
  Q 60.94 104.30 54.93 101.94
  Q 43.16 97.31 38.84 85.47
  Q 36.70 79.61 35.09 73.17
  A 0.72 0.71 66.2 0 1 35.39 72.39
  Q 40.36 69.06 44.49 65.24
  Q 58.08 52.69 70.91 39.36
  A 0.79 0.78 30.6 0 1 71.73 39.16
  Q 85.11 43.61 95.69 53.81
  Q 97.84 55.89 100.17 55.01
  Q 101.10 54.66 103.45 52.50
  Q 112.82 43.91 125.52 39.12
  A 1.56 1.55 58.2 0 1 127.20 39.52
  Q 142.42 55.74 158.40 69.34
  Q 160.40 71.03 162.53 72.22
  A 0.82 0.81 -67.9 0 1 162.92 73.15
  Q 160.97 80.17 158.62 86.41
  Q 154.90 96.24 145.31 100.56
  Q 137.61 104.03 130.63 105.60
  Q 121.92 107.55 115.36 105.75
  Q 105.09 102.94 99.02 92.23
  Q 98.69 91.65 98.49 92.29
  Z"
/>
</svg>
