<svg width="504" height="512" viewBox="0 0 504 512" fill="none" xmlns="http://www.w3.org/2000/svg">
<path d="M393.74 477.43C394.42 478.73 394.757 480.253 394.75 482C394.743 484.46 393.803 485.87 391.93 486.23C391.89 486.243 390.433 486.25 387.56 486.25C329.62 486.357 271.68 486.287 213.74 486.04C207.507 486.013 200.847 485.927 193.76 485.78C187.367 485.647 180.973 485.523 174.58 485.41C168.887 485.31 162.497 485.27 155.41 485.29C136.543 485.343 117.73 485.247 98.9701 485C98.8712 484.999 98.7735 484.978 98.6829 484.938C98.5923 484.898 98.5105 484.841 98.4425 484.769C98.3744 484.697 98.3214 484.613 98.2867 484.52C98.2519 484.428 98.2361 484.329 98.2401 484.23C98.7534 472.23 99.4734 460.317 100.4 448.49C103.233 412.257 105.843 376.01 108.23 339.75C108.323 338.33 107.99 337.107 107.23 336.08C107.17 336 106.3 335.167 104.62 333.58C80.2135 310.467 63.7568 282.94 55.2501 251C52.7301 241.533 50.7301 230.913 49.2501 219.14C48.2634 211.24 47.7668 207.277 47.7601 207.25C42.9268 171.45 38.5901 140.783 34.7501 115.25C34.2768 112.123 33.9101 109.407 33.6501 107.1C33.2901 103.973 33.2201 101.237 33.4401 98.89C34.4868 87.8234 39.9034 79.2567 49.6901 73.19C51.9101 71.81 54.2168 70.6167 56.6101 69.61C57.4501 69.2634 59.8701 68.3367 63.8701 66.83C75.4434 62.4834 87.3801 59.7634 99.6801 58.67C108.4 57.9034 112.773 57.5167 112.8 57.51C117.447 56.9367 122.993 56.1634 129.44 55.19C132.12 54.7834 134.577 54.11 136.81 53.17C137.91 52.7034 140.153 51.54 143.54 49.68C148.353 47.0467 153.987 43.4667 160.44 38.94C170.293 32.02 180.397 26.54 190.75 22.5C193.617 21.38 196.627 21.3267 199.78 22.34C200.063 22.4304 200.391 22.4018 200.7 22.26C201.453 21.92 202.387 21.75 203.5 21.75C234.327 21.7234 265.153 21.7434 295.98 21.81C298.007 21.81 299.913 22.1634 301.7 22.87C311.647 26.7967 321.013 31.8267 329.8 37.96C332.987 40.1934 336.19 42.4067 339.41 44.6C346.65 49.5267 354.263 52.7434 362.25 54.25C365.583 54.8767 369.907 55.53 375.22 56.21C377.213 56.4634 381.573 56.84 388.3 57.34C399.62 58.1867 410.937 60.3234 422.25 63.75C424.13 64.3167 425.727 65.0767 427.04 66.03C427.08 66.0634 427.383 66.3767 427.95 66.97C428.51 67.5634 429.197 67.57 430.01 66.99C430.189 66.8634 430.396 66.7826 430.614 66.7547C430.832 66.7269 431.054 66.7527 431.26 66.83C439.54 69.9167 446.433 74.6867 451.94 81.14C453.8 83.32 455.27 85.5667 456.35 87.88C457.49 90.3267 458.353 92.8867 458.94 95.56C459.12 96.4134 459.287 97.4134 459.44 98.56C459.707 100.62 459.693 102.68 459.4 104.74C456.007 128.833 452.54 152.92 449 177C448.853 178.007 448.76 178.807 448.72 179.4C448.633 180.853 448.59 181.58 448.59 181.58C445.91 199.273 443.463 216.997 441.25 234.75C441.003 236.75 440.397 239.487 439.43 242.96C438.677 245.673 437.96 248.383 437.28 251.09C434.6 261.777 430.813 272.067 425.92 281.96C415.747 302.513 401.917 320.987 384.43 337.38C384.216 337.579 384.051 337.825 383.949 338.099C383.847 338.374 383.809 338.668 383.84 338.96C385.78 356.52 387.103 373.89 387.81 391.07C387.937 394.157 388.183 397.437 388.55 400.91C388.897 404.183 389.193 407.463 389.44 410.75C391.053 432.077 392.57 453.41 393.99 474.75C394.037 475.377 393.943 475.977 393.71 476.55C393.653 476.698 393.627 476.853 393.632 477.005C393.637 477.156 393.674 477.301 393.74 477.43ZM129.72 306.28C137.727 314.013 142.717 318.523 144.69 319.81C146.377 320.917 147.15 322.48 147.01 324.5C145.123 351.607 143.19 378.71 141.21 405.81C141.203 405.857 140.68 412.31 139.64 425.17C139.04 432.49 138.557 440.017 138.19 447.75C138.181 447.947 138.211 448.143 138.281 448.327C138.35 448.512 138.456 448.68 138.593 448.821C138.73 448.963 138.894 449.075 139.076 449.15C139.258 449.226 139.453 449.263 139.65 449.26C166.39 448.96 192.843 448.727 219.01 448.56C225.017 448.52 231.683 448.527 239.01 448.58C255.59 448.687 272.17 448.72 288.75 448.68C309.25 448.627 330.053 448.567 351.16 448.5C351.372 448.499 351.581 448.455 351.775 448.369C351.969 448.284 352.144 448.16 352.287 448.004C352.431 447.848 352.541 447.664 352.61 447.464C352.679 447.264 352.707 447.051 352.69 446.84C349.677 408.313 346.91 369.78 344.39 331.24C344.237 328.887 343.893 326.31 343.36 323.51C343.323 323.313 343.335 323.11 343.394 322.92C343.454 322.73 343.559 322.558 343.7 322.42C347.107 319.073 350.51 315.87 353.91 312.81C359.21 308.05 362.637 304.873 364.19 303.28C381.123 285.88 392.837 265.503 399.33 242.15C400.677 237.283 401.913 230.74 403.04 222.52C408.32 184.033 413.767 145.3 419.38 106.32C419.447 105.868 419.365 105.406 419.147 105.005C418.928 104.604 418.585 104.287 418.17 104.1C409.49 100.167 400.017 97.8834 389.75 97.25C383.743 96.8767 373.493 95.63 359 93.51C350.127 92.21 341.68 89.6967 333.66 85.97C330.127 84.33 325.677 81.78 320.31 78.32C315.997 75.5334 311.727 72.6767 307.5 69.75C305.26 68.2034 301.99 66.2234 297.69 63.81C294.577 62.07 291.413 60.96 288.2 60.48C287.14 60.3267 283.84 60.25 278.3 60.25C253.107 60.25 227.84 60.25 202.5 60.25C201.707 60.25 200.95 60.4167 200.23 60.75C197.59 61.9834 195.073 63.23 192.68 64.49C190.527 65.63 188.133 67.0767 185.5 68.83C179.847 72.6034 174.213 76.41 168.6 80.25C167.873 80.7434 167.083 81.14 166.23 81.44C165.383 81.74 164.54 82.0467 163.7 82.36C162.613 82.76 161.39 83.31 160.03 84.01C153.07 87.59 145.733 90.1134 138.02 91.58C130.64 92.9867 125.8 93.7934 123.5 94C104.653 95.7134 93.5701 96.9634 90.2501 97.75C84.0368 99.2167 78.0501 101.123 72.2901 103.47C71.8774 103.638 71.5335 103.94 71.3139 104.327C71.0943 104.713 71.012 105.162 71.0801 105.6C75.2068 132.84 79.0168 159.733 82.5101 186.28C85.9434 212.387 88.1901 227.96 89.2501 233C95.2701 261.62 108.76 286.047 129.72 306.28Z" fill="#777777"/>
<path d="M227.31 198.19C229.543 200.07 231.313 202.18 232.62 204.52C233.733 206.52 234.443 209.113 234.75 212.3C234.977 214.613 235.087 216.937 235.08 219.27C235.08 222.523 235.003 224.847 234.85 226.24C234.203 232.08 231.523 236.853 226.81 240.56C224.037 242.747 220.847 244.427 217.24 245.6C215.9 246.033 214.39 246.11 212.71 245.83C209.903 245.357 207.353 245.1 205.06 245.06C204.78 245.06 204.533 245.157 204.32 245.35C204.181 245.476 204.037 245.579 203.896 245.651C203.755 245.723 203.621 245.763 203.5 245.77C198.107 245.923 192.717 245.92 187.33 245.76C180.05 245.547 175.84 245.323 174.7 245.09C170.373 244.223 166.55 242.117 163.23 238.77C158.177 233.663 154.787 229.47 153.06 226.19C151.567 223.343 150.82 219.843 150.82 215.69C150.82 211.843 150.87 209.387 150.97 208.32C151.217 205.76 152.04 203.383 153.44 201.19C155.7 197.637 158.67 195.197 162.35 193.87C164.417 193.123 168.067 192.743 173.3 192.73C186.473 192.703 199.65 192.777 212.83 192.95C216.11 192.99 218.67 193.367 220.51 194.08C222.903 195.013 225.17 196.383 227.31 198.19Z" fill="#777777"/>
<path d="M261.48 201.97C265.213 197.023 269.97 194.2 275.75 193.5C278.317 193.193 281.317 193.103 284.75 193.23C289.617 193.41 292.617 193.5 293.75 193.5C301.35 193.5 308.947 193.5 316.54 193.5C323.34 193.5 327.923 193.96 330.29 194.88C335.277 196.807 338.447 200.693 339.8 206.54C340.1 207.813 340.25 209.463 340.25 211.49C340.257 213.163 340.263 214.833 340.27 216.5C340.29 219.453 339.68 222.267 338.44 224.94C336.967 228.113 333.923 232.153 329.31 237.06C326.13 240.453 322.56 242.797 318.6 244.09C316.28 244.857 312.17 245.26 306.27 245.3C291.49 245.407 282.4 245.39 279 245.25C270.673 244.91 264.527 241.383 260.56 234.67C258.873 231.823 257.82 228.53 257.4 224.79C257.033 221.583 256.983 218.07 257.25 214.25C257.59 209.35 259 205.257 261.48 201.97Z" fill="#777777"/>
<path d="M181.94 316.56C178.273 312.907 175.333 309.797 173.12 307.23C173.08 307.19 172.16 306.21 170.36 304.29C168.487 302.297 167.367 300.2 167 298C166.613 295.687 166.513 292.13 166.7 287.33C166.887 282.65 167.557 279.197 168.71 276.97C170.21 274.07 172.46 271.9 175.46 270.46C177.44 269.507 180.383 268.95 184.29 268.79C192.11 268.47 199.933 268.387 207.76 268.54C214.553 268.667 219.46 269.383 222.48 270.69C228.747 273.41 232.65 278.533 234.19 286.06C235.123 290.64 235.217 295.41 234.47 300.37C233.697 305.477 231.99 309.593 229.35 312.72C224.957 317.927 218.84 320.52 211 320.5C203.513 320.48 197.843 320.413 193.99 320.3C193.923 320.3 192.93 320.323 191.01 320.37C187.59 320.457 184.567 319.187 181.94 316.56Z" fill="#777777"/>
<path d="M265.22 315.52C260.36 311.427 257.703 305.837 257.25 298.75C256.977 294.49 257.127 290.57 257.7 286.99C258.387 282.71 259.857 279.167 262.11 276.36C264.703 273.127 268.013 270.913 272.04 269.72C274.24 269.073 278.077 268.75 283.55 268.75C290.923 268.75 298.3 268.75 305.68 268.75C309.493 268.75 312.473 269.18 314.62 270.04C322.007 273.013 325.55 279.167 325.25 288.5C325.083 293.807 324.913 297.367 324.74 299.18C324.707 299.507 324.583 299.822 324.38 300.09C319.253 306.837 314.21 312.557 309.25 317.25C307.317 319.077 304.817 320.067 301.75 320.22C293.583 320.62 285.417 320.623 277.25 320.23C272.697 320.01 268.687 318.44 265.22 315.52Z" fill="#777777"/>
<path d="M197.51 410.69C191.003 404.723 184.647 398.18 178.44 391.06C176.573 388.927 175.33 386.43 174.71 383.57C174.437 382.317 174.187 379.6 173.96 375.42C173.727 371.167 173.71 366.913 173.91 362.66C174.103 358.42 174.853 355.103 176.16 352.71C178.933 347.623 183.547 344.553 190 343.5C192.307 343.127 197.64 343.043 206 343.25C213.54 343.437 218.787 344.153 221.74 345.4C227.773 347.947 231.86 352.813 234 360C234.707 362.373 235.01 366.873 234.91 373.5C234.803 380.913 234.767 388.33 234.8 395.75C234.807 398.377 234.543 400.96 234.01 403.5C233.437 406.18 232.497 408.57 231.19 410.67C227.47 416.617 222.033 419.813 214.88 420.26C211.987 420.447 209.457 420.073 207.29 419.14C204.87 418.093 202.763 416.49 200.97 414.33C199.903 413.037 198.75 411.823 197.51 410.69Z" fill="#777777"/>
<path d="M264.85 415.66C260.723 412.147 258.293 407.673 257.56 402.24C257.033 398.347 256.793 394.433 256.84 390.5C256.92 384.14 257.013 377.783 257.12 371.43C257.233 364.67 257.777 359.94 258.75 357.24C260.583 352.16 263.913 348.423 268.74 346.03C271.933 344.443 276.563 343.543 282.63 343.33C285.877 343.21 289.127 343.197 292.38 343.29C298.367 343.457 301.61 343.57 302.11 343.63C309.13 344.503 314.157 348.48 317.19 355.56C317.85 357.1 318.177 359.58 318.17 363C318.17 369.667 318.03 375 317.75 379C317.563 381.693 316.913 384.32 315.8 386.88C314.94 388.867 313.42 391.047 311.24 393.42C305.347 399.827 297.997 407.25 289.19 415.69C287.097 417.69 285.093 418.967 283.18 419.52C276.307 421.493 270.197 420.207 264.85 415.66Z" fill="#777777"/>
</svg>
