<svg width="433" height="534" viewBox="0 0 433 534" fill="none" xmlns="http://www.w3.org/2000/svg">
<path d="M337.46 436.25C336.987 436.317 336.75 436.733 336.75 437.5C336.75 442.913 336.687 448.33 336.56 453.75C336.54 454.657 336.757 454.907 337.21 454.5C337.67 457.753 337.67 461.003 337.21 464.25C336.923 464.197 336.777 464.28 336.77 464.5C336.73 466.44 336.683 468.38 336.63 470.32C336.583 472.2 336.9 473.877 337.58 475.35C338.707 477.797 340.063 480.1 341.65 482.26C343.217 484.393 344.323 486.243 344.97 487.81C346.097 490.563 347.127 493.357 348.06 496.19C348.907 498.75 350.753 501.587 353.6 504.7C353.691 504.797 353.762 504.923 353.806 505.07C353.851 505.216 353.869 505.38 353.86 505.55C353.827 506.043 354.07 506.127 354.59 505.8C354.726 505.714 354.878 505.664 355.025 505.657C355.173 505.65 355.31 505.686 355.42 505.76C356.233 506.327 356.863 507.137 357.31 508.19C357.797 509.323 358.677 510.073 359.95 510.44C360.161 510.504 360.416 510.709 360.66 511.01L362.25 512.96C363.477 515.213 364.21 517.6 364.45 520.12C364.737 523.26 364.86 525.167 364.82 525.84C364.653 528.413 362.963 529.87 359.75 530.21C348.103 531.45 337.687 531.38 328.5 530C326.787 529.74 325.267 528.593 323.94 526.56C323.327 525.627 322.283 524.697 320.81 523.77C319.797 523.137 318.54 522.573 317.04 522.08C314.967 521.387 312.867 520.777 310.74 520.25C309.573 519.957 308.9 519.213 308.72 518.02C308.373 515.733 308.58 513.51 309.34 511.35C310.353 508.483 310.897 506.81 310.97 506.33C311.23 504.57 311.313 502.793 311.22 501C311.107 498.873 311.297 496.777 311.79 494.71C312.437 491.997 313.09 489.287 313.75 486.58C314.503 483.5 314.877 480.747 314.87 478.32C314.863 474.133 314.49 469.693 313.75 465C311.937 453.533 308.807 442.74 304.36 432.62C301.267 425.573 299.473 421.193 298.98 419.48C297.313 413.66 296.497 407.667 296.53 401.5C296.557 394.8 296.607 388.103 296.68 381.41C296.74 375.27 296.393 371.037 295.64 368.71C294.687 365.797 293.147 363.217 291.02 360.97C289.62 359.49 287.227 357.787 283.84 355.86C277.393 352.187 270.74 348.507 263.88 344.82C263.58 344.661 263.237 344.603 262.902 344.655C262.566 344.708 262.257 344.867 262.02 345.11C259.36 347.81 256.523 350.267 253.51 352.48C250.997 354.32 248.987 355.357 247.48 355.59C244.887 355.983 242.59 354.927 240.59 352.42C234.95 345.32 229.207 338.303 223.36 331.37C221.113 328.703 218.417 326.487 215.27 324.72C214.977 324.551 214.746 324.299 214.61 324C213.643 321.84 212.023 320.76 209.75 320.76C207.69 320.76 205.72 321.137 203.84 321.89C202.047 322.61 201.14 322.973 201.12 322.98C197.187 324.24 193.153 324.613 189.02 324.1C186.42 323.773 180.83 323.073 172.25 322C169.217 321.62 166.517 322.053 164.15 323.3C162.79 324.013 161.01 325.653 158.81 328.22C156.403 331.027 154.8 332.87 154 333.75C152.64 335.243 152.17 336.91 152.59 338.75C152.97 340.423 153.163 341.273 153.17 341.3C154.13 349.127 154.24 355.527 153.5 360.5C152.407 367.84 151.857 372.34 151.85 374C151.837 380.067 152.14 386.113 152.76 392.14C153.507 399.387 154.003 403.457 154.25 404.35C155.443 408.717 158.063 412.13 162.11 414.59C165.263 416.517 167.043 417.663 167.45 418.03C168.51 418.997 169.467 420.06 170.32 421.22C171.067 422.24 171.587 423.537 171.88 425.11C172.42 428.07 173.027 431.017 173.7 433.95C173.772 434.264 173.935 434.558 174.17 434.8C182.01 442.813 183.423 452.043 178.41 462.49C175.583 468.377 172.02 473.677 167.72 478.39C167.593 478.53 167.514 478.706 167.494 478.895C167.474 479.084 167.515 479.275 167.61 479.44C173.603 489.547 172.983 499.073 165.75 508.02C164.683 509.34 163.427 510.373 161.98 511.12C160.853 511.7 159.31 512.03 157.35 512.11C150.837 512.363 144.32 512.367 137.8 512.12C135.467 512.033 133.677 511.623 132.43 510.89C130.937 510.003 129.523 508.727 128.19 507.06C121.883 499.207 120.433 490.58 123.84 481.18C123.935 480.918 123.954 480.633 123.894 480.361C123.834 480.088 123.697 479.838 123.5 479.64C119.587 475.68 116.12 471.687 113.1 467.66C111.093 464.993 109.707 462.09 108.94 458.95C108.213 456.003 108.107 452.86 108.62 449.52C110.16 439.5 116.517 433.08 127.69 430.26C127.838 430.225 127.971 430.146 128.073 430.033C128.175 429.921 128.24 429.78 128.26 429.63C129.007 424.51 130.067 420.03 131.44 416.19C131.893 414.923 131.947 413.153 131.6 410.88C131.227 408.407 131.037 407.143 131.03 407.09C129.49 393.983 127.543 380.94 125.19 367.96C124.597 364.693 123.097 362.393 120.69 361.06C118.597 359.907 116.513 358.74 114.44 357.56C113.093 356.8 111.48 356.59 109.6 356.93C108.307 357.163 106.927 357.873 105.46 359.06C98.56 364.64 91.81 370.397 85.21 376.33C83.93 377.483 83.0667 378.767 82.62 380.18C81.88 382.52 81.32 385.273 80.94 388.44C79.7733 398.087 79.1667 403.773 79.12 405.5C78.9067 412.62 77.8767 419.57 76.03 426.35C74.83 430.77 72.3766 436.837 68.67 444.55C65.8233 450.47 62.9833 456.393 60.15 462.32C57.2833 468.327 55.4433 475.01 54.63 482.37C54.45 483.943 54.98 485.223 56.22 486.21C57.14 486.95 57.5233 488.107 57.37 489.68C57.2633 490.747 57.21 491.3 57.21 491.34C56.9767 498.013 58.2366 504.33 60.99 510.29C62.33 513.183 63 515.263 63 516.53C63.0067 519.823 61.2567 522.23 57.75 523.75C54.9233 524.977 51.61 525.83 47.81 526.31C46.0433 526.537 43.4033 527.907 39.89 530.42C36.6833 532.707 33.13 533.773 29.23 533.62C27.29 533.54 26.3033 533.5 26.27 533.5C19.4167 533.5 12.4667 533.5 5.41999 533.5C3.61999 533.5 2.47332 532.633 1.97998 530.9C1.36665 528.733 1.02998 526.48 0.969984 524.14C0.923318 522.393 1.29332 520.887 2.07999 519.62C2.86665 518.347 3.90332 517.12 5.18999 515.94C9.35665 512.093 12.7733 508.26 15.44 504.44C16.48 502.94 17.39 501.177 18.17 499.15C18.2366 498.983 18.6133 497.343 19.3 494.23C19.94 491.323 21.59 489.247 24.25 488C25.5633 487.387 26.6167 486.713 27.41 485.98C27.55 485.847 28.19 484.817 29.33 482.89C30.1367 481.517 31.2933 480.457 32.8 479.71C32.9367 479.643 33.0532 479.542 33.1375 479.418C33.2219 479.293 33.271 479.149 33.28 479C34.5067 457.647 35.6933 436.293 36.84 414.94C37.1733 408.773 37.8 403.697 38.72 399.71C39.86 394.797 41.35 389.873 43.19 384.94C45.67 378.293 47.8433 371.24 49.71 363.78C49.7233 363.707 50.13 361.5 50.93 357.16C51.7233 352.873 53.39 348.97 55.93 345.45C57.57 343.183 58.7833 341.293 59.57 339.78C63.5633 332.107 68.6033 325.16 74.69 318.94C77.0767 316.5 80.1667 312.323 83.96 306.41C90.12 296.797 97.2567 287.98 105.37 279.96C105.403 279.927 106.493 278.96 108.64 277.06C113.153 273.06 115.503 267.873 115.69 261.5C115.857 255.953 116.46 250.453 117.5 245C118.113 241.78 118.397 234.78 118.35 224C118.283 210.38 121.353 198.067 127.56 187.06C129.733 183.213 132.56 179.02 136.04 174.48C140.547 168.607 143.63 164.733 145.29 162.86C148.55 159.18 152.23 155.847 156.33 152.86C157.237 152.207 157.987 151.407 158.58 150.46C159.62 148.807 160.7 147.123 161.82 145.41C162.953 143.69 163.52 142.117 163.52 140.69C163.533 138.41 162.9 136.23 161.62 134.15C159.813 131.217 159.133 128.003 159.58 124.51C159.933 121.81 158.593 119.883 155.56 118.73C155.319 118.638 155.099 118.5 154.912 118.323C154.725 118.146 154.575 117.935 154.47 117.7C153.03 114.473 151.853 111.4 150.94 108.48C150.06 105.66 149.763 102.8 150.05 99.9C150.117 99.2134 150.52 98.07 151.26 96.47C151.793 95.3233 152.053 94.0833 152.04 92.75C152.013 88.8967 152.287 85.08 152.86 81.3C153.58 76.5467 154.4 72.8267 155.32 70.14C157.067 65.0267 159.98 60.8333 164.06 57.56C169.727 53.02 176.167 51.03 183.38 51.59C186.993 51.87 190.71 52.6167 194.53 53.83C198.19 54.99 201.63 56.6733 204.85 58.88C207.95 61.0067 210.24 63.8 211.72 67.26C214.933 74.82 216.547 82.7167 216.56 90.95C216.566 91.3155 216.67 91.6335 216.85 91.84L218.56 93.73C218.812 94.0077 218.968 94.2984 219 94.55C219.48 98.8034 219.3 103.037 218.46 107.25C217.24 107.67 217.157 108.253 218.21 109L218.65 112.38C218.717 112.94 218.96 113.03 219.38 112.65C228.16 104.737 238.033 100.103 249 98.75C253.647 98.1767 257.26 97.1 259.84 95.52C265.827 91.8533 272.733 89.45 280.56 88.31C283.373 87.9033 286.083 86.93 288.69 85.39C290.03 84.5967 292.16 82.7334 295.08 79.8C302.573 72.28 311.797 67.3467 322.75 65C333.73 62.6467 340.333 61.2533 342.56 60.82C361.5 57.1467 373.563 54.54 378.75 53C385.643 50.9533 391.227 47.2033 395.5 41.75C398.033 38.5167 400.713 35.8767 403.54 33.83C408.233 30.4433 412.317 26.4333 415.79 21.8C420.383 15.6733 424.517 9.25335 428.19 2.54001C428.77 1.48001 429.253 0.883345 429.64 0.750012C430.413 0.490012 431.15 1.29334 431.85 3.16001C431.926 3.36225 431.961 3.5779 431.952 3.79428C431.944 4.01066 431.892 4.2234 431.8 4.42001C428.887 10.64 425.993 17 423.12 23.5C423.093 23.5533 422.257 25.32 420.61 28.8C419.177 31.8267 418.037 34.96 417.19 38.2C417.103 38.5333 417.22 38.64 417.54 38.52C419.553 37.8 421.43 36.8233 423.17 35.59C424.93 34.3433 426.09 33.6033 426.65 33.37C427.943 32.8433 429.31 32.5533 430.75 32.5C432.757 32.42 433.34 33.5867 432.5 36C431.953 37.5667 431.057 38.92 429.81 40.06C429.043 40.7667 427.453 41.8567 425.04 43.33C423.313 44.39 421.777 45.5367 420.43 46.77C416.843 50.0633 413.263 53.37 409.69 56.69C408.723 57.5833 407.033 58.32 404.62 58.9C402.213 59.48 400.463 59.9833 399.37 60.41C388.79 64.5033 378.697 69.5667 369.09 75.6C348.917 88.28 327.83 99.2 305.83 108.36C294.49 113.08 284.36 119.023 275.44 126.19C271.44 129.403 267.24 131.767 262.84 133.28C262.447 133.413 260.86 133.747 258.08 134.28C256.627 134.553 255.23 135.027 253.89 135.7C253.75 135.771 253.629 135.875 253.535 136.001C253.442 136.128 253.378 136.274 253.35 136.43C251.757 145.137 250.123 153.84 248.45 162.54C247.523 167.347 247.067 171.53 247.08 175.09C247.087 179.103 247.31 183.323 247.75 187.75C248.39 194.197 248.487 200.817 248.04 207.61C247.36 217.91 247.007 223.347 246.98 223.92C246.74 230.287 246.423 236.647 246.03 243C246.02 243.158 246.048 243.315 246.111 243.459C246.173 243.604 246.269 243.731 246.39 243.83C247.77 244.943 249.317 245.63 251.03 245.89C253.517 246.27 254.957 246.55 255.35 246.73C257.883 247.877 259.59 249.783 260.47 252.45C261.21 254.69 261.777 256.14 262.17 256.8C264.197 260.187 266.077 262.567 267.81 263.94C272.21 267.413 275.98 271.467 279.12 276.1C281.267 279.267 283.817 282.063 286.77 284.49C289.33 286.59 291.867 288.713 294.38 290.86C297.307 293.367 299.76 296.273 301.74 299.58C304.653 304.453 307.937 309.067 311.59 313.42C314.07 316.38 316.497 319.38 318.87 322.42C321.597 325.907 323.667 329.693 325.08 333.78C325.84 335.98 326.437 339.523 326.87 344.41C327.117 347.21 327.45 350 327.87 352.78C328.23 355.16 328.92 357.877 329.94 360.93C332.227 367.77 334.17 374.71 335.77 381.75C337.303 388.497 338.11 395.33 338.19 402.25C338.33 413.59 338.087 424.923 337.46 436.25ZM147.93 463.61C152.67 463.83 156.847 465.567 160.46 468.82C160.52 468.874 160.591 468.914 160.667 468.939C160.744 468.963 160.824 468.972 160.904 468.963C160.983 468.955 161.059 468.93 161.128 468.889C161.196 468.849 161.255 468.795 161.3 468.73C162.587 466.917 163.813 465.337 164.98 463.99C168.953 459.41 170.207 454.46 168.74 449.14C168.433 448.013 167.94 446.973 167.26 446.02C165.687 443.813 164.65 443.587 164.15 445.34C163.863 446.353 163.597 447.037 163.35 447.39C161.55 449.983 159.31 450.43 156.63 448.73C155.743 448.17 155.05 447.873 154.55 447.84C153.583 447.767 152.823 448.077 152.27 448.77C151.982 449.129 151.566 449.362 151.11 449.42C150.654 449.478 150.195 449.356 149.83 449.08C149.03 448.48 148.257 448.08 147.51 447.88C147.043 447.76 146.227 447.863 145.06 448.19C143.407 448.65 141.887 448.423 140.5 447.51C140.233 447.338 139.928 447.235 139.612 447.21C139.295 447.186 138.979 447.241 138.69 447.37C137.51 447.903 136.49 448.167 135.63 448.16C134.857 448.153 134.01 447.69 133.09 446.77C131.79 445.47 130.663 444.103 129.71 442.67C129.54 442.407 129.289 442.205 128.996 442.096C128.702 441.986 128.381 441.973 128.08 442.06C125.133 442.893 122.813 444.567 121.12 447.08C118.293 451.28 118.363 455.397 121.33 459.43C124.003 463.057 126.67 466.457 129.33 469.63C129.45 469.774 129.598 469.892 129.764 469.977C129.931 470.062 130.113 470.113 130.3 470.126C130.487 470.139 130.674 470.114 130.851 470.053C131.028 469.992 131.191 469.896 131.33 469.77C136.15 465.377 141.683 463.323 147.93 463.61Z" fill="#794F63"/>
</svg>
