<svg width="470" height="470" viewBox="0 0 470 470" fill="none" xmlns="http://www.w3.org/2000/svg">
<g clip-path="url(#clip0_7_25)">
<mask id="mask0_7_25" style="mask-type:luminance" maskUnits="userSpaceOnUse" x="0" y="0" width="470" height="470">
<path d="M470 0H0V470H470V0Z" fill="white"/>
</mask>
<g mask="url(#mask0_7_25)">
<path d="M280.32 136.54C279.867 138.053 280.073 139.477 280.94 140.81C295.587 163.337 310.227 185.87 324.86 208.41C326.227 210.517 327.687 212.553 329.24 214.52C331.9 217.907 335.01 218.35 338.57 215.85C340.843 214.25 343.043 212.563 345.17 210.79C348.477 208.037 350.51 206.163 351.27 205.17C354.143 201.443 354.033 197.157 350.94 192.31C346.533 185.417 332.967 164.397 310.24 129.25C309.313 127.81 307.92 126.123 306.06 124.19C303.013 121.003 299.627 120.567 295.9 122.88C291.1 125.867 286.677 129.323 282.63 133.25C281.39 134.45 280.62 135.547 280.32 136.54Z" stroke="#D8B2A9" stroke-width="2"/>
<path d="M310.19 259.06C313.357 261.247 316.69 261.04 320.19 258.44C325.65 254.38 329.98 250.863 333.18 247.89C335.087 246.117 336.217 244.4 336.57 242.74C337.037 240.573 336.687 238.397 335.52 236.21C333.733 232.837 331.803 229.543 329.73 226.33C309.157 194.443 288.427 162.663 267.54 130.99C266.627 129.597 265.837 128.52 265.17 127.76C264.097 126.54 263.103 125.64 262.19 125.06C260.343 123.9 258.33 123.953 256.15 125.22C251.363 128.007 246.89 131.22 242.73 134.86C239.943 137.307 238.303 138.91 237.81 139.67C236.43 141.783 236.243 144.267 237.25 147.12C237.943 149.1 238.63 150.623 239.31 151.69C261.323 185.957 283.523 220.103 305.91 254.13C307.497 256.543 308.923 258.187 310.19 259.06Z" stroke="#D8B2A9" stroke-width="2"/>
<path d="M329.58 143.04C327.973 145.073 327.697 147.143 328.75 149.25C329.903 151.557 332.513 155.687 336.58 161.64C337.713 163.293 338.67 164.377 339.45 164.89C340.877 165.83 342.413 166.003 344.06 165.41C345.107 165.037 346.233 164.213 347.44 162.94C348.413 161.907 349.333 160.82 350.2 159.68C350.913 158.733 351.077 157.697 350.69 156.57C348.397 149.937 344.66 144.03 339.48 138.85C339.262 138.631 338.992 138.47 338.695 138.381C338.399 138.292 338.084 138.278 337.78 138.34C334.213 139.067 331.48 140.633 329.58 143.04Z" stroke="#D8B2A9" stroke-width="2"/>
<path d="M207.01 267.85C208.457 268.783 210.05 268.943 211.79 268.33C212.67 268.023 213.94 267.217 215.6 265.91C232.187 252.87 248.743 239.787 265.27 226.66C267.87 224.593 269.297 223.42 269.55 223.14C270.957 221.6 271.653 219.813 271.64 217.78C271.633 216.013 270.717 213.703 268.89 210.85C267.397 208.51 265.89 206.18 264.37 203.86C263.337 202.287 262.403 201.227 261.57 200.68C260.223 199.8 258.77 199.48 257.21 199.72C255.923 199.92 254.223 200.85 252.11 202.51C234.763 216.077 217.483 229.723 200.27 243.45C198.797 244.63 197.803 245.677 197.29 246.59C196.517 247.97 196.19 249.427 196.31 250.96C196.417 252.36 197.197 254.237 198.65 256.59C200.277 259.243 202.22 262.183 204.48 265.41C205.167 266.383 206.01 267.197 207.01 267.85Z" stroke="#D8B2A9" stroke-width="2"/>
<path d="M160.29 212.6C158.87 211.56 157.407 211.11 155.9 211.25C154.94 211.337 153.623 211.9 151.95 212.94C148.743 214.94 145.667 217.123 142.72 219.49C138.593 222.823 136.083 225.287 135.19 226.88C133.277 230.327 133.733 234.263 136.56 238.69C157.82 271.943 179.28 305.067 200.94 338.06C202.973 341.167 204.98 343.66 206.96 345.54C208.2 346.72 209.397 347.433 210.55 347.68C212.057 347.993 213.52 347.747 214.94 346.94C220.627 343.687 225.88 339.573 230.7 334.6C232.553 332.68 233.617 330.827 233.89 329.04C234.277 326.487 233.7 324 232.16 321.58C215.607 295.6 198.957 269.687 182.21 243.84C175.93 234.153 169.717 224.867 163.57 215.98C162.663 214.673 161.57 213.547 160.29 212.6Z" stroke="#D8B2A9" stroke-width="2"/>
<path d="M165.19 348.56C167.657 350.333 170.157 350.46 172.69 348.94C177.65 345.967 182.533 342.183 187.34 337.59C189.78 335.263 190.167 332.817 188.5 330.25C173.333 306.837 158.127 283.453 142.88 260.1C141.807 258.453 140.583 256.933 139.21 255.54C137.983 254.287 136.607 253.713 135.08 253.82C134.113 253.887 132.85 254.417 131.29 255.41C127.037 258.103 123.09 261.2 119.45 264.7C116.117 267.907 115.357 271.697 117.17 276.07C117.957 277.957 118.91 279.753 120.03 281.46C132.343 300.247 144.54 319.107 156.62 338.04C156.653 338.087 157.18 338.943 158.2 340.61C160.347 344.11 162.677 346.76 165.19 348.56Z" stroke="#D8B2A9" stroke-width="2"/>
<path d="M133.43 335.54C136.223 335.38 138.477 334.43 140.19 332.69C142.877 329.95 143.107 326.837 140.88 323.35C138.813 320.11 136.737 316.873 134.65 313.64C133.177 311.367 131.897 309.94 130.81 309.36C128.703 308.26 126.537 308.747 124.31 310.82C122.65 312.36 121.48 313.933 120.8 315.54C120.607 315.992 120.507 316.479 120.507 316.973C120.507 317.466 120.607 317.955 120.8 318.41C123.667 325.163 127.587 330.77 132.56 335.23C132.68 335.338 132.819 335.42 132.968 335.473C133.118 335.527 133.275 335.549 133.43 335.54Z" stroke="#D8B2A9" stroke-width="2"/>
<path d="M465.56 234.86C465.56 265.064 459.611 294.972 448.052 322.877C436.494 350.782 419.552 376.137 398.195 397.495C376.837 418.852 351.482 435.794 323.577 447.352C295.672 458.911 265.764 464.86 235.56 464.86C174.56 464.86 116.059 440.628 72.9254 397.495C29.7921 354.361 5.56 295.86 5.56 234.86C5.56 173.86 29.7921 115.359 72.9254 72.2255C116.059 29.0922 174.56 4.86011 235.56 4.86011C296.56 4.86011 355.061 29.0922 398.195 72.2255C441.328 115.359 465.56 173.86 465.56 234.86ZM280.32 136.54C279.867 138.053 280.073 139.477 280.94 140.81C295.587 163.337 310.227 185.87 324.86 208.41C326.227 210.517 327.687 212.553 329.24 214.52C331.9 217.907 335.01 218.35 338.57 215.85C340.843 214.25 343.043 212.563 345.17 210.79C348.477 208.037 350.51 206.163 351.27 205.17C354.143 201.443 354.033 197.157 350.94 192.31C346.533 185.417 332.967 164.397 310.24 129.25C309.313 127.81 307.92 126.123 306.06 124.19C303.013 121.003 299.627 120.567 295.9 122.88C291.1 125.867 286.677 129.323 282.63 133.25C281.39 134.45 280.62 135.547 280.32 136.54ZM310.19 259.06C313.357 261.247 316.69 261.04 320.19 258.44C325.65 254.38 329.98 250.863 333.18 247.89C335.087 246.117 336.217 244.4 336.57 242.74C337.037 240.573 336.687 238.397 335.52 236.21C333.733 232.837 331.803 229.543 329.73 226.33C309.157 194.443 288.427 162.663 267.54 130.99C266.627 129.597 265.837 128.52 265.17 127.76C264.097 126.54 263.103 125.64 262.19 125.06C260.343 123.9 258.33 123.953 256.15 125.22C251.363 128.007 246.89 131.22 242.73 134.86C239.943 137.307 238.303 138.91 237.81 139.67C236.43 141.783 236.243 144.267 237.25 147.12C237.943 149.1 238.63 150.623 239.31 151.69C261.323 185.957 283.523 220.103 305.91 254.13C307.497 256.543 308.923 258.187 310.19 259.06ZM329.58 143.04C327.973 145.073 327.697 147.143 328.75 149.25C329.903 151.557 332.513 155.687 336.58 161.64C337.713 163.293 338.67 164.377 339.45 164.89C340.877 165.83 342.413 166.003 344.06 165.41C345.107 165.037 346.233 164.213 347.44 162.94C348.413 161.907 349.333 160.82 350.2 159.68C350.913 158.733 351.077 157.697 350.69 156.57C348.397 149.937 344.66 144.03 339.48 138.85C339.262 138.631 338.992 138.47 338.695 138.381C338.399 138.292 338.084 138.278 337.78 138.34C334.213 139.067 331.48 140.633 329.58 143.04ZM207.01 267.85C208.457 268.783 210.05 268.943 211.79 268.33C212.67 268.023 213.94 267.217 215.6 265.91C232.187 252.87 248.743 239.787 265.27 226.66C267.87 224.593 269.297 223.42 269.55 223.14C270.957 221.6 271.653 219.813 271.64 217.78C271.633 216.013 270.717 213.703 268.89 210.85C267.397 208.51 265.89 206.18 264.37 203.86C263.337 202.287 262.403 201.227 261.57 200.68C260.223 199.8 258.77 199.48 257.21 199.72C255.923 199.92 254.223 200.85 252.11 202.51C234.763 216.077 217.483 229.723 200.27 243.45C198.797 244.63 197.803 245.677 197.29 246.59C196.517 247.97 196.19 249.427 196.31 250.96C196.417 252.36 197.197 254.237 198.65 256.59C200.277 259.243 202.22 262.183 204.48 265.41C205.167 266.383 206.01 267.197 207.01 267.85ZM160.29 212.6C158.87 211.56 157.407 211.11 155.9 211.25C154.94 211.337 153.623 211.9 151.95 212.94C148.743 214.94 145.667 217.123 142.72 219.49C138.593 222.823 136.083 225.287 135.19 226.88C133.277 230.327 133.733 234.263 136.56 238.69C157.82 271.943 179.28 305.067 200.94 338.06C202.973 341.167 204.98 343.66 206.96 345.54C208.2 346.72 209.397 347.433 210.55 347.68C212.057 347.993 213.52 347.747 214.94 346.94C220.627 343.687 225.88 339.573 230.7 334.6C232.553 332.68 233.617 330.827 233.89 329.04C234.277 326.487 233.7 324 232.16 321.58C215.607 295.6 198.957 269.687 182.21 243.84C175.93 234.153 169.717 224.867 163.57 215.98C162.663 214.673 161.57 213.547 160.29 212.6ZM165.19 348.56C167.657 350.333 170.157 350.46 172.69 348.94C177.65 345.967 182.533 342.183 187.34 337.59C189.78 335.263 190.167 332.817 188.5 330.25C173.333 306.837 158.127 283.453 142.88 260.1C141.807 258.453 140.583 256.933 139.21 255.54C137.983 254.287 136.607 253.713 135.08 253.82C134.113 253.887 132.85 254.417 131.29 255.41C127.037 258.103 123.09 261.2 119.45 264.7C116.117 267.907 115.357 271.697 117.17 276.07C117.957 277.957 118.91 279.753 120.03 281.46C132.343 300.247 144.54 319.107 156.62 338.04C156.653 338.087 157.18 338.943 158.2 340.61C160.347 344.11 162.677 346.76 165.19 348.56ZM133.43 335.54C136.223 335.38 138.477 334.43 140.19 332.69C142.877 329.95 143.107 326.837 140.88 323.35C138.813 320.11 136.737 316.873 134.65 313.64C133.177 311.367 131.897 309.94 130.81 309.36C128.703 308.26 126.537 308.747 124.31 310.82C122.65 312.36 121.48 313.933 120.8 315.54C120.607 315.992 120.507 316.479 120.507 316.973C120.507 317.466 120.607 317.955 120.8 318.41C123.667 325.163 127.587 330.77 132.56 335.23C132.68 335.337 132.819 335.42 132.968 335.473C133.118 335.527 133.275 335.549 133.43 335.54Z" fill="#B96C5B"/>
<path d="M282.63 133.25C286.677 129.323 291.1 125.867 295.9 122.88C299.627 120.567 303.013 121.003 306.06 124.19C307.92 126.123 309.313 127.81 310.24 129.25C332.967 164.397 346.533 185.417 350.94 192.31C354.033 197.157 354.143 201.443 351.27 205.17C350.51 206.163 348.477 208.037 345.17 210.79C343.043 212.563 340.843 214.25 338.57 215.85C335.01 218.35 331.9 217.907 329.24 214.52C327.687 212.553 326.227 210.517 324.86 208.41C310.227 185.87 295.587 163.337 280.94 140.81C280.073 139.477 279.867 138.053 280.32 136.54C280.62 135.547 281.39 134.45 282.63 133.25Z" fill="#F7F7F7"/>
<path d="M310.19 259.06C308.923 258.187 307.497 256.543 305.91 254.13C283.523 220.103 261.323 185.957 239.31 151.69C238.63 150.623 237.943 149.1 237.25 147.12C236.243 144.267 236.43 141.783 237.81 139.67C238.303 138.91 239.943 137.307 242.73 134.86C246.89 131.22 251.363 128.007 256.15 125.22C258.33 123.953 260.343 123.9 262.19 125.06C263.103 125.64 264.097 126.54 265.17 127.76C265.837 128.52 266.627 129.597 267.54 130.99C288.427 162.663 309.157 194.443 329.73 226.33C331.803 229.543 333.733 232.837 335.52 236.21C336.687 238.397 337.037 240.573 336.57 242.74C336.217 244.4 335.087 246.117 333.18 247.89C329.98 250.863 325.65 254.38 320.19 258.44C316.69 261.04 313.357 261.247 310.19 259.06Z" fill="#F7F7F7"/>
<path d="M329.58 143.04C331.48 140.633 334.213 139.067 337.78 138.34C338.084 138.278 338.399 138.292 338.695 138.381C338.992 138.47 339.262 138.631 339.48 138.85C344.66 144.03 348.397 149.937 350.69 156.57C351.077 157.697 350.913 158.733 350.2 159.68C349.333 160.82 348.413 161.907 347.44 162.94C346.233 164.213 345.107 165.037 344.06 165.41C342.413 166.003 340.877 165.83 339.45 164.89C338.67 164.377 337.713 163.293 336.58 161.64C332.513 155.687 329.903 151.557 328.75 149.25C327.697 147.143 327.973 145.073 329.58 143.04Z" fill="#F7F7F7"/>
<path d="M207.01 267.85C206.01 267.197 205.167 266.383 204.48 265.41C202.22 262.183 200.277 259.243 198.65 256.59C197.197 254.237 196.417 252.36 196.31 250.96C196.19 249.427 196.517 247.97 197.29 246.59C197.803 245.677 198.797 244.63 200.27 243.45C217.483 229.723 234.763 216.077 252.11 202.51C254.223 200.85 255.923 199.92 257.21 199.72C258.77 199.48 260.223 199.8 261.57 200.68C262.403 201.227 263.337 202.287 264.37 203.86C265.89 206.18 267.397 208.51 268.89 210.85C270.717 213.703 271.633 216.013 271.64 217.78C271.653 219.813 270.957 221.6 269.55 223.14C269.297 223.42 267.87 224.593 265.27 226.66C248.743 239.787 232.187 252.87 215.6 265.91C213.94 267.217 212.67 268.023 211.79 268.33C210.05 268.943 208.457 268.783 207.01 267.85Z" fill="#F7F7F7"/>
<path d="M160.29 212.6C161.57 213.547 162.663 214.673 163.57 215.98C169.717 224.867 175.93 234.153 182.21 243.84C198.957 269.687 215.607 295.6 232.16 321.58C233.7 324 234.277 326.487 233.89 329.04C233.617 330.827 232.553 332.68 230.7 334.6C225.88 339.573 220.627 343.687 214.94 346.94C213.52 347.747 212.057 347.993 210.55 347.68C209.397 347.433 208.2 346.72 206.96 345.54C204.98 343.66 202.973 341.167 200.94 338.06C179.28 305.067 157.82 271.943 136.56 238.69C133.733 234.263 133.277 230.327 135.19 226.88C136.083 225.287 138.593 222.823 142.72 219.49C145.667 217.123 148.743 214.94 151.95 212.94C153.623 211.9 154.94 211.337 155.9 211.25C157.407 211.11 158.87 211.56 160.29 212.6Z" fill="#F7F7F7"/>
<path d="M165.19 348.56C162.677 346.76 160.347 344.11 158.2 340.61C157.18 338.943 156.653 338.087 156.62 338.04C144.54 319.107 132.343 300.247 120.03 281.46C118.91 279.753 117.957 277.957 117.17 276.07C115.357 271.697 116.117 267.907 119.45 264.7C123.09 261.2 127.037 258.103 131.29 255.41C132.85 254.417 134.113 253.887 135.08 253.82C136.607 253.713 137.983 254.287 139.21 255.54C140.583 256.933 141.807 258.453 142.88 260.1C158.127 283.453 173.333 306.837 188.5 330.25C190.167 332.817 189.78 335.263 187.34 337.59C182.533 342.183 177.65 345.967 172.69 348.94C170.157 350.46 167.657 350.333 165.19 348.56Z" fill="#F7F7F7"/>
<path d="M132.56 335.23C127.587 330.77 123.667 325.163 120.8 318.41C120.607 317.955 120.507 317.466 120.507 316.973C120.507 316.479 120.607 315.992 120.8 315.54C121.48 313.933 122.65 312.36 124.31 310.82C126.537 308.747 128.703 308.26 130.81 309.36C131.897 309.94 133.177 311.367 134.65 313.64C136.737 316.873 138.813 320.11 140.88 323.35C143.107 326.837 142.877 329.95 140.19 332.69C138.477 334.43 136.223 335.38 133.43 335.54C133.275 335.549 133.118 335.527 132.968 335.473C132.819 335.42 132.68 335.338 132.56 335.23Z" fill="#F7F7F7"/>
</g>
</g>
<defs>
<clipPath id="clip0_7_25">
<rect width="470" height="470" fill="white"/>
</clipPath>
</defs>
</svg>
