<svg width="400" height="567" viewBox="0 0 400 567" fill="none" xmlns="http://www.w3.org/2000/svg">
<path d="M390.8 77.7C394.033 77.8267 395.683 79.5133 395.75 82.76C395.753 82.9063 395.795 83.0503 395.872 83.1781C395.949 83.306 396.058 83.4134 396.19 83.49C399.203 85.2433 400.27 87.72 399.39 90.92C398.79 93.0933 398.45 94.5733 398.37 95.36C397.977 99.2333 397.193 103.017 396.02 106.71C395.46 108.463 394.357 110.843 392.71 113.85C390.95 117.057 389.943 119.503 389.69 121.19C388.963 125.95 388.09 130.683 387.07 135.39C386.67 137.21 386.32 139.643 386.02 142.69C385.86 144.337 385.617 145.97 385.29 147.59C384.93 149.417 384.66 151.037 384.48 152.45C383.673 158.763 381.993 166.343 379.44 175.19C377.333 182.497 375.373 188.453 373.56 193.06C372.3 196.28 371.29 199.087 370.53 201.48C370.003 203.167 369.473 204.257 368.94 204.75C367.947 205.69 366.617 205.947 364.95 205.52C361.937 204.753 359.053 203.653 356.3 202.22C346 196.867 336.397 190.463 327.49 183.01C324.583 180.577 321.43 178.003 318.03 175.29C317.85 175.144 317.622 175.071 317.389 175.084C317.157 175.097 316.936 175.195 316.77 175.36L310.19 181.94C309.403 182.727 308.907 183.667 308.7 184.76C308.06 188.207 307.173 191.62 306.04 195C305.22 197.427 303.75 200.61 301.63 204.55C298.983 209.457 296.533 214.457 294.28 219.55C293.327 221.717 292.333 224.443 291.3 227.73C290.707 229.617 290.083 231.497 289.43 233.37C289.41 233.437 288.827 235.203 287.68 238.67C286.287 242.87 284.497 246.897 282.31 250.75C282.244 250.868 282.226 251.007 282.257 251.14C282.288 251.273 282.368 251.39 282.48 251.47C283.693 252.303 285.097 253.417 286.69 254.81C298.65 265.33 309.883 275.863 320.39 286.41C323.723 289.763 327.177 293.747 330.75 298.36C335.99 305.133 340.803 311.033 345.19 316.06C352.27 324.187 358.5 331.7 363.88 338.6C367.493 343.227 369.613 346.77 370.24 349.23C371.34 353.503 370.613 357.863 368.06 362.31C364.927 367.783 361.65 372.743 358.23 377.19C351.91 385.41 346.063 395.577 340.69 407.69C336.437 417.263 330.893 427.47 324.06 438.31C315.593 451.743 310.677 460.077 309.31 463.31C307.357 467.943 305.44 472.59 303.56 477.25C302.66 479.47 301.957 481.69 301.45 483.91C300.923 486.183 300.427 488.46 299.96 490.74C299.473 493.08 300.027 494.977 301.62 496.43C301.82 496.61 301.993 496.877 302.14 497.23C302.407 497.85 303 498.637 303.92 499.59C304.113 499.79 304.265 500.026 304.366 500.285C304.467 500.544 304.516 500.821 304.51 501.1C304.483 502.12 304.483 503.083 304.51 503.99C304.523 504.623 304.723 505.553 305.11 506.78C305.61 508.393 305.607 510.037 305.1 511.71C305.008 511.997 304.817 512.272 304.55 512.5C303.083 513.753 302.15 515.253 301.75 517C300.397 522.88 299.767 528.99 299.86 535.33C299.893 538.177 300.367 540.723 301.28 542.97C302.267 545.417 303.51 547.73 305.01 549.91C307.743 553.883 309.19 556.093 309.35 556.54C310.623 560.113 309.443 563.273 305.81 566.02C304.683 566.873 303.503 566.953 302.27 566.26C298.277 564.02 294.733 561.223 291.64 557.87C283.58 549.117 276.513 539.263 270.44 528.31C269.247 526.163 268.603 523.977 268.51 521.75C268.504 521.605 268.453 521.466 268.365 521.353C268.277 521.239 268.156 521.158 268.02 521.12C264.36 520.04 261.667 518.187 259.94 515.56C255.173 508.34 250.49 500.84 245.89 493.06C245.003 491.56 245.307 490.363 246.8 489.47C252.173 486.243 258.053 483.15 264.44 480.19C266.867 479.057 268.863 478.247 270.43 477.76C270.937 477.6 272.33 477.48 274.61 477.4C277.083 477.313 278.903 476.203 280.07 474.07C280.79 472.75 281.483 471.71 282.15 470.95C284.09 468.723 285.247 466.127 285.62 463.16C285.893 461.007 286.033 459.907 286.04 459.86C287.113 453.96 287.913 450.487 288.44 449.44C289.807 446.72 290.893 443.887 291.7 440.94C293.24 435.34 294.81 429.747 296.41 424.16C296.417 424.127 297.21 420.993 298.79 414.76C299.79 410.82 301.1 406.99 302.72 403.27C303.68 401.063 305.12 397.843 307.04 393.61C308.02 391.463 309.083 389.36 310.23 387.3C312.063 383.993 313.19 381.93 313.61 381.11C315.27 377.89 316.937 374.67 318.61 371.45C320.27 368.257 321.06 365.78 320.98 364.02C320.853 361.187 319.507 358.7 316.94 356.56C309.76 350.587 302.4 345.93 294.86 342.59C283.913 337.743 273.13 332.563 262.51 327.05C258.837 325.137 255.44 322.997 252.32 320.63C252.192 320.533 252.045 320.464 251.889 320.426C251.733 320.388 251.571 320.383 251.414 320.41C251.256 320.437 251.106 320.497 250.973 320.584C250.84 320.672 250.727 320.786 250.64 320.92C243.207 332.167 234.43 341.89 224.31 350.09C218.517 354.79 212.687 359.453 206.82 364.08C196.873 371.92 187.507 380.387 178.72 389.48C178.68 389.52 176.507 391.993 172.2 396.9C168.08 401.6 163.577 405.28 158.69 407.94C157.543 408.56 153.953 410.127 147.92 412.64C135.087 417.987 123.187 424.933 112.22 433.48C98.9666 443.8 86.3066 454.803 74.24 466.49C65.1733 475.27 55.1966 486.21 44.31 499.31C42.63 501.337 42.6233 503.067 44.29 504.5C44.5751 504.746 44.7687 505.025 44.84 505.29C45.2733 506.837 44.93 508.593 43.81 510.56C40.4033 516.567 35.84 521.493 30.12 525.34C26.1333 528.02 23.76 529.74 23 530.5C21.4133 532.093 20.28 534.667 19.6 538.22C18.3533 544.787 17.1233 551.407 15.91 558.08C15.8518 558.405 15.6811 558.7 15.4274 558.914C15.1736 559.127 14.8527 559.246 14.52 559.25C7.39995 559.283 3.50662 555.873 2.83995 549.02C2.13995 541.847 1.46995 534.67 0.829953 527.49C0.45662 523.363 0.659954 520.43 1.43995 518.69C2.21329 516.943 2.96329 515.187 3.68995 513.42C4.46995 511.507 4.89662 509.663 4.96995 507.89C5.07662 505.443 4.96662 503.01 4.63995 500.59C4.00662 495.857 3.68662 493.447 3.67995 493.36C3.42662 489.607 3.28329 484.737 3.24995 478.75C3.23662 476.79 3.32329 475.107 3.50995 473.7C3.76995 471.68 4.42329 470.187 5.46995 469.22C6.80995 467.987 8.65329 467.497 11 467.75C18.4866 468.55 25.9866 469.22 33.5 469.76C34.8933 469.86 36.2766 469.843 37.65 469.71C39.0633 469.577 40.27 469.04 41.27 468.1C42.5633 466.873 44.16 465.11 46.06 462.81C53.76 453.51 61.3833 444.147 68.93 434.72C68.97 434.673 70.41 432.923 73.25 429.47C77.2566 424.59 81.11 419.203 84.81 413.31C86.07 411.303 87.57 409.257 89.31 407.17C90.7633 405.423 92.56 403.643 94.7 401.83C102.127 395.523 109.903 389.667 118.03 384.26C122.377 381.367 126.667 378.39 130.9 375.33C135.507 371.997 139.46 368.617 142.76 365.19C150.96 356.683 157.603 347.767 162.69 338.44C164.897 334.38 167.13 330.867 169.39 327.9C169.943 327.173 172.793 324.17 177.94 318.89C181.34 315.397 184.423 311.64 187.19 307.62C188.83 305.24 189.933 302.773 190.5 300.22C191.367 296.347 191.783 292.273 191.75 288C191.71 283.22 191.967 277.637 192.52 271.25C193.547 259.423 197.357 248.773 203.95 239.3C205.717 236.76 208.33 233.787 211.79 230.38C214.617 227.6 217.457 224.827 220.31 222.06C221.983 220.447 223.473 218.303 224.78 215.63C225.467 214.23 226.507 211.857 227.9 208.51C229.767 204.03 231.28 199.173 232.44 193.94C233.68 188.333 233.837 182.87 232.91 177.55C232.203 173.51 231.847 171.463 231.84 171.41C230.947 165.077 229.853 159.17 228.56 153.69C226.733 145.923 225.523 138.32 224.93 130.88C224.79 129.067 224.55 127.337 224.21 125.69C223.857 123.977 223.523 122.257 223.21 120.53C222.73 117.91 221.977 116.107 220.95 115.12C219.403 113.64 217.337 113.003 214.75 113.21C212.137 113.417 209.593 113.913 207.12 114.7C203.32 115.907 201.38 116.52 201.3 116.54C190.067 119.547 178.86 122.647 167.68 125.84C167.647 125.853 166.68 126.037 164.78 126.39C163.473 126.63 162.353 127.197 161.42 128.09C160.653 128.81 160.227 129.89 160.14 131.33C159.707 138.717 159.263 146.103 158.81 153.49C158.59 157.063 158.743 160.383 159.27 163.45C160.37 169.797 162.01 177.167 164.19 185.56C164.623 187.24 165.1 188.667 165.62 189.84C165.873 190.42 166.533 191.763 167.6 193.87C168.787 196.21 170.347 198.26 172.28 200.02C174.667 202.18 175.873 203.277 175.9 203.31C179.047 206.663 181.68 210.393 183.8 214.5C185.633 218.047 187.507 221.56 189.42 225.04C189.5 225.182 189.536 225.344 189.523 225.506C189.511 225.668 189.45 225.822 189.35 225.95C187.93 227.73 187.223 229.663 187.23 231.75C187.233 231.899 187.192 232.045 187.111 232.169C187.031 232.292 186.915 232.387 186.78 232.44C184.373 233.38 181.363 234.15 177.75 234.75C174.637 235.263 171.85 234.943 169.39 233.79C169.253 233.723 169.101 233.692 168.948 233.701C168.796 233.71 168.649 233.758 168.52 233.84C165.247 235.953 162.53 235.29 160.37 231.85C157.79 227.737 155.793 223.383 154.38 218.79C153.78 216.83 153.337 213.927 153.05 210.08C152.617 204.313 151.517 198.12 149.75 191.5C147.83 184.307 146.087 178.733 144.52 174.78C142.76 170.347 141.177 165.857 139.77 161.31C137.89 155.223 136.72 151.317 136.26 149.59C135.213 145.63 134.49 141.597 134.09 137.49C133.837 134.983 133.557 130.487 133.25 124C133.163 122.113 133.52 120.45 134.32 119.01C134.92 117.937 136.113 116.85 137.9 115.75C140.907 113.903 143.99 112.203 147.15 110.65C152.663 107.943 155.813 106.383 156.6 105.97C166.78 100.697 179.913 94.4567 196 87.25C203.793 83.7567 210.737 81.0133 216.83 79.02C222.243 77.2533 226.227 76.1967 228.78 75.85C232.793 75.3167 236.97 75.5133 241.31 76.44C244.05 77.0267 247.247 77.0333 250.9 76.46C255.033 75.82 256.17 73.48 254.31 69.44C252.69 65.92 251.023 62.4133 249.31 58.92C249.108 58.5114 249.016 58.0579 249.043 57.6039C249.069 57.1498 249.213 56.7109 249.46 56.33C250.407 54.8833 251.48 53.49 252.68 52.15C254.027 50.6433 254.983 49.2067 255.55 47.84C256.897 44.5733 257.547 42.21 257.5 40.75C257.407 37.7433 257.49 34.7367 257.75 31.73C257.771 31.4783 257.859 31.2365 258.005 31.0292C258.151 30.822 258.349 30.6566 258.58 30.55C260.34 29.7367 261.187 28.4033 261.12 26.55C261.073 25.2033 261.053 24.5033 261.06 24.45C261.28 21.5833 261.99 19.1633 263.19 17.19C264.95 14.2833 265.993 12.4933 266.32 11.82C269.693 4.83333 274.97 1.17 282.15 0.829999C283.117 0.783333 286.013 0.883333 290.84 1.13C293.74 1.27667 296.63 1.54667 299.51 1.94C302.477 2.34667 305.297 3.15333 307.97 4.36C310.71 5.6 313.27 6.99 315.65 8.53C319.503 11.0233 322.47 14.3167 324.55 18.41C325.41 20.0967 326.287 22.7733 327.18 26.44C327.853 29.18 328.54 31.9133 329.24 34.64C329.827 36.9133 329.56 39.0133 328.44 40.94C327.613 42.36 326.487 43.9 325.06 45.56C323.547 47.3333 323.463 49.5533 324.81 52.22C325.797 54.1867 326.753 56.17 327.68 58.17C328.347 59.6033 328.553 60.75 328.3 61.61C327.867 63.09 326.517 63.63 324.25 63.23C320.883 62.6367 319.06 63.8967 318.78 67.01C318.747 67.3434 318.6 67.6383 318.37 67.83C317.043 68.9633 315.78 69.5233 314.58 69.51C312.72 69.49 312.26 70.2867 313.2 71.9C314.273 73.7467 314.613 75.51 314.22 77.19C313.953 78.3567 313.29 79.7467 312.23 81.36C311.37 82.6667 310.27 83.7767 308.93 84.69C307.81 85.4567 306.677 85.62 305.53 85.18L294.21 80.82C292.797 80.28 291.503 80.3567 290.33 81.05C287.677 82.63 286.363 84.9 286.39 87.86C286.41 89.66 286.42 90.5867 286.42 90.64C286.293 92.8667 286.183 95.0933 286.09 97.32C286.003 99.3 286.173 100.723 286.6 101.59C287.08 102.583 287.82 103.357 288.82 103.91C289.46 104.263 290.453 104.49 291.8 104.59C296.253 104.923 300.543 105.873 304.67 107.44C307.523 108.527 310.143 110.137 312.53 112.27C315.05 114.523 317.143 116.83 318.81 119.19C320.817 122.023 323.407 126.277 326.58 131.95C330.02 138.097 333.883 143.963 338.17 149.55C343.703 156.75 349.437 163.91 355.37 171.03C355.443 171.119 355.536 171.19 355.643 171.234C355.749 171.279 355.865 171.296 355.979 171.286C356.094 171.275 356.204 171.236 356.301 171.172C356.397 171.108 356.475 171.022 356.53 170.92C359.25 165.873 361.51 160.547 363.31 154.94C365.383 148.46 366.43 145.197 366.45 145.15C368.897 137.883 371.163 130 373.25 121.5C374.017 118.387 374.04 115.47 373.32 112.75C371.273 104.957 370.833 97.3733 372 90C372.847 84.66 373.13 79.8467 372.85 75.56C372.824 75.2222 372.897 74.8938 373.06 74.62C374.28 72.5067 375.453 72.2033 376.58 73.71C377.42 74.8367 378.53 75.2667 379.91 75C381.817 74.64 383.157 74.8433 383.93 75.61C384.04 75.7172 384.171 75.7933 384.308 75.8288C384.445 75.8644 384.581 75.8578 384.7 75.81C386.927 74.95 388.707 75.44 390.04 77.28C390.131 77.405 390.246 77.5077 390.378 77.5805C390.51 77.6532 390.654 77.6941 390.8 77.7Z" fill="#4B3262"/>
</svg>
