<svg width="599" height="522" viewBox="0 0 599 522" fill="none" xmlns="http://www.w3.org/2000/svg">
<path d="M513.69 187.06C504.337 178.213 493.293 170.843 480.56 164.95C458.453 154.723 443.87 147.887 436.81 144.44C427.13 139.707 416.773 133.837 405.74 126.83C405.684 126.794 405.622 126.77 405.557 126.758C405.492 126.746 405.425 126.747 405.361 126.761C405.296 126.775 405.236 126.802 405.183 126.839C405.129 126.877 405.084 126.925 405.05 126.98C397.963 138.187 389.683 148.43 380.21 157.71C370.223 167.477 359.673 176.593 348.56 185.06C342.947 189.34 334.013 196.547 321.76 206.68C315.713 211.68 310.673 216.04 306.64 219.76C295.653 229.9 285.2 240.577 275.28 251.79C267.28 260.83 257.643 267.483 246.37 271.75C244.597 272.417 243.69 272.76 243.65 272.78C222.943 280.907 203.58 291.5 185.56 304.56C180.833 307.993 169.727 316.97 152.24 331.49C121.62 356.93 93.8934 385.207 69.06 416.32C67.5734 418.173 67.8 419.79 69.74 421.17C71.6267 422.51 72.4467 424.32 72.2 426.6C72.0534 427.86 71.3834 429.553 70.19 431.68C65.03 440.86 58.13 448.537 49.49 454.71C46.41 456.903 43.29 459.033 40.13 461.1C36.7167 463.333 34.1934 466.32 32.56 470.06C31.76 471.9 31.0267 474.747 30.36 478.6C29.4134 484.053 28.9067 486.937 28.84 487.25C27.36 494.863 25.9134 502.407 24.5 509.88C24.4593 510.093 24.3427 510.285 24.1717 510.419C24.0008 510.553 23.7871 510.621 23.57 510.61C18.85 510.403 14.7634 509.347 11.31 507.44C7.89003 505.553 5.70337 502.323 4.75004 497.75C3.72337 492.837 2.52671 482.95 1.16004 468.09C0.366708 459.523 3.90313e-05 454.633 0.060039 453.42C0.293372 448.4 1.67337 443.583 4.20003 438.97C6.1867 435.343 7.33337 431.547 7.64004 427.58C7.78004 425.78 7.4367 421.913 6.61004 415.98C5.04337 404.673 4.34004 392.597 4.50004 379.75C4.53337 377.057 4.7067 374.65 5.02003 372.53C5.47337 369.503 6.34004 367.303 7.62004 365.93C8.90004 364.563 10.5634 363.8 12.61 363.64C12.85 363.627 14.61 363.713 17.89 363.9C38.9234 365.12 51.8767 365.987 56.75 366.5C59.8634 366.827 62.59 366.337 64.93 365.03C66.2834 364.283 68.1734 362.437 70.6 359.49C87.1534 339.403 103.64 319.26 120.06 299.06C123.327 295.047 126.203 291.297 128.69 287.81C128.703 287.79 130.94 284.31 135.4 277.37C140.753 269.043 146.933 261.9 153.94 255.94C158.127 252.373 164.237 247.83 172.27 242.31C179.457 237.377 186.563 232.33 193.59 227.17C195.997 225.403 200.267 222.517 206.4 218.51C215.92 212.297 224.573 204.997 232.36 196.61C242.327 185.87 251.107 174.233 258.7 161.7C262.82 154.9 266.94 148.103 271.06 141.31C273.247 137.717 276.913 133.717 282.06 129.31C285.147 126.67 288.583 123.15 292.37 118.75C297.223 113.103 300.31 109.28 301.63 107.28C305.837 100.907 308.21 93.5633 308.75 85.25C309.477 74.0233 309.89 66.94 309.99 64C310.163 58.72 310.453 53.45 310.86 48.19C311.353 41.8433 312.05 36.62 312.95 32.52C315.403 21.36 319.72 11.0833 325.9 1.69C326.139 1.32457 326.467 1.02445 326.852 0.8167C327.238 0.608953 327.67 0.500115 328.11 0.5H462.15C462.226 0.500325 462.3 0.519395 462.367 0.555443C462.433 0.59149 462.49 0.643345 462.531 0.706192C462.572 0.769039 462.596 0.840845 462.601 0.914936C462.606 0.989027 462.592 1.063 462.56 1.13L455.34 15.55C455.295 15.6373 455.281 15.7372 455.301 15.8322C455.321 15.9272 455.374 16.0114 455.45 16.07C466.31 24.77 476.79 33.9067 486.89 43.48C495.417 51.5733 499.74 55.6733 499.86 55.78C508.033 63.46 515.227 70.47 521.44 76.81C526.373 81.85 531.247 87.7267 536.06 94.44C539.82 99.68 544.8 105.827 551 112.88C558.873 121.827 563.267 126.837 564.18 127.91C573.04 138.31 580.583 147.32 586.81 154.94C589.977 158.807 593.027 163.26 595.96 168.3C599.487 174.353 599.853 180.773 597.06 187.56C595.253 191.947 593.53 195.477 591.89 198.15C587.797 204.79 583.333 211.17 578.5 217.29C571.3 226.417 565.05 236.153 559.75 246.5C557.73 250.447 553.957 258.487 548.43 270.62C541.883 284.967 534.323 298.76 525.75 312C523.843 314.947 519.72 321.497 513.38 331.65C506.633 342.47 500.613 353.68 495.32 365.28C489.66 377.68 485.823 390.107 483.81 402.56C483.45 404.78 484.16 406.78 485.94 408.56C486.307 408.927 487.397 410.253 489.21 412.54C490.69 414.407 491.31 416.563 491.07 419.01C490.823 421.543 491.133 423.957 492 426.25C492.793 428.363 493.177 429.797 493.15 430.55C493.083 432.183 492.513 433.647 491.44 434.94C489.747 436.973 488.42 439.08 487.46 441.26C486.74 442.893 486.173 445.28 485.76 448.42C484.267 459.687 483.513 467.047 483.5 470.5C483.48 477.74 485.23 484.073 488.75 489.5C491.883 494.333 495.097 499.113 498.39 503.84C499.223 505.033 499.813 506.317 500.16 507.69C500.487 508.957 500.47 510.33 500.11 511.81C499.083 515.99 496.86 519.033 493.44 520.94C492.067 521.7 490.497 521.87 488.73 521.45C487.623 521.19 486.25 520.54 484.61 519.5C480.083 516.627 475.693 513.063 471.44 508.81C465.633 503.01 460.66 497.303 456.52 491.69C449.613 482.317 443.297 472.563 437.57 462.43C435.237 458.297 433.757 453.883 433.13 449.19C433.11 449.043 433.046 448.905 432.948 448.796C432.85 448.687 432.721 448.612 432.58 448.58C429.007 447.773 426.083 446.393 423.81 444.44C420.87 441.913 418.073 438.527 415.42 434.28C409.247 424.42 402.85 413.923 396.23 402.79C395.603 401.73 395.68 400.723 396.46 399.77C397.147 398.93 398.15 398.173 399.47 397.5C401.023 396.707 401.82 396.297 401.86 396.27C412.74 390.117 423.037 384.943 432.75 380.75C435.59 379.523 438.693 378.893 442.06 378.86C444.46 378.84 446.027 378.69 446.76 378.41C448.307 377.823 449.58 376.78 450.58 375.28C451.313 374.187 452.037 373.083 452.75 371.97C453.323 371.083 454.11 370.033 455.11 368.82C457.537 365.88 459.167 362.94 460 360C460.56 358.02 461.4 353.88 462.52 347.58C463.233 343.567 464.237 339.637 465.53 335.79C469.43 324.163 473.047 312.447 476.38 300.64C476.393 300.607 477.71 295.49 480.33 285.29C483.97 271.103 488.963 257.777 495.31 245.31C497.823 240.383 504.25 228.077 514.59 208.39C516.983 203.83 518.237 200.37 518.35 198.01C518.557 193.85 517.003 190.2 513.69 187.06Z" fill="#BB6D5C"/>
</svg>
