<svg width="449" height="474" viewBox="0 0 449 474" fill="none" xmlns="http://www.w3.org/2000/svg">
<path d="M11.71 302.25C5.28999 278.677 1.62333 254.677 0.709993 230.25C0.0166601 206.203 3.71666 183.307 11.81 161.56C21.5833 135.327 37.24 113.33 58.78 95.57C64.08 91.2033 69.5167 87.3467 75.09 84C92.9567 73.28 112.427 66.7766 133.5 64.49C139.313 63.8633 145.147 63.67 151 63.91C171.807 64.7767 191.733 69.57 210.78 78.29C210.835 78.3156 210.896 78.3278 210.957 78.3258C211.017 78.3238 211.077 78.3076 211.131 78.2784C211.184 78.2492 211.23 78.208 211.264 78.1579C211.299 78.1078 211.322 78.0503 211.33 77.99C214.137 61.0966 220.47 46.24 230.33 33.42C234.31 28.24 238.987 23.5233 244.36 19.27C254.267 11.43 265.313 5.45999 277.5 1.35999C280.36 0.39332 282.84 0.126652 284.94 0.559985C286.253 0.833319 287.367 1.51665 288.28 2.60999C288.527 2.90332 289.22 3.95332 290.36 5.75999C293.44 10.6133 295.413 16.0967 296.28 22.21C296.335 22.5995 296.265 22.9966 296.08 23.3449C295.895 23.6932 295.604 23.9749 295.25 24.15C292.31 25.5967 289.26 26.9833 286.1 28.31C281.213 30.3567 278.147 31.7 276.9 32.34C258.167 41.9333 246.317 57.42 241.35 78.8C241.163 79.6267 241.46 79.88 242.24 79.56C250.407 76.22 258.593 73.42 266.8 71.16C273.5 69.32 280.023 67.9967 286.37 67.19C296.063 65.95 306.013 65.5467 316.22 65.98C316.567 65.9933 316.907 66.0367 317.24 66.11C319.133 66.4967 320.643 66.7233 321.77 66.79C323.703 66.9033 324.687 66.96 324.72 66.96C343.847 69.8333 361.043 76.16 376.31 85.94C394.11 97.3333 408.96 112.503 420.86 131.45C435.473 154.71 444.353 180.393 447.5 208.5C449.307 224.66 449.033 240.17 446.68 255.03C438.96 303.757 422.88 349.06 398.44 390.94C391.087 403.533 382.133 415.91 371.58 428.07C358.56 443.077 343.847 454.867 327.44 463.44C319.267 467.707 310.34 470.707 300.66 472.44C294.26 473.587 287.623 474.07 280.75 473.89C260.303 473.363 241.197 467.737 223.43 457.01C223.3 456.932 223.151 456.889 223 456.887C222.849 456.886 222.7 456.925 222.57 457C208.117 465.487 192.667 470.603 176.22 472.35C169.433 473.077 162.78 473.13 156.26 472.51C139.62 470.937 124.147 465.567 109.84 456.4C96.4267 447.8 84.4767 437.507 73.99 425.52C64.8433 415.073 56.69 403.903 49.53 392.01C32.6033 363.923 19.9967 334.003 11.71 302.25ZM222.5 220.05C219.5 213.477 215.477 207.747 210.43 202.86C205.377 197.967 199.77 194.487 193.61 192.42C183.883 189.16 173.84 189.5 163.48 193.44C157.487 195.713 152.347 198.92 148.06 203.06C137.913 212.867 133.433 225.017 134.62 239.51C135.56 250.943 139.517 261.177 146.49 270.21C149.243 273.777 152.277 277.093 155.59 280.16C164.903 288.793 174.437 297.177 184.19 305.31C194.71 314.083 204.73 325.223 214.25 338.73C217.51 343.35 220.357 348.207 222.79 353.3C222.93 353.6 223.073 353.603 223.22 353.31C229.713 340.457 237.983 328.867 248.03 318.54C254.45 311.94 259.92 306.74 264.44 302.94C272.947 295.773 280.453 289.16 286.96 283.1C293.267 277.227 297.757 272.323 300.43 268.39C305.77 260.537 309.14 251.73 310.54 241.97C311.6 234.59 311.087 227.683 309 221.25C305.16 209.423 297.527 200.707 286.1 195.1C279.813 192.02 273.307 190.397 266.58 190.23C259.907 190.063 253.543 191.453 247.49 194.4C239.917 198.08 233.693 203.62 228.82 211.02C226.9 213.94 225.147 216.957 223.56 220.07C223.187 220.797 222.833 220.79 222.5 220.05Z" fill="#B96C5B"/>
</svg>
