<svg width="512" height="512" viewBox="0 0 512 512" fill="none" xmlns="http://www.w3.org/2000/svg">
<g clip-path="url(#clip0_101_3)">
<path d="M154.56 0H161.06C172.813 0.893333 183.19 3.99667 192.19 9.31C203.463 15.97 214.22 23.32 224.46 31.36C224.873 31.68 225.107 31.5833 225.16 31.07C227.173 12.3967 237.223 2.04 255.31 0H257.06C263.133 0.46 268.343 2.14667 272.69 5.06C281.943 11.2733 286.603 20.2533 286.67 32C286.69 36.2267 286.737 40.4567 286.81 44.69C286.809 44.7487 286.822 44.8068 286.848 44.8596C286.874 44.9125 286.912 44.9586 286.96 44.9945C287.007 45.0303 287.063 45.0549 287.122 45.0662C287.181 45.0776 287.242 45.0755 287.3 45.06C296.487 42.7 302.7 40.9933 305.94 39.94C313.287 37.54 321.62 35.4567 330.94 33.69C341.12 31.7567 350.987 31.8933 360.54 34.1C366.2 35.4067 372.337 37.78 378.95 41.22C384.823 44.2667 390.437 47.7667 395.79 51.72C405.95 59.2133 415.31 67.6033 423.87 76.89C425.817 79.01 427.027 81.4533 427.5 84.22C427.693 85.36 428.037 86.35 428.53 87.19C429.21 88.3567 429.68 89.3133 429.94 90.06C457.04 167.927 484.13 245.797 511.21 323.67C511.37 324.123 511.503 324.69 511.61 325.37C511.703 325.943 511.833 326.507 512 327.06L512.06 328.59C506.827 343.203 498.493 355.277 487.06 364.81C467.233 381.343 444.047 389.38 417.5 388.92C401.333 388.647 385.98 384.777 371.44 377.31C352.72 367.703 338.89 353.583 329.95 334.95C328.69 332.33 328.013 330.243 327.92 328.69C327.8 326.63 328.16 324.4 329 322C355.733 245.36 382.403 168.687 409.01 91.98C409.074 91.7954 409.086 91.5966 409.046 91.4046C409.005 91.2127 408.913 91.0348 408.78 90.89C401.12 82.4367 392.62 74.8 383.28 67.98C375.953 62.6333 369.193 58.7233 363 56.25C355.467 53.2433 347.883 52.16 340.25 53C332.183 53.8867 323.65 55.7367 314.65 58.55C305.763 61.33 296.63 63.8533 287.25 66.12C287.108 66.1537 286.982 66.2341 286.891 66.3484C286.8 66.4627 286.75 66.6041 286.75 66.75V439.59C286.75 439.765 286.68 439.933 286.557 440.057C286.433 440.18 286.265 440.25 286.09 440.25H226.13C225.897 440.25 225.673 440.157 225.508 439.992C225.343 439.827 225.25 439.603 225.25 439.37V56.73C225.25 56.5734 225.209 56.4189 225.132 56.2808C225.055 56.1427 224.945 56.0255 224.81 55.94C220.117 52.96 215.487 49.8867 210.92 46.72C210.88 46.6933 207.367 44.0967 200.38 38.93C195.027 34.9767 189.44 31.39 183.62 28.17C177.673 24.8767 172.537 22.74 168.21 21.76C162.703 20.5133 157.053 20.2767 151.26 21.05C135.613 23.1433 120.42 27.9433 105.68 35.45C105.45 35.5664 105.269 35.7621 105.172 36.0009C105.075 36.2398 105.067 36.5058 105.15 36.75C130.583 110.01 155.953 183 181.26 255.72C182.987 260.68 183.887 263.42 183.96 263.94C184.353 266.773 183.803 269.73 182.31 272.81C176.71 284.397 169.51 294.18 160.71 302.16C156.077 306.36 150.663 310.223 144.47 313.75C125.617 324.477 105.267 328.963 83.4199 327.21C76.5933 326.663 70.0366 325.52 63.7499 323.78C50.1366 320.013 37.7833 313.69 26.6899 304.81C14.2099 294.83 5.29327 282.213 -0.0600586 266.96L-5.85951e-05 265.19C0.333275 263.75 0.739941 262.337 1.21994 260.95C28.1199 183.75 54.9699 106.533 81.7699 29.3C82.4433 27.3533 83.4166 25.5667 84.6899 23.94C85.4899 22.9133 87.8766 21.3567 91.8499 19.27C105.863 11.93 120.543 6.43667 135.89 2.79C138.597 2.14333 141.7 1.60333 145.2 1.17C148.32 0.783333 151.44 0.393333 154.56 0ZM32.1399 234.42C29.7599 241.267 27.3333 248.177 24.8599 255.15C24.8266 255.246 24.8166 255.349 24.8308 255.449C24.845 255.55 24.883 255.646 24.9416 255.729C25.0003 255.812 25.0779 255.88 25.168 255.927C25.2582 255.974 25.3582 255.999 25.4599 256H158.89C158.981 256 159.072 255.979 159.153 255.937C159.234 255.895 159.304 255.835 159.357 255.76C159.41 255.686 159.444 255.599 159.457 255.509C159.47 255.418 159.46 255.326 159.43 255.24C137.497 192.227 115.663 129.57 93.9299 67.27C93.3899 65.73 93.0499 64.5667 92.9099 63.78C92.5833 61.9933 92.1233 61.9567 91.5299 63.67C71.7099 120.61 51.9133 177.527 32.1399 234.42ZM419.31 124.59L352.45 316.87C352.424 316.941 352.417 317.016 352.427 317.091C352.437 317.165 352.466 317.236 352.51 317.298C352.554 317.359 352.612 317.41 352.68 317.445C352.748 317.48 352.823 317.499 352.9 317.5H486.6C486.694 317.5 486.786 317.478 486.87 317.435C486.954 317.393 487.026 317.33 487.081 317.254C487.135 317.178 487.171 317.09 487.185 316.997C487.199 316.904 487.19 316.809 487.16 316.72L420.12 124.59C419.847 123.81 419.577 123.81 419.31 124.59Z" fill="#4B3262"/>
<path d="M388.71 512H123.18C123 508.013 122.94 503.013 123 497C123.067 490.08 124.893 483.803 128.48 478.17C135.787 466.677 146.377 460.92 160.25 460.9C222.417 460.8 284.583 460.75 346.75 460.75C350.37 460.75 353.12 460.81 355 460.93C364.12 461.523 371.893 465.023 378.32 471.43C384.873 477.97 388.413 485.763 388.94 494.81C389.227 499.737 389.15 505.467 388.71 512Z" fill="#4B3262"/>
</g>
<defs>
<clipPath id="clip0_101_3">
<rect width="512" height="512" fill="white"/>
</clipPath>
</defs>
</svg>
