<svg width="470" height="470" viewBox="0 0 470 470" fill="none" xmlns="http://www.w3.org/2000/svg">
<g clip-path="url(#clip0_7_47)">
<mask id="mask0_7_47" style="mask-type:luminance" maskUnits="userSpaceOnUse" x="0" y="0" width="470" height="470">
<path d="M470 0H0V470H470V0Z" fill="white"/>
</mask>
<g mask="url(#mask0_7_47)">
<path d="M246.46 279C250.18 291.573 252.59 304.363 253.69 317.37C254.083 322.03 254.123 328.113 253.81 335.62C253.557 341.707 253.373 347.797 253.26 353.89C253.26 353.923 253.22 354.5 253.14 355.62C253.02 357.167 253.41 358.433 254.31 359.42C255.35 360.56 256.66 360.937 258.24 360.55C260.267 360.063 261.27 358.463 261.25 355.75C261.13 339.337 262.393 322.34 265.04 304.76C266.1 297.733 267.587 290.8 269.5 283.96" stroke="#995E5F" stroke-width="2"/>
<path d="M269.5 283.96C284.527 279.073 298.383 271.947 311.07 262.58C319.89 256.067 327.057 248.22 332.57 239.04C335.643 233.927 338.277 227.827 340.47 220.74C344.997 206.14 347.257 190.823 347.25 174.79C347.25 174.677 347.227 174.566 347.183 174.463C347.139 174.359 347.074 174.266 346.993 174.188C346.912 174.111 346.815 174.051 346.71 174.011C346.605 173.972 346.492 173.955 346.38 173.96C332.167 174.613 318.92 177.867 306.64 183.72C298.493 187.607 291.883 192.22 286.81 197.56C273.65 211.413 265.797 228.31 263.25 248.25C261.943 258.45 261.943 267.713 263.25 276.04" stroke="#AE928D" stroke-width="2"/>
<path d="M263.25 276.04L258.66 293.8C258.527 294.327 258.41 294.327 258.31 293.8C256.917 286.513 255.147 279.427 253 272.54" stroke="#995E5F" stroke-width="2"/>
<path d="M253 272.54C257.207 254.333 257.31 236.29 253.31 218.41C251.763 211.477 249.667 205.163 247.02 199.47C241.74 188.13 234.38 178.327 224.94 170.06C213.013 159.627 199.283 151.94 183.75 147C163.923 140.7 143.023 139.113 121.05 142.24C120.985 142.248 120.923 142.27 120.867 142.303C120.811 142.336 120.761 142.38 120.722 142.432C120.683 142.484 120.655 142.543 120.639 142.606C120.623 142.67 120.62 142.735 120.63 142.8C122.55 157.06 126.07 171.647 131.19 186.56C135.757 199.873 141.697 212.097 149.01 223.23C151.843 227.537 154.88 231.547 158.12 235.26C161.66 239.307 165.223 242.867 168.81 245.94C190.97 264.907 216.853 275.927 246.46 279" stroke="#AE928D" stroke-width="2"/>
<path d="M253 272.54C247.9 256.527 241.047 241.95 232.44 228.81C220.68 210.857 205.257 196.45 186.17 185.59C184.27 184.51 183.197 183.93 182.95 183.85C181.537 183.377 180.24 183.697 179.06 184.81C177.633 186.163 177.267 187.59 177.96 189.09C178.353 189.957 179.293 190.803 180.78 191.63C196.607 200.45 209.827 211.843 220.44 225.81C232.36 241.51 241.033 259.24 246.46 279" stroke="#CEA089" stroke-width="2"/>
<path d="M269.5 283.96C275.593 259.867 287.043 238.74 303.85 220.58C303.87 220.553 304.383 220.077 305.39 219.15C306.163 218.43 306.727 217.593 307.08 216.64C307.573 215.313 307.46 214.087 306.74 212.96C305.953 211.72 304.797 211.19 303.27 211.37C302.243 211.497 301.23 212.027 300.23 212.96C299.437 213.693 298.527 214.623 297.5 215.75C281.66 233.103 270.44 252.84 263.84 274.96C263.807 275.06 263.79 275.263 263.79 275.57C263.79 275.897 263.61 276.053 263.25 276.04" stroke="#CEA089" stroke-width="2"/>
<path d="M465.29 235.85C465.29 266.055 459.341 295.965 447.782 323.871C436.222 351.777 419.28 377.133 397.922 398.492C376.563 419.85 351.207 436.792 323.301 448.352C295.395 459.911 265.485 465.86 235.28 465.86C174.278 465.86 115.774 441.627 72.6384 398.492C29.5031 355.356 5.27002 296.852 5.27002 235.85C5.27002 174.848 29.5031 116.344 72.6384 73.2084C115.774 30.0732 174.278 5.84009 235.28 5.84009C296.282 5.84009 354.786 30.0732 397.922 73.2084C441.057 116.344 465.29 174.848 465.29 235.85ZM246.46 279C250.18 291.573 252.59 304.363 253.69 317.37C254.083 322.03 254.123 328.113 253.81 335.62C253.557 341.707 253.373 347.797 253.26 353.89C253.26 353.923 253.22 354.5 253.14 355.62C253.02 357.167 253.41 358.433 254.31 359.42C255.35 360.56 256.66 360.937 258.24 360.55C260.267 360.063 261.27 358.463 261.25 355.75C261.13 339.337 262.393 322.34 265.04 304.76C266.1 297.733 267.587 290.8 269.5 283.96C284.527 279.073 298.383 271.947 311.07 262.58C319.89 256.067 327.057 248.22 332.57 239.04C335.643 233.927 338.277 227.827 340.47 220.74C344.997 206.14 347.257 190.823 347.25 174.79C347.25 174.678 347.227 174.566 347.183 174.463C347.139 174.359 347.074 174.266 346.993 174.188C346.912 174.111 346.815 174.051 346.71 174.011C346.605 173.972 346.492 173.955 346.38 173.96C332.167 174.613 318.92 177.867 306.64 183.72C298.493 187.607 291.883 192.22 286.81 197.56C273.65 211.413 265.797 228.31 263.25 248.25C261.943 258.45 261.943 267.713 263.25 276.04L258.66 293.8C258.527 294.327 258.41 294.327 258.31 293.8C256.917 286.513 255.147 279.427 253 272.54C257.207 254.333 257.31 236.29 253.31 218.41C251.763 211.477 249.667 205.163 247.02 199.47C241.74 188.13 234.38 178.327 224.94 170.06C213.013 159.627 199.283 151.94 183.75 147C163.923 140.7 143.023 139.113 121.05 142.24C120.985 142.249 120.923 142.27 120.867 142.303C120.811 142.336 120.761 142.38 120.722 142.432C120.683 142.484 120.655 142.543 120.639 142.607C120.623 142.67 120.62 142.736 120.63 142.8C122.55 157.06 126.07 171.647 131.19 186.56C135.757 199.873 141.697 212.097 149.01 223.23C151.843 227.537 154.88 231.547 158.12 235.26C161.66 239.307 165.223 242.867 168.81 245.94C190.97 264.907 216.853 275.927 246.46 279Z" fill="#794F63"/>
<path d="M253 272.54C247.9 256.527 241.047 241.95 232.44 228.81C220.68 210.857 205.257 196.45 186.17 185.59C184.27 184.51 183.197 183.93 182.95 183.85C181.537 183.377 180.24 183.697 179.06 184.81C177.633 186.163 177.267 187.59 177.96 189.09C178.353 189.957 179.293 190.803 180.78 191.63C196.607 200.45 209.827 211.843 220.44 225.81C232.36 241.51 241.033 259.24 246.46 279C216.853 275.927 190.97 264.907 168.81 245.94C165.223 242.867 161.66 239.307 158.12 235.26C154.88 231.547 151.843 227.537 149.01 223.23C141.697 212.097 135.757 199.873 131.19 186.56C126.07 171.647 122.55 157.06 120.63 142.8C120.62 142.736 120.623 142.67 120.639 142.607C120.655 142.543 120.683 142.484 120.722 142.432C120.761 142.38 120.811 142.336 120.867 142.303C120.923 142.27 120.985 142.249 121.05 142.24C143.023 139.113 163.923 140.7 183.75 147C199.283 151.94 213.013 159.627 224.94 170.06C234.38 178.327 241.74 188.13 247.02 199.47C249.667 205.163 251.763 211.477 253.31 218.41C257.31 236.29 257.207 254.333 253 272.54Z" fill="#E2D4B7"/>
<path d="M269.5 283.96C275.593 259.867 287.043 238.74 303.85 220.58C303.87 220.553 304.383 220.077 305.39 219.15C306.163 218.43 306.727 217.593 307.08 216.64C307.573 215.313 307.46 214.087 306.74 212.96C305.953 211.72 304.797 211.19 303.27 211.37C302.243 211.497 301.23 212.027 300.23 212.96C299.437 213.693 298.527 214.623 297.5 215.75C281.66 233.103 270.44 252.84 263.84 274.96C263.807 275.06 263.79 275.263 263.79 275.57C263.79 275.897 263.61 276.053 263.25 276.04C261.943 267.713 261.943 258.45 263.25 248.25C265.797 228.31 273.65 211.413 286.81 197.56C291.883 192.22 298.493 187.607 306.64 183.72C318.92 177.867 332.167 174.613 346.38 173.96C346.492 173.955 346.605 173.972 346.71 174.011C346.815 174.051 346.912 174.111 346.993 174.188C347.074 174.266 347.139 174.359 347.183 174.463C347.227 174.566 347.25 174.677 347.25 174.79C347.257 190.823 344.997 206.14 340.47 220.74C338.277 227.827 335.643 233.927 332.57 239.04C327.057 248.22 319.89 256.067 311.07 262.58C298.383 271.947 284.527 279.073 269.5 283.96Z" fill="#E2D4B7"/>
<path d="M253 272.54C255.147 279.427 256.917 286.513 258.31 293.8C258.41 294.327 258.527 294.327 258.66 293.8L263.25 276.04C263.61 276.053 263.79 275.897 263.79 275.57C263.79 275.263 263.807 275.06 263.84 274.96C270.44 252.84 281.66 233.103 297.5 215.75C298.527 214.623 299.437 213.693 300.23 212.96C301.23 212.027 302.243 211.497 303.27 211.37C304.797 211.19 305.953 211.72 306.74 212.96C307.46 214.087 307.573 215.313 307.08 216.64C306.727 217.593 306.163 218.43 305.39 219.15C304.383 220.077 303.87 220.553 303.85 220.58C287.043 238.74 275.593 259.867 269.5 283.96C267.587 290.8 266.1 297.733 265.04 304.76C262.393 322.34 261.13 339.337 261.25 355.75C261.27 358.463 260.267 360.063 258.24 360.55C256.66 360.937 255.35 360.56 254.31 359.42C253.41 358.433 253.02 357.167 253.14 355.62C253.22 354.5 253.26 353.923 253.26 353.89C253.373 347.797 253.557 341.707 253.81 335.62C254.123 328.113 254.083 322.03 253.69 317.37C252.59 304.363 250.18 291.573 246.46 279C241.033 259.24 232.36 241.51 220.44 225.81C209.827 211.843 196.607 200.45 180.78 191.63C179.293 190.803 178.353 189.957 177.96 189.09C177.267 187.59 177.633 186.163 179.06 184.81C180.24 183.697 181.537 183.377 182.95 183.85C183.197 183.93 184.27 184.51 186.17 185.59C205.257 196.45 220.68 210.857 232.44 228.81C241.047 241.95 247.9 256.527 253 272.54Z" fill="#B96C5B"/>
</g>
</g>
<defs>
<clipPath id="clip0_7_47">
<rect width="470" height="470" fill="white"/>
</clipPath>
</defs>
</svg>
