<svg width="601" height="599" viewBox="0 0 601 599" fill="none" xmlns="http://www.w3.org/2000/svg">
<path d="M2.95999 328.5C2.95999 321.78 2.67332 315.07 2.09999 308.37C2.04665 307.79 1.86665 307.073 1.55999 306.22C1.29999 305.507 1.12665 304.767 1.03999 304C0.75332 294.44 0.979987 284.89 1.71999 275.35C1.74665 275.063 1.82332 274.85 1.94999 274.71C2.02999 274.61 2.12665 274.527 2.23999 274.46C2.34172 274.398 2.42737 274.321 2.48995 274.234C2.55252 274.147 2.59023 274.053 2.59999 273.96C3.12665 269.053 3.64665 264.147 4.15999 259.24C4.71999 253.86 5.59665 248.533 6.78999 243.26C6.94999 242.553 7.29332 240.523 7.81999 237.17C8.13999 235.13 8.67999 233.137 9.43999 231.19C9.81332 230.237 10.1633 228.663 10.49 226.47C10.73 224.877 11.11 223.313 11.63 221.78C12.5167 219.14 13.2567 216.46 13.85 213.74C14.0833 212.667 14.5167 211.4 15.15 209.94C15.6833 208.7 16.09 207.413 16.37 206.08C16.73 204.367 17.24 202.707 17.9 201.1C18.8133 198.887 19.4367 197.277 19.77 196.27C20.53 193.957 21.5033 191.347 22.69 188.44C43.47 137.407 75.6467 95.0867 119.22 61.48C152.533 35.7867 189.627 17.9534 230.5 7.98002C230.56 7.96668 231.883 7.62002 234.47 6.94002C237.043 6.26002 239.97 5.69669 243.25 5.25002C245.263 4.97669 247.55 4.52335 250.11 3.89002C252.53 3.29669 254.823 2.90002 256.99 2.70002C261.843 2.26002 266.68 1.69335 271.5 1.00002C274.1 0.626685 278.767 0.393352 285.5 0.300019C286.62 0.280019 291.287 0.200019 299.5 0.0600191C315.953 -0.226648 331.37 0.670019 345.75 2.75002C364.337 5.44335 383.13 10.19 402.13 16.99C408.403 19.2367 414.59 21.7167 420.69 24.43C473.397 47.93 516.07 83.43 548.71 130.93C552.557 136.517 556.14 142.137 559.46 147.79C581.64 185.523 594.903 226.593 599.25 271C599.89 277.533 600.357 283.527 600.65 288.98C600.97 294.767 601 300.78 600.74 307.02C597.607 383.013 570.513 448.613 519.46 503.82C514.853 508.793 510.15 513.517 505.35 517.99C480.957 540.683 453.757 558.853 423.75 572.5C408.297 579.527 391.823 585.27 374.33 589.73C374.03 589.81 371.963 590.243 368.13 591.03C366.743 591.317 365.37 591.667 364.01 592.08C362.51 592.54 361.137 592.857 359.89 593.03C356.21 593.537 352.55 594.147 348.91 594.86C345.023 595.62 341.387 596.147 338 596.44C334.327 596.753 330.66 597.107 327 597.5C309.5 599.407 292.023 599.387 274.57 597.44C274.19 597.393 270.467 597.047 263.4 596.4C259.667 596.06 255.96 595.497 252.28 594.71C250.173 594.263 247.583 593.823 244.51 593.39C241.89 593.023 239.307 592.483 236.76 591.77C234.987 591.27 232.893 590.803 230.48 590.37C228.36 589.983 226.28 589.43 224.24 588.71C223.067 588.29 221.49 587.84 219.51 587.36C218.263 587.053 216.677 586.6 214.75 586C191.83 578.82 171.077 569.807 152.49 558.96C99.0433 527.787 58.5667 484.363 31.06 428.69C27.5467 421.577 24.5733 414.693 22.14 408.04C21.92 407.433 21.4533 406.403 20.74 404.95C20.2333 403.917 19.84 402.843 19.56 401.73C19.1533 400.13 18.75 398.9 18.35 398.04C17.4433 396.113 16.93 394.913 16.81 394.44C16.2433 392.133 15.7033 390.22 15.19 388.7C14.4033 386.4 13.8467 384.5 13.52 383C13.1533 381.347 12.6933 379.72 12.14 378.12C11.5267 376.34 11.0767 374.717 10.79 373.25C10.2167 370.323 9.51999 367.427 8.69999 364.56C8.09332 362.413 7.63999 360.243 7.33999 358.05C7.02665 355.797 6.61665 353.63 6.10999 351.55C5.32332 348.297 4.78665 344.78 4.49999 341C4.27332 337.98 3.75999 333.813 2.95999 328.5ZM330.31 327.82C377.337 328.213 424.363 328.123 471.39 327.55C474.317 327.51 476.823 327.093 478.91 326.3C486.803 323.293 492.37 318.163 495.61 310.91C498.237 305.037 498.86 298.98 497.48 292.74C496.013 286.1 492.52 280.663 487 276.43C483.913 274.057 480.497 272.417 476.75 271.51C473.303 270.67 469.47 270.25 465.25 270.25C420.417 270.25 375.47 270.25 330.41 270.25C330.323 270.25 330.238 270.233 330.157 270.2C330.077 270.167 330.005 270.118 329.943 270.057C329.882 269.995 329.833 269.923 329.8 269.843C329.767 269.763 329.75 269.677 329.75 269.59C329.75 224.723 329.75 179.963 329.75 135.31C329.75 130.183 329.737 127.483 329.71 127.21C329.43 124.583 328.673 121.95 327.44 119.31C323.507 110.917 317.207 105.48 308.54 103C300.713 100.76 293.45 101.757 286.75 105.99C286.677 106.037 285.943 106.45 284.55 107.23C283.417 107.863 282.473 108.71 281.72 109.77C281.558 109.997 281.291 110.183 280.96 110.3C280.273 110.547 279.767 111.093 279.44 111.94C279.14 112.72 278.537 113.387 277.63 113.94C277.345 114.115 277.13 114.364 277.02 114.65C276.54 115.91 275.96 117.113 275.28 118.26C274.46 119.64 273.933 120.847 273.7 121.88C272.733 126.14 272.25 131.097 272.25 136.75C272.25 181.083 272.25 225.417 272.25 269.75C272.25 269.883 272.197 270.01 272.104 270.104C272.01 270.197 271.883 270.25 271.75 270.25C228.17 270.25 184.587 270.25 141 270.25C134.647 270.25 129.243 270.67 124.79 271.51C123.423 271.77 121.983 272.313 120.47 273.14C119.097 273.893 117.71 274.617 116.31 275.31C114.697 276.11 113.657 276.903 113.19 277.69C112.59 278.69 111.877 279.593 111.05 280.4C109.97 281.44 109.227 282.29 108.82 282.95C101.247 295.257 101.993 306.92 111.06 317.94C115.12 322.873 120.183 325.957 126.25 327.19C127.957 327.537 133.64 327.747 143.3 327.82C186.033 328.127 228.793 328.103 271.58 327.75C271.667 327.749 271.754 327.765 271.836 327.798C271.917 327.831 271.991 327.88 272.053 327.943C272.115 328.005 272.165 328.079 272.199 328.161C272.233 328.243 272.25 328.331 272.25 328.42C272.25 372.06 272.25 415.587 272.25 459C272.25 463.273 272.407 467.03 272.72 470.27C273.12 474.377 274.08 477.91 275.6 480.87C277.407 484.403 279.77 487.3 282.69 489.56C292.657 497.287 302.977 498.507 313.65 493.22C317.15 491.493 320.09 489.3 322.47 486.64C324.997 483.827 326.94 480.633 328.3 477.06C329.133 474.887 329.59 472.283 329.67 469.25C329.73 466.997 329.757 464.33 329.75 461.25C329.69 435.903 329.71 391.59 329.81 328.31C329.81 328.245 329.823 328.18 329.848 328.12C329.873 328.06 329.91 328.006 329.957 327.96C330.004 327.914 330.059 327.878 330.119 327.854C330.18 327.83 330.245 327.819 330.31 327.82Z" fill="#794F63"/>
</svg>
