<svg width="813" height="613" viewBox="0 0 813 613" fill="none" xmlns="http://www.w3.org/2000/svg">
<path d="M704.71 155.14C708.757 152.2 712.283 152.32 715.29 155.5C716.303 156.567 717.12 157.977 717.74 159.73C718.307 161.317 718.717 162.92 718.97 164.54C719.203 166.06 720.07 166.797 721.57 166.75L748.03 165.92C748.473 165.905 748.896 165.728 749.223 165.422C749.549 165.115 749.758 164.7 749.81 164.25C750.25 160.517 750.48 156.6 750.5 152.5C750.507 150.58 751.293 148.377 752.86 145.89C756.413 140.243 760.397 136.133 764.81 133.56C766.457 132.6 768.58 132.123 771.18 132.13C774.18 132.137 775.73 132.137 775.83 132.13C781.217 131.897 786.607 131.953 792 132.3C795.26 132.507 798.107 133.503 800.54 135.29C802.58 136.79 804.39 139.04 805.97 142.04C808.457 146.773 809.67 151.927 809.61 157.5C809.497 167.4 810.32 177.213 812.08 186.94C813.693 195.853 811.897 203.853 806.69 210.94C805.923 211.973 804.943 212.78 803.75 213.36C802.903 213.767 801.697 214.017 800.13 214.11C791.023 214.65 781.917 215.157 772.81 215.63C772.737 215.637 771.2 215.763 768.2 216.01C765.907 216.203 764.09 216.117 762.75 215.75C761.063 215.29 759.523 214.013 758.13 211.92C754.77 206.88 752.447 201.397 751.16 195.47C750.627 193.017 750.037 190.673 749.39 188.44C748.917 186.827 747.83 186.17 746.13 186.47L738 187.92C737.937 187.931 737.878 187.954 737.825 187.989C737.772 188.023 737.727 188.068 737.693 188.12C737.659 188.172 737.637 188.23 737.628 188.29C737.619 188.351 737.623 188.412 737.64 188.47C739.447 194.517 741.053 200.613 742.46 206.76C743.253 210.227 743.38 213.717 742.84 217.23C741.847 223.703 741.67 230.207 742.31 236.74C744.523 259.34 746.4 281.963 747.94 304.61C747.947 304.703 748.363 310.297 749.19 321.39C749.803 329.703 750.157 337.24 750.25 344C750.317 349.187 750.09 354.733 749.57 360.64C748.67 370.72 748.217 375.803 748.21 375.89C747.57 384.37 747 389.74 746.5 392C745.72 395.5 745.783 399.103 746.69 402.81C747.443 405.93 746.943 408.89 745.19 411.69C743.463 414.443 740.38 416.527 735.94 417.94C731.56 419.333 726.497 420.02 720.75 420C714.123 419.98 706.867 418.917 698.98 416.81C687.82 413.823 676.873 410.193 666.14 405.92C654.653 401.34 643.17 396.75 631.69 392.15C624.123 389.123 617.207 385.343 610.94 380.81C604.393 376.077 597.87 372.037 591.37 368.69C584.43 365.117 578.057 360.72 572.25 355.5C570.137 353.6 567.973 351.76 565.76 349.98C565.693 349.927 564.43 348.863 561.97 346.79C557.423 342.97 552.017 340.04 545.75 338C543.763 337.353 542.007 337.363 540.48 338.03C540.267 338.123 538.907 339.063 536.4 340.85C531.9 344.05 527.743 347.657 523.93 351.67C518.69 357.177 515.547 363.703 514.5 371.25C514.26 372.99 514.157 376.55 514.19 381.93C514.21 385.49 513.98 388.683 513.5 391.51C512.96 394.677 512.34 397.827 511.64 400.96C510.673 405.28 510.11 408.507 509.95 410.64C509.703 413.913 509.703 417.2 509.95 420.5C510.257 424.6 509.687 428.56 508.24 432.38C505.027 440.833 503.197 447.04 502.75 451C502.223 455.68 502.14 459.847 502.5 463.5C502.753 466.053 502.807 468.453 502.66 470.7C502.573 472.127 502.153 474.467 501.4 477.72C497.56 494.407 497.03 511.247 499.81 528.24C500.517 532.533 501.763 536.66 503.55 540.62C509.263 553.3 512.663 565.51 513.75 577.25C514.043 580.417 513.053 582.87 510.78 584.61C510.487 584.837 508.327 585.96 504.3 587.98C475.987 602.187 446.05 610.3 414.49 612.32C408.143 612.72 401.48 612.93 394.5 612.95C375.4 613.003 356.463 611.12 337.69 607.3C332.143 606.173 326.753 604.587 321.52 602.54C317.72 601.047 312.817 598.927 306.81 596.18C301.67 593.827 296.963 591.287 292.69 588.56C289.097 586.273 286.06 583.127 283.58 579.12C283.496 578.986 283.443 578.836 283.426 578.68C283.408 578.524 283.427 578.366 283.48 578.22C291.42 556.567 299.53 537.43 307.81 520.81C310.263 515.89 311.863 512.383 312.61 510.29C313.863 506.743 314.417 503.15 314.27 499.51C314.23 498.53 313.697 494.987 312.67 488.88C309.99 472.96 307.27 457.05 304.51 441.15C302.477 429.463 299.743 416.893 296.31 403.44C295.29 399.433 294.583 394.783 294.19 389.49C293.757 383.597 292.443 377.6 290.25 371.5C289.35 369 288.677 366.183 288.23 363.05C288.223 362.997 288.117 361.793 287.91 359.44C287.497 354.653 285.643 350.477 282.35 346.91C277.87 342.05 273.31 337.263 268.67 332.55C268.402 332.277 268.037 332.119 267.653 332.11C267.269 332.1 266.895 332.24 266.61 332.5C254.723 343.44 242.75 354.42 230.69 365.44C223.257 372.227 214.473 379.433 204.34 387.06C181.493 404.267 156.693 417.743 129.94 427.49C121.06 430.723 114.71 432.723 110.89 433.49C100.917 435.483 90.5366 434.987 79.7499 432C76.4499 431.087 73.9666 429.523 72.2999 427.31C71.3133 426.003 70.6999 423.993 70.4599 421.28C69.0133 404.867 67.7133 388.44 66.5599 372C65.4333 355.94 65.3299 341.523 66.2499 328.75C67.2233 315.257 68.1566 301.757 69.0499 288.25C70.3699 268.357 71.2199 248.443 71.5999 228.51C71.7733 219.37 71.9999 212.707 72.2799 208.52C72.8999 199.293 73.8699 190.093 75.1899 180.92C75.2027 180.838 75.1976 180.755 75.175 180.675C75.1524 180.596 75.1128 180.522 75.0589 180.458C75.0049 180.395 74.9379 180.344 74.8622 180.308C74.7865 180.272 74.7039 180.252 74.6199 180.25C71.8133 180.197 69.0866 180.507 66.4399 181.18C64.1799 181.76 63.0133 182.067 62.9399 182.1C61.6399 182.7 61.0133 183.917 61.0599 185.75C61.1933 191.383 61.0699 195.53 60.6899 198.19C60.0299 202.777 58.0299 206.277 54.6899 208.69C53.0966 209.837 51.2433 210.477 49.1299 210.61C48.9233 210.623 47.0099 210.543 43.3899 210.37C34.6633 209.95 25.9499 209.343 17.2499 208.55C14.0299 208.257 11.3299 206.94 9.14994 204.6C6.50328 201.767 4.03661 198.067 1.74994 193.5C0.469941 190.953 -0.053392 188.533 0.179941 186.24C1.25994 175.427 2.11328 164.597 2.73994 153.75C2.88661 151.257 3.16661 148.78 3.57994 146.32C4.48661 140.953 6.97994 137.207 11.0599 135.08C13.4599 133.82 17.5233 133.177 23.2499 133.15C31.6899 133.11 40.1233 133.443 48.5499 134.15C48.6033 134.15 49.4033 134.17 50.9499 134.21C53.1366 134.263 55.0833 135.017 56.7899 136.47C60.5033 139.637 63.3433 143.397 65.3099 147.75C66.1366 149.577 66.6033 151.653 66.7099 153.98C66.7966 156.107 66.8066 158.267 66.7399 160.46C66.7287 160.881 66.8544 161.295 67.0979 161.638C67.3415 161.981 67.6898 162.234 68.0899 162.36C72.0833 163.633 76.5766 163.97 81.5699 163.37C81.7921 163.343 82.0017 163.255 82.1749 163.117C82.3481 162.979 82.478 162.797 82.5499 162.59C83.7499 159.143 85.4033 156.11 87.5099 153.49C89.3166 151.25 91.6466 149.913 94.4999 149.48C97.1199 149.087 99.2366 149.603 100.85 151.03C101.697 151.777 102.637 151.93 103.67 151.49C108.017 149.663 111.93 149.863 115.41 152.09C115.467 152.126 115.533 152.147 115.6 152.148C115.667 152.15 115.733 152.133 115.79 152.1C121.19 149.1 126.043 149.217 130.35 152.45C130.465 152.538 130.606 152.583 130.75 152.577C130.895 152.572 131.032 152.516 131.14 152.42C133.767 150.113 136.523 149.107 139.41 149.4C141.203 149.58 142.797 150.483 144.19 152.11C145.023 153.09 145.767 154.137 146.42 155.25C147.267 156.697 147.99 157.733 148.59 158.36C152.643 162.607 157.513 165.19 163.2 166.11C163.305 166.127 163.412 166.122 163.515 166.096C163.618 166.07 163.714 166.024 163.799 165.959C163.883 165.894 163.953 165.813 164.005 165.721C164.057 165.628 164.089 165.526 164.1 165.42C164.553 161.067 165.153 156.96 165.9 153.1C166.78 148.573 168.103 145.283 169.87 143.23C172.697 139.943 176.573 138.367 181.5 138.5C186.893 138.647 195.85 139.427 208.37 140.84C208.41 140.847 209.333 140.9 211.14 141C213.68 141.147 215.53 142.083 216.69 143.81C219.39 147.857 222.107 151.893 224.84 155.92C225.993 157.613 226.657 159.443 226.83 161.41C226.863 161.803 226.8 163.7 226.64 167.1C226.34 173.447 225.707 179.76 224.74 186.04C224.72 186.2 224.317 189.18 223.53 194.98C222.843 200.12 221.647 204.773 219.94 208.94C217.36 215.24 212.463 218.18 205.25 217.76C198.503 217.367 189.42 216.447 178 215C174.553 214.567 171.867 213.18 169.94 210.84C166.493 206.66 164.43 203.297 163.75 200.75C163.017 198.003 162.963 195.24 163.59 192.46C163.897 191.073 164.033 189.623 164 188.11C163.997 187.999 163.973 187.889 163.931 187.787C163.89 187.686 163.83 187.595 163.756 187.519C163.683 187.443 163.596 187.385 163.502 187.347C163.409 187.31 163.309 187.294 163.21 187.3L157.25 187.64C157.111 187.649 156.973 187.71 156.854 187.815C156.734 187.92 156.639 188.064 156.58 188.23C154.933 192.85 152.677 196.293 149.81 198.56C144.643 202.653 138.643 207.07 131.81 211.81C129.517 213.41 127.237 215.237 124.97 217.29C122.503 219.523 120.67 221.757 119.47 223.99C117.483 227.67 116.34 231.673 116.04 236C115.107 249.487 114.677 267.153 114.75 289C114.803 305.727 116.22 320.06 119 332C120.933 340.313 123.65 348.443 127.15 356.39C127.195 356.489 127.262 356.576 127.347 356.644C127.432 356.712 127.531 356.759 127.637 356.78C127.743 356.802 127.852 356.798 127.955 356.768C128.058 356.738 128.153 356.684 128.23 356.61C147.043 338.857 166.907 322.927 187.82 308.82C195.227 303.827 201.98 298.113 208.08 291.68C210.64 288.973 213.847 284.983 217.7 279.71C221.72 274.19 224.8 270.1 226.94 267.44C244.227 245.907 266.327 234.647 293.24 233.66C295.52 233.573 302.19 233.69 313.25 234.01C320.17 234.203 327.087 234.443 334 234.73C340.553 234.997 346.387 234.753 351.5 234C356.04 233.333 360.437 231.563 364.69 228.69C367.377 226.87 369.33 224.303 370.55 220.99C371.277 219.003 371.783 215.92 372.07 211.74C372.47 205.92 372.587 200.09 372.42 194.25C372.253 188.357 370.927 183.293 368.44 179.06C366.913 176.467 365.667 174.24 364.7 172.38C363.687 170.42 362.79 168.047 362.01 165.26C361.223 162.433 360.47 159.597 359.75 156.75C358.89 153.343 356.767 150.467 353.38 148.12C352.147 147.273 351.253 146.34 350.7 145.32C347.74 139.893 345.653 133.973 344.44 127.56C342.68 118.313 342.563 109.223 344.09 100.29C345.003 94.95 345.55 91.2266 345.73 89.12C346.937 75.44 347.943 66.4 348.75 62C350.483 52.5666 353.147 43.4133 356.74 34.54C359.587 27.5066 364.68 23.0166 372.02 21.07C373.96 20.5566 375.853 19.91 377.7 19.13C380.58 17.91 382.597 15.83 383.75 12.89C385.657 8.01665 389.323 5.13665 394.75 4.24998C398.317 3.66331 401.67 3.43665 404.81 3.56998C406.617 3.64331 408.203 3.44331 409.57 2.96998C411.743 2.21665 413.753 1.43665 415.6 0.62998C416.953 0.02998 418.253 0.133313 419.5 0.93998C423.64 3.61998 426.733 7.06998 428.78 11.29C430.44 14.7233 431.5 16.7166 431.96 17.27C433.407 19.03 435.317 20.71 437.69 22.31C442.897 25.83 447.59 30.2666 451.77 35.62C455.503 40.4066 458.7 45.9433 461.36 52.23C466.66 64.7566 469.187 77.9933 468.94 91.94C468.88 95.3 469.64 98.5733 471.22 101.76C471.793 102.92 472.037 104.143 471.95 105.43C471.503 112.07 470.937 118.927 470.25 126C469.963 128.947 469.637 131.447 469.27 133.5C468.937 135.393 468.207 137.8 467.08 140.72C459.46 160.427 454.663 172.5 452.69 176.94C449.757 183.52 448.86 190.207 450 197C450.813 201.847 452.127 208.033 453.94 215.56C454.787 219.1 456.267 222 458.38 224.26C459.88 225.86 462.547 227.48 466.38 229.12C480.587 235.193 495.71 238.82 511.75 240C514.617 240.213 517.023 240.09 518.97 239.63C526.563 237.857 533.407 237.23 539.5 237.75C545.333 238.25 551.173 240.31 557.02 243.93C572.013 253.21 584.937 264.707 595.79 278.42C600.957 284.953 604.177 288.793 605.45 289.94C609.143 293.28 613.473 296.07 618.44 298.31C622.82 300.283 627.73 303.21 633.17 307.09C651.79 320.363 670.51 333.487 689.33 346.46C689.379 346.493 689.435 346.515 689.494 346.523C689.552 346.532 689.612 346.528 689.668 346.51C689.723 346.493 689.774 346.463 689.816 346.423C689.858 346.383 689.89 346.334 689.91 346.28C692.05 339.987 694.19 333.693 696.33 327.4C702.183 310.173 704.907 292.207 704.5 273.5C704.253 262.093 703.777 251.69 703.07 242.29C702.703 237.357 702.467 234.667 702.36 234.22C701.653 231.28 700.013 228.977 697.44 227.31C691.853 223.697 686.267 220.083 680.68 216.47C674.887 212.717 670.653 209.613 667.98 207.16C664.213 203.687 660.7 199.747 657.44 195.34C657.087 194.865 656.604 194.55 656.09 194.46L649.5 193.31C649.359 193.284 649.213 193.311 649.087 193.386C648.96 193.461 648.863 193.579 648.81 193.72C647.957 195.94 647.733 198.21 648.14 200.53C648.44 202.21 648.593 203.073 648.6 203.12C648.847 205.073 649.093 207.03 649.34 208.99C649.847 213.057 648.833 216.467 646.3 219.22C646.047 219.487 645.023 220.667 643.23 222.76C641.603 224.647 639.467 225.71 636.82 225.95C635.113 226.103 634.233 226.183 634.18 226.19C626.853 227.243 619.51 228.163 612.15 228.95C609.917 229.19 608.023 228.987 606.47 228.34C603.877 227.26 601.24 225.543 598.56 223.19C595.827 220.783 593.98 218.103 593.02 215.15C592.667 214.057 592.283 210.937 591.87 205.79C590.737 191.61 589.683 177.427 588.71 163.24C588.283 156.987 590.797 152.657 596.25 150.25C598.93 149.07 601.85 148.307 605.01 147.96C605.283 147.933 608.273 147.793 613.98 147.54C619.32 147.307 624.66 147.127 630 147C633.507 146.913 636.297 147.713 638.37 149.4C645.03 154.82 648.667 162.003 649.28 170.95C649.292 171.121 649.342 171.288 649.428 171.437C649.514 171.586 649.632 171.714 649.775 171.812C649.918 171.91 650.081 171.975 650.254 172.002C650.426 172.029 650.602 172.018 650.77 171.97L657.82 169.98C657.969 169.938 658.103 169.856 658.205 169.744C658.308 169.633 658.376 169.496 658.4 169.35C658.74 167.31 659.103 165.49 659.49 163.89C660.53 159.63 663.137 156.907 667.31 155.72C669.897 154.987 672.25 155.707 674.37 157.88C675.503 159.033 676.623 159.023 677.73 157.85C679.003 156.51 680.603 155.323 682.53 154.29C684.163 153.417 685.587 153.03 686.8 153.13C688.187 153.243 689.64 153.77 691.16 154.71C691.287 154.788 691.435 154.823 691.583 154.808C691.732 154.794 691.871 154.731 691.98 154.63C696.533 150.35 700.547 150.487 704.02 155.04C704.1 155.145 704.218 155.214 704.347 155.232C704.476 155.251 704.607 155.218 704.71 155.14Z" fill="#794F63"/>
</svg>
