<svg width="1440" height="1024" viewBox="0 0 1440 1024" fill="none" xmlns="http://www.w3.org/2000/svg">
<g clip-path="url(#clip0_4_2)">
<rect width="1440" height="1024" fill="#E4E9E0"/>
<path d="M280.5 459.66C280.607 459.645 280.716 459.656 280.817 459.692C280.919 459.728 281.011 459.787 281.085 459.865C281.159 459.944 281.214 460.038 281.244 460.142C281.275 460.245 281.28 460.354 281.26 460.46L256.96 582.06C256.936 582.173 256.938 582.29 256.966 582.402C256.994 582.515 257.046 582.62 257.12 582.71C257.194 582.8 257.287 582.872 257.392 582.923C257.498 582.973 257.613 582.999 257.73 583H297.58C297.727 583 297.869 582.95 297.982 582.857C298.095 582.763 298.172 582.634 298.2 582.49L322.64 460.07C322.667 459.936 322.744 459.816 322.855 459.736C322.967 459.657 323.104 459.622 323.24 459.64C336.187 461.567 348.507 465.633 360.2 471.84C360.378 471.931 360.583 471.951 360.773 471.895C360.964 471.839 361.124 471.712 361.22 471.54L378.4 440.91C378.434 440.851 378.455 440.786 378.463 440.719C378.471 440.651 378.466 440.583 378.447 440.518C378.428 440.453 378.397 440.392 378.355 440.339C378.312 440.286 378.26 440.242 378.2 440.21C356.927 428.223 334.11 422.293 309.75 422.42C283.59 422.56 258.373 428.407 234.1 439.96C233.884 440.061 233.706 440.23 233.594 440.441C233.482 440.652 233.442 440.894 233.48 441.13L238.2 471.66C238.209 471.715 238.231 471.768 238.263 471.813C238.295 471.859 238.337 471.896 238.386 471.922C238.435 471.948 238.488 471.963 238.543 471.964C238.597 471.965 238.651 471.954 238.7 471.93C252.253 465.75 266.187 461.66 280.5 459.66Z" stroke="#9B94B2" stroke-width="2"/>
<path d="M1065.43 451.93C1047.68 471.077 1040.07 493.847 1042.6 520.24C1043.89 533.773 1048.43 545.763 1056.2 556.21C1060.13 561.49 1064.81 566.203 1070.25 570.35C1080.2 577.943 1091.38 582.723 1103.81 584.69C1126.89 588.343 1148.36 584.6 1168.21 573.46C1174.22 570.087 1179.64 566.237 1184.48 561.91C1193.43 553.903 1200.5 544.497 1205.69 533.69C1212.58 519.357 1215.17 504.043 1213.47 487.75C1212.01 473.737 1207.13 461.41 1198.83 450.77C1194.8 445.597 1190 441.007 1184.43 437C1174.62 429.94 1163.79 425.46 1151.94 423.56C1127.26 419.607 1104.16 424.323 1082.65 437.71C1076.27 441.683 1070.53 446.423 1065.43 451.93Z" stroke="#DCB5AC" stroke-width="2"/>
<path d="M829.3 445.82L833.6 425.26C833.614 425.199 833.613 425.135 833.599 425.074C833.584 425.013 833.557 424.956 833.517 424.907C833.478 424.858 833.428 424.818 833.371 424.791C833.315 424.764 833.253 424.75 833.19 424.75L792.8 424.81C792.677 424.81 792.558 424.853 792.463 424.932C792.368 425.01 792.303 425.119 792.28 425.24L760.97 582.17C760.949 582.269 760.951 582.372 760.975 582.471C760.999 582.57 761.045 582.662 761.109 582.74C761.173 582.819 761.254 582.882 761.346 582.925C761.438 582.969 761.539 582.991 761.64 582.99L801.56 582.82C801.701 582.82 801.838 582.77 801.948 582.679C802.057 582.588 802.132 582.461 802.16 582.32C807.113 557.893 812.063 533.47 817.01 509.05C819.483 496.843 820.857 490.327 821.13 489.5C823.963 480.873 829.15 473.613 836.69 467.72C842.417 463.24 848.937 460.94 856.25 460.82C866.677 460.64 873.323 464.907 876.19 473.62C877.043 476.213 877.453 479.173 877.42 482.5C877.4 485.513 877.09 488.513 876.49 491.5C870.43 521.733 864.467 551.987 858.6 582.26C858.588 582.32 858.59 582.381 858.605 582.441C858.619 582.5 858.646 582.555 858.684 582.603C858.723 582.65 858.77 582.689 858.825 582.716C858.879 582.743 858.939 582.758 859 582.76C872.52 583.127 886.037 583.15 899.55 582.83C899.695 582.824 899.834 582.771 899.945 582.679C900.055 582.586 900.131 582.46 900.16 582.32C905.72 554.64 911.21 526.943 916.63 499.23C917.45 495.023 918.63 490.923 920.17 486.93C924.417 475.93 931.91 468.037 942.65 463.25C946.264 461.643 950.047 460.83 954 460.81C965.44 460.763 972.337 465.583 974.69 475.27C975.443 478.383 975.564 482.057 975.05 486.29C974.67 489.35 974.07 493.003 973.25 497.25C967.757 525.583 962.133 554 956.38 582.5C956.367 582.56 956.367 582.622 956.381 582.682C956.394 582.742 956.422 582.798 956.46 582.846C956.498 582.894 956.547 582.933 956.603 582.96C956.658 582.986 956.719 583 956.78 583H997.34C997.532 582.999 997.717 582.933 997.865 582.813C998.012 582.693 998.113 582.526 998.15 582.34C1005.04 548.68 1011.76 515.253 1018.31 482.06C1019.67 475.18 1020.2 468.587 1019.91 462.28C1019.58 455.093 1018.03 448.767 1015.28 443.3C1010.83 434.447 1003.9 428.413 994.48 425.2C988.56 423.187 981.983 422.407 974.75 422.86C966.183 423.4 957.97 425.67 950.11 429.67C938.65 435.497 929.277 443.853 921.99 454.74C921.477 455.5 921.143 455.43 920.99 454.53C919.297 444.67 914.73 436.84 907.29 431.04C903.27 427.907 898.607 425.627 893.3 424.2C888.08 422.8 882.813 422.317 877.5 422.75C858.527 424.29 842.793 432.15 830.3 446.33C829.34 447.417 829.007 447.247 829.3 445.82Z" stroke="#CBACAE" stroke-width="2"/>
<path d="M449.15 488.7L461.58 425.31C461.592 425.248 461.591 425.184 461.577 425.123C461.563 425.062 461.536 425.005 461.499 424.957C461.461 424.909 461.414 424.871 461.361 424.845C461.307 424.82 461.249 424.808 461.19 424.81L420.94 424.93C420.799 424.93 420.662 424.98 420.552 425.071C420.443 425.162 420.368 425.289 420.34 425.43L388.87 582.39C388.857 582.457 388.859 582.525 388.875 582.591C388.891 582.657 388.922 582.719 388.965 582.771C389.008 582.824 389.062 582.866 389.124 582.895C389.185 582.925 389.252 582.94 389.32 582.94L429.51 583C429.663 583 429.812 582.946 429.93 582.848C430.049 582.749 430.13 582.612 430.16 582.46L442.17 522.8C442.2 522.646 442.284 522.507 442.408 522.406C442.532 522.306 442.689 522.251 442.85 522.25H505.58C505.643 522.25 505.705 522.265 505.762 522.292C505.819 522.319 505.87 522.358 505.91 522.407C505.95 522.455 505.979 522.512 505.994 522.573C506.01 522.634 506.012 522.698 506 522.76L494.07 582.14C494.049 582.245 494.052 582.353 494.077 582.457C494.103 582.56 494.151 582.657 494.218 582.739C494.285 582.822 494.37 582.888 494.465 582.933C494.56 582.978 494.665 583.001 494.77 583L534.69 582.94C534.832 582.94 534.969 582.89 535.078 582.799C535.187 582.708 535.262 582.581 535.29 582.44L566.67 425.26C566.682 425.198 566.68 425.134 566.665 425.073C566.65 425.012 566.622 424.955 566.583 424.906C566.544 424.857 566.494 424.818 566.439 424.791C566.383 424.764 566.322 424.75 566.26 424.75L526.05 424.81C525.912 424.811 525.777 424.861 525.669 424.952C525.562 425.043 525.488 425.169 525.46 425.31L512.73 488.7C512.7 488.855 512.617 488.995 512.494 489.096C512.372 489.196 512.218 489.251 512.06 489.25L449.57 489.19C449.508 489.191 449.446 489.178 449.389 489.153C449.332 489.127 449.281 489.089 449.241 489.042C449.201 488.995 449.172 488.94 449.156 488.881C449.14 488.822 449.138 488.76 449.15 488.7Z" stroke="#AB9CB0" stroke-width="2"/>
<path d="M692.79 528.37C692.503 530.383 692.1 532.543 691.58 534.85C690.793 538.377 690.297 540.517 690.09 541.27C688.697 546.357 686.25 550.933 682.75 555C676.81 561.907 669.723 566.743 661.49 569.51C655.61 571.49 649.037 572.347 641.77 572.08C627.743 571.567 615.053 566.83 603.7 557.87C603.649 557.829 603.59 557.799 603.528 557.781C603.465 557.763 603.399 557.757 603.335 557.765C603.271 557.772 603.209 557.793 603.153 557.824C603.097 557.856 603.049 557.899 603.01 557.95L583.57 582.91C583.445 583.073 583.384 583.276 583.396 583.478C583.409 583.681 583.496 583.87 583.64 584.01C587.647 587.957 592.197 591.327 597.29 594.12C620.01 606.593 643.767 610.28 668.56 605.18C675.393 603.773 681.71 601.703 687.51 598.97C706.717 589.93 720.043 575.45 727.49 555.53C729.057 551.343 730.723 544.9 732.49 536.2C739.93 499.547 747.333 462.69 754.7 425.63C754.721 425.522 754.718 425.412 754.691 425.306C754.664 425.2 754.615 425.101 754.546 425.017C754.477 424.933 754.391 424.865 754.293 424.819C754.195 424.773 754.088 424.749 753.98 424.75H714.37C714.097 424.75 713.831 424.846 713.62 425.021C713.408 425.196 713.263 425.439 713.21 425.71C710.05 442.003 706.747 458.327 703.3 474.68C701.967 481 700.49 485.737 698.87 488.89C694.677 497.037 688.303 503.303 679.75 507.69C671.023 512.177 662.273 513.28 653.5 511C649.133 509.867 645.86 507.473 643.68 503.82C642 501.007 641.137 497.313 641.09 492.74C641.05 489.167 641.42 485.62 642.2 482.1C643.12 477.98 643.583 475.893 643.59 475.84C646.73 459.08 650.04 442.227 653.52 425.28C653.533 425.216 653.532 425.15 653.517 425.086C653.502 425.023 653.472 424.964 653.431 424.913C653.39 424.862 653.338 424.821 653.279 424.793C653.22 424.765 653.155 424.75 653.09 424.75H613.24C613.047 424.75 612.861 424.816 612.711 424.936C612.562 425.056 612.459 425.224 612.42 425.41C608.053 446.417 603.9 467.177 599.96 487.69C597.867 498.597 598.213 508.617 601 517.75C604.653 529.717 611.857 538.26 622.61 543.38C628.183 546.027 634.617 547.57 641.91 548.01C660.943 549.15 677.613 542.46 691.92 527.94C692.64 527.213 692.93 527.357 692.79 528.37Z" stroke="#BBA5AF" stroke-width="2"/>
<path d="M1106.78 546.731C1116.85 551.73 1128.75 552.019 1139.85 547.534C1150.95 543.05 1160.35 534.159 1165.98 522.818C1168.77 517.203 1170.55 511.155 1171.21 505.019C1171.88 498.884 1171.42 492.782 1169.87 487.061C1168.31 481.34 1165.69 476.112 1162.15 471.677C1158.61 467.241 1154.22 463.684 1149.24 461.209C1139.17 456.21 1127.27 455.921 1116.17 460.406C1105.07 464.89 1095.67 473.781 1090.04 485.122C1087.25 490.737 1085.48 496.785 1084.81 502.921C1084.14 509.056 1084.6 515.158 1086.15 520.879C1087.71 526.6 1090.33 531.828 1093.87 536.263C1097.41 540.699 1101.8 544.256 1106.78 546.731Z" stroke="#DCB5AC" stroke-width="2"/>
<path d="M280.5 459.66C266.187 461.66 252.253 465.75 238.7 471.93C238.651 471.954 238.597 471.965 238.543 471.964C238.488 471.963 238.435 471.948 238.386 471.922C238.337 471.896 238.295 471.859 238.263 471.813C238.231 471.768 238.209 471.715 238.2 471.66L233.48 441.13C233.442 440.894 233.482 440.652 233.594 440.441C233.706 440.23 233.884 440.061 234.1 439.96C258.373 428.407 283.59 422.56 309.75 422.42C334.11 422.293 356.927 428.223 378.2 440.21C378.26 440.242 378.312 440.286 378.355 440.339C378.397 440.392 378.428 440.453 378.447 440.518C378.466 440.583 378.471 440.651 378.463 440.719C378.455 440.786 378.434 440.851 378.4 440.91L361.22 471.54C361.124 471.712 360.964 471.839 360.773 471.895C360.583 471.951 360.378 471.931 360.2 471.84C348.507 465.633 336.187 461.567 323.24 459.64C323.104 459.622 322.967 459.657 322.855 459.736C322.744 459.816 322.667 459.936 322.64 460.07L298.2 582.49C298.172 582.634 298.095 582.763 297.982 582.857C297.869 582.95 297.727 583 297.58 583H257.73C257.613 582.999 257.498 582.973 257.392 582.923C257.287 582.872 257.194 582.8 257.12 582.71C257.046 582.62 256.994 582.515 256.966 582.402C256.938 582.29 256.936 582.173 256.96 582.06L281.26 460.46C281.28 460.354 281.275 460.245 281.244 460.142C281.214 460.038 281.159 459.944 281.085 459.865C281.011 459.787 280.919 459.728 280.817 459.692C280.716 459.656 280.607 459.645 280.5 459.66Z" fill="#372965"/>
<path d="M1065.43 451.93C1070.53 446.423 1076.27 441.683 1082.65 437.71C1104.16 424.323 1127.26 419.607 1151.94 423.56C1163.79 425.46 1174.62 429.94 1184.43 437C1190 441.007 1194.8 445.597 1198.83 450.77C1207.13 461.41 1212.01 473.737 1213.47 487.75C1215.17 504.043 1212.58 519.357 1205.69 533.69C1200.5 544.497 1193.43 553.903 1184.48 561.91C1179.64 566.237 1174.22 570.087 1168.21 573.46C1148.36 584.6 1126.89 588.343 1103.81 584.69C1091.38 582.723 1080.2 577.943 1070.25 570.35C1064.81 566.203 1060.13 561.49 1056.2 556.21C1048.43 545.763 1043.89 533.773 1042.6 520.24C1040.07 493.847 1047.68 471.077 1065.43 451.93ZM1106.78 546.731C1116.85 551.73 1128.75 552.019 1139.85 547.534C1150.95 543.05 1160.35 534.159 1165.98 522.818C1168.77 517.203 1170.54 511.155 1171.21 505.019C1171.88 498.884 1171.42 492.782 1169.87 487.061C1168.31 481.34 1165.69 476.112 1162.15 471.677C1158.61 467.241 1154.22 463.684 1149.24 461.209C1139.17 456.21 1127.27 455.921 1116.17 460.406C1105.07 464.89 1095.67 473.781 1090.04 485.122C1087.25 490.737 1085.48 496.785 1084.81 502.921C1084.14 509.056 1084.6 515.158 1086.15 520.879C1087.71 526.6 1090.33 531.828 1093.87 536.263C1097.41 540.699 1101.8 544.256 1106.78 546.731Z" fill="#B86B59"/>
<path d="M829.3 445.82C829.007 447.247 829.34 447.417 830.3 446.33C842.793 432.15 858.527 424.29 877.5 422.75C882.813 422.317 888.08 422.8 893.3 424.2C898.607 425.627 903.27 427.907 907.29 431.04C914.73 436.84 919.297 444.67 920.99 454.53C921.143 455.43 921.477 455.5 921.99 454.74C929.277 443.853 938.65 435.497 950.11 429.67C957.97 425.67 966.183 423.4 974.75 422.86C981.983 422.407 988.56 423.187 994.48 425.2C1003.9 428.413 1010.83 434.447 1015.28 443.3C1018.03 448.767 1019.58 455.093 1019.91 462.28C1020.2 468.587 1019.67 475.18 1018.31 482.06C1011.76 515.253 1005.04 548.68 998.15 582.34C998.113 582.526 998.012 582.693 997.864 582.813C997.717 582.933 997.531 582.999 997.34 583H956.78C956.718 583 956.658 582.986 956.602 582.96C956.547 582.933 956.498 582.894 956.46 582.846C956.421 582.798 956.394 582.742 956.38 582.682C956.367 582.622 956.366 582.56 956.38 582.5C962.133 554 967.757 525.583 973.25 497.25C974.07 493.003 974.67 489.35 975.05 486.29C975.563 482.057 975.443 478.383 974.69 475.27C972.337 465.583 965.44 460.763 954 460.81C950.047 460.83 946.263 461.643 942.65 463.25C931.91 468.037 924.417 475.93 920.17 486.93C918.63 490.923 917.45 495.023 916.63 499.23C911.21 526.943 905.72 554.64 900.16 582.32C900.131 582.46 900.055 582.586 899.944 582.679C899.834 582.771 899.695 582.824 899.55 582.83C886.037 583.15 872.52 583.127 859 582.76C858.939 582.758 858.879 582.743 858.825 582.716C858.77 582.689 858.722 582.65 858.684 582.603C858.646 582.555 858.619 582.5 858.604 582.441C858.59 582.381 858.588 582.32 858.6 582.26C864.467 551.987 870.43 521.733 876.49 491.5C877.09 488.513 877.4 485.513 877.42 482.5C877.453 479.173 877.043 476.213 876.19 473.62C873.323 464.907 866.677 460.64 856.25 460.82C848.937 460.94 842.417 463.24 836.69 467.72C829.15 473.613 823.963 480.873 821.13 489.5C820.857 490.327 819.483 496.843 817.01 509.05C812.063 533.47 807.113 557.893 802.16 582.32C802.132 582.461 802.057 582.588 801.948 582.679C801.838 582.77 801.701 582.82 801.56 582.82L761.64 582.99C761.538 582.991 761.438 582.969 761.346 582.925C761.254 582.882 761.173 582.819 761.109 582.74C761.044 582.662 760.999 582.57 760.975 582.471C760.951 582.372 760.949 582.269 760.97 582.17L792.28 425.24C792.303 425.119 792.368 425.01 792.463 424.932C792.558 424.853 792.677 424.81 792.8 424.81L833.19 424.75C833.253 424.75 833.315 424.764 833.371 424.791C833.428 424.818 833.478 424.858 833.517 424.907C833.556 424.956 833.584 425.013 833.599 425.074C833.613 425.135 833.613 425.199 833.6 425.26L829.3 445.82Z" fill="#97595C"/>
<path d="M449.57 489.19L512.06 489.25C512.218 489.251 512.372 489.196 512.494 489.096C512.616 488.995 512.7 488.855 512.73 488.7L525.46 425.31C525.488 425.169 525.562 425.043 525.669 424.952C525.777 424.861 525.911 424.811 526.05 424.81L566.26 424.75C566.322 424.75 566.383 424.764 566.438 424.791C566.494 424.818 566.543 424.857 566.582 424.906C566.622 424.955 566.65 425.012 566.665 425.073C566.68 425.134 566.682 425.198 566.67 425.26L535.29 582.44C535.262 582.581 535.187 582.708 535.078 582.799C534.968 582.89 534.831 582.94 534.69 582.94L494.77 583C494.665 583.001 494.56 582.978 494.465 582.933C494.369 582.888 494.285 582.822 494.218 582.739C494.151 582.657 494.103 582.56 494.077 582.457C494.052 582.353 494.049 582.245 494.07 582.14L506 522.76C506.012 522.698 506.01 522.634 505.994 522.573C505.978 522.512 505.949 522.455 505.909 522.407C505.869 522.358 505.819 522.319 505.762 522.292C505.705 522.265 505.643 522.25 505.58 522.25H442.85C442.688 522.251 442.532 522.306 442.408 522.406C442.284 522.507 442.2 522.646 442.17 522.8L430.16 582.46C430.13 582.612 430.049 582.749 429.93 582.848C429.811 582.946 429.663 583 429.51 583L389.32 582.94C389.252 582.94 389.185 582.925 389.124 582.895C389.062 582.866 389.008 582.824 388.965 582.771C388.922 582.719 388.891 582.657 388.875 582.591C388.858 582.525 388.857 582.457 388.87 582.39L420.34 425.43C420.368 425.289 420.443 425.162 420.552 425.071C420.662 424.98 420.799 424.93 420.94 424.93L461.19 424.81C461.249 424.808 461.307 424.82 461.36 424.845C461.414 424.871 461.461 424.909 461.498 424.957C461.536 425.005 461.563 425.062 461.577 425.123C461.591 425.184 461.592 425.248 461.58 425.31L449.15 488.7C449.138 488.76 449.14 488.822 449.156 488.881C449.171 488.94 449.2 488.995 449.241 489.042C449.281 489.089 449.331 489.127 449.388 489.153C449.445 489.178 449.507 489.191 449.57 489.19Z" fill="#573861"/>
<path d="M692.79 528.37C692.93 527.357 692.64 527.213 691.92 527.94C677.613 542.46 660.943 549.15 641.91 548.01C634.617 547.57 628.183 546.027 622.61 543.38C611.857 538.26 604.653 529.717 601 517.75C598.213 508.617 597.867 498.597 599.96 487.69C603.9 467.177 608.053 446.417 612.42 425.41C612.459 425.224 612.562 425.056 612.711 424.936C612.861 424.816 613.047 424.75 613.24 424.75H653.09C653.155 424.75 653.22 424.765 653.279 424.793C653.338 424.821 653.39 424.862 653.431 424.913C653.472 424.964 653.502 425.023 653.517 425.086C653.532 425.15 653.533 425.216 653.52 425.28C650.04 442.227 646.73 459.08 643.59 475.84C643.583 475.893 643.12 477.98 642.2 482.1C641.42 485.62 641.05 489.167 641.09 492.74C641.137 497.313 642 501.007 643.68 503.82C645.86 507.473 649.133 509.867 653.5 511C662.273 513.28 671.023 512.177 679.75 507.69C688.303 503.303 694.677 497.037 698.87 488.89C700.49 485.737 701.967 481 703.3 474.68C706.747 458.327 710.05 442.003 713.21 425.71C713.263 425.439 713.408 425.196 713.62 425.021C713.831 424.846 714.097 424.75 714.37 424.75H753.98C754.088 424.749 754.195 424.773 754.293 424.819C754.391 424.865 754.477 424.933 754.546 425.017C754.615 425.101 754.664 425.2 754.691 425.306C754.718 425.412 754.721 425.522 754.7 425.63C747.333 462.69 739.93 499.547 732.49 536.2C730.723 544.9 729.057 551.343 727.49 555.53C720.043 575.45 706.717 589.93 687.51 598.97C681.71 601.703 675.393 603.773 668.56 605.18C643.767 610.28 620.01 606.593 597.29 594.12C592.197 591.327 587.647 587.957 583.64 584.01C583.496 583.87 583.409 583.681 583.396 583.478C583.384 583.276 583.445 583.073 583.57 582.91L603.01 557.95C603.049 557.899 603.097 557.856 603.153 557.824C603.209 557.793 603.271 557.772 603.335 557.765C603.399 557.757 603.465 557.763 603.528 557.781C603.59 557.799 603.649 557.829 603.7 557.87C615.053 566.83 627.743 571.567 641.77 572.08C649.037 572.347 655.61 571.49 661.49 569.51C669.723 566.743 676.81 561.907 682.75 555C686.25 550.933 688.697 546.357 690.09 541.27C690.297 540.517 690.793 538.377 691.58 534.85C692.1 532.543 692.503 530.383 692.79 528.37Z" fill="#774A5E"/>
</g>
<defs>
<clipPath id="clip0_4_2">
<rect width="1440" height="1024" fill="white"/>
</clipPath>
</defs>
</svg>
