<svg width="604" height="318" viewBox="0 0 604 318" fill="none" xmlns="http://www.w3.org/2000/svg">
<path d="M185.81 34.94C187.937 37.4733 189 40.5767 189 44.25C189 117.583 189.053 190.917 189.16 264.25C189.167 270.21 189.03 274.293 188.75 276.5C188.49 278.5 187.75 280.477 186.53 282.43C185.423 284.197 183.92 285.573 182.02 286.56C178.867 288.187 175.443 289 171.75 289C152.75 289 133.75 289.003 114.75 289.01C112.37 289.01 110.017 288.767 107.69 288.28C99.9567 286.647 96.0233 281.803 95.89 273.75C95.8633 272.163 95.85 270.58 95.85 269C95.7833 194.247 95.75 119.497 95.75 44.75C95.75 39.4167 97.61 35.33 101.33 32.49C103.343 30.9567 106.143 29.99 109.73 29.59C113.277 29.1967 117.367 29 122 29C138.167 29 154.333 29 170.5 29C175.273 29 179.857 30.19 184.25 32.57C184.37 32.6333 184.482 32.7305 184.578 32.8558C184.674 32.9812 184.753 33.1322 184.81 33.3C184.99 33.8067 185.323 34.3533 185.81 34.94Z" fill="#777777"/>
<path d="M506.21 41.25C505.377 42.6567 505.473 43.9767 506.5 45.21C506.667 45.3567 506.75 45.7033 506.75 46.25C506.75 121.17 506.75 196.087 506.75 271C506.75 283.013 500.667 289.04 488.5 289.08C468.787 289.147 449.077 289.053 429.37 288.8C425.923 288.76 423.253 288.287 421.36 287.38C415.787 284.713 413 279.67 413 272.25C412.953 149.057 412.973 72.9933 413.06 44.06C413.08 37.6267 416.08 33.0433 422.06 30.31C422.92 29.9233 424.9 29.5733 428 29.26C429.74 29.0867 431.743 29 434.01 29C450.89 29 467.77 29 484.65 29C486.283 29 488.007 29.0933 489.82 29.28C491.547 29.4533 493.273 29.61 495 29.75C496.42 29.8633 497.983 30.41 499.69 31.39C501.083 32.1967 502.237 33.3233 503.15 34.77C504.423 36.7967 505.443 38.9567 506.21 41.25Z" fill="#777777"/>
<path d="M506.21 41.25L506.5 45.21C505.473 43.9767 505.377 42.6567 506.21 41.25Z" fill="#777777"/>
<path d="M32.9 251.24C27.12 250.08 23.4867 246.667 22 241C21.5133 239.153 21.28 235.403 21.3 229.75C21.4333 186.67 21.5 143.587 21.5 100.5C21.5 93.66 24.16 88.9867 29.48 86.48C31.5533 85.5067 34.65 84.9833 38.77 84.91C51.3833 84.6833 63.9 84.65 76.32 84.81C76.5013 84.8126 76.6742 84.8865 76.8015 85.0156C76.9287 85.1447 77 85.3187 77 85.5V251.19C77 251.339 76.941 251.481 76.836 251.586C76.731 251.691 76.5885 251.75 76.44 251.75C64.3133 251.75 52.25 251.75 40.25 251.75C37.03 251.75 34.58 251.58 32.9 251.24Z" fill="#777777"/>
<path d="M574.24 249.14C571.48 250.833 568.4 251.703 565 251.75C559.82 251.823 546.673 251.803 525.56 251.69C525.427 251.69 525.3 251.636 525.206 251.541C525.113 251.445 525.06 251.315 525.06 251.18L525 85.27C525 85.2001 525.027 85.1329 525.076 85.0826C525.124 85.0322 525.19 85.0026 525.26 85C537.147 84.6934 549.037 84.65 560.93 84.87C566.623 84.9767 570.45 85.4234 572.41 86.21C576.457 87.83 579.153 91.01 580.5 95.75C581.267 98.45 581.62 101.513 581.56 104.94C581.52 106.973 581.5 108.013 581.5 108.06C581.5 150.207 581.477 192.353 581.43 234.5C581.43 237.5 580.843 240.303 579.67 242.91C578.477 245.583 576.667 247.66 574.24 249.14Z" fill="#777777"/>
<path d="M394.14 121.5H208.36C208.023 121.5 207.75 121.773 207.75 122.11V195.63C207.75 195.967 208.023 196.24 208.36 196.24H394.14C394.477 196.24 394.75 195.967 394.75 195.63V122.11C394.75 121.773 394.477 121.5 394.14 121.5Z" fill="#777777"/>
</svg>
