<svg width="470" height="470" viewBox="0 0 470 470" fill="none" xmlns="http://www.w3.org/2000/svg">
<g clip-path="url(#clip0_6_82)">
<path d="M464.24 236.24C464.24 175.251 440.012 116.76 396.886 73.6338C353.76 30.5079 295.269 6.28003 234.28 6.28003C173.291 6.28003 114.8 30.5079 71.6737 73.6338C28.5479 116.76 4.32001 175.251 4.32001 236.24C4.32001 297.229 28.5479 355.72 71.6737 398.846C114.8 441.972 173.291 466.2 234.28 466.2C295.269 466.2 353.76 441.972 396.886 398.846C440.012 355.72 464.24 297.229 464.24 236.24Z" stroke="#97838D" stroke-width="2"/>
<path d="M311.02 222.1C324.987 215.587 338.833 208.827 352.56 201.82C353.573 201.3 353.423 201.197 352.11 201.51C337.677 204.977 323.12 209.06 308.44 213.76C308.262 213.816 308.069 213.803 307.901 213.724C307.732 213.644 307.6 213.503 307.53 213.33C305.51 208.35 303.38 203.43 301.14 198.57C299.14 194.237 296.57 189.547 293.43 184.5C290.097 179.153 286.79 173.793 283.51 168.42C283.436 168.302 283.405 168.162 283.421 168.024C283.437 167.886 283.501 167.757 283.6 167.66C288.953 162.487 294.13 157.143 299.13 151.63C302.703 147.683 305.513 143.827 307.56 140.06C308.787 137.8 308.94 135.703 308.02 133.77C307.407 132.49 306 131.227 303.8 129.98C286.233 120.02 267.3 114.427 247 113.2C234.087 112.42 221.407 113.517 208.96 116.49C199.927 118.65 194.8 119.913 193.58 120.28C188.46 121.82 183.647 124.117 179.14 127.17C177.753 128.11 175.81 129.157 173.31 130.31C166.697 133.37 160.237 137.49 153.93 142.67C147.45 147.997 143.037 151.92 140.69 154.44C128.203 167.807 118.723 182.927 112.25 199.8C109.863 206.027 108.007 212.42 106.68 218.98C103.173 236.38 103.113 253.47 106.5 270.25C111.28 293.923 122.307 314.9 139.58 333.18C149.52 343.7 161.847 352.703 176.56 360.19C195.393 369.77 214.79 374.703 234.75 374.99C241.263 375.083 247.907 374.62 254.68 373.6C274.247 370.647 291.957 363.8 307.81 353.06C331.863 336.767 348.433 314.313 357.52 285.7C357.547 285.607 357.567 285.513 357.58 285.42C357.687 284.487 357.543 284.487 357.15 285.42C351.91 298 344.95 309.54 336.27 320.04C316.97 343.367 292.5 358.02 262.86 364C261.073 364.36 259.343 364.323 257.67 363.89C248.197 361.457 238.953 356.847 229.94 350.06C220.853 343.227 212.75 335.13 205.63 325.77C205.463 325.55 205.39 325.272 205.428 324.997C205.465 324.722 205.61 324.471 205.83 324.3C228.177 307.147 252.877 294.553 279.93 286.52C292.197 282.873 305.067 280.593 318.54 279.68C318.717 279.666 318.893 279.724 319.029 279.839C319.166 279.955 319.252 280.121 319.27 280.3C319.59 283.327 319.923 283.193 320.27 279.9C320.284 279.773 320.342 279.654 320.435 279.565C320.528 279.475 320.65 279.421 320.78 279.41C331.887 278.403 343.04 278.877 354.24 280.83C354.547 280.883 354.77 280.88 354.91 280.82C355.343 280.64 355.243 280.48 354.61 280.34C343.383 277.86 332.177 276.42 320.99 276.02C320.761 276.013 320.543 275.919 320.379 275.756C320.214 275.593 320.115 275.374 320.1 275.14C319.02 256.767 315.89 239.317 310.71 222.79C310.668 222.657 310.677 222.513 310.734 222.386C310.791 222.259 310.893 222.157 311.02 222.1Z" stroke="#97838D" stroke-width="2"/>
<path d="M255.59 127.29C249.843 126.39 244.073 125.877 238.28 125.75C236.833 125.717 236.757 126.027 238.05 126.68C244.77 130.073 250.97 134.223 256.65 139.13C263.123 144.717 269.217 150.607 274.93 156.8C274.985 156.858 275.051 156.905 275.124 156.938C275.198 156.971 275.277 156.988 275.358 156.99C275.439 156.992 275.519 156.978 275.595 156.949C275.671 156.92 275.741 156.876 275.8 156.82C281.247 151.633 286.47 145.863 291.47 139.51C291.516 139.449 291.549 139.379 291.565 139.304C291.581 139.23 291.58 139.152 291.563 139.078C291.546 139.003 291.513 138.933 291.465 138.873C291.418 138.813 291.358 138.764 291.29 138.73C279.677 133.017 267.777 129.203 255.59 127.29Z" stroke="#97838D" stroke-width="2"/>
<path d="M254.81 152.44C247.79 146.507 240.54 141.673 233.06 137.94C224.407 133.62 215.97 131.467 207.75 131.48C197.883 131.5 189.45 134.91 182.45 141.71C176.237 147.737 171.857 154.103 169.31 160.81C163.73 175.503 161.317 191.267 162.07 208.1C162.077 208.252 162.115 208.4 162.183 208.536C162.25 208.672 162.346 208.792 162.462 208.889C162.579 208.986 162.715 209.058 162.861 209.099C163.007 209.141 163.16 209.151 163.31 209.13C178.85 206.957 193.693 203.133 207.84 197.66C213.92 195.307 220.047 192.683 226.22 189.79C240.547 183.057 253.927 174.73 266.36 164.81C266.463 164.728 266.529 164.608 266.544 164.477C266.559 164.345 266.522 164.214 266.44 164.11C263.267 160.197 259.39 156.307 254.81 152.44Z" stroke="#97838D" stroke-width="2"/>
<path d="M132 210.71C136.593 211.163 141.19 211.177 145.79 210.75" stroke="#827371" stroke-width="2"/>
<path d="M145.79 210.75C147.857 211.203 148.843 210.453 148.75 208.5C147.957 191.553 150.177 174.777 155.41 158.17C155.51 157.85 155.44 157.803 155.2 158.03C141.173 171.623 130.933 187.64 124.48 206.08C124.453 206.16 124.223 206.713 123.79 207.74C123.043 209.507 123.58 210.443 125.4 210.55C127.08 210.643 127.973 210.697 128.08 210.71C129.38 210.863 130.687 210.863 132 210.71" stroke="#97838D" stroke-width="2"/>
<path d="M145.79 210.75C145.097 210.25 144 210 142.5 210C139.833 210 137.167 210 134.5 210C133.267 210 132.433 210.237 132 210.71" stroke="#362247" stroke-width="2"/>
<path d="M214.38 247.97C242.347 236.483 270.76 226.037 299.62 216.63C299.788 216.575 299.943 216.485 300.073 216.365C300.204 216.245 300.307 216.099 300.376 215.936C300.445 215.773 300.479 215.597 300.474 215.42C300.47 215.243 300.427 215.069 300.35 214.91C293.503 200.597 285.413 187.2 276.08 174.72C275.96 174.557 275.78 174.447 275.58 174.415C275.38 174.383 275.175 174.432 275.01 174.55C241.863 198.657 204.62 212.083 163.28 214.83C163.157 214.838 163.037 214.87 162.927 214.925C162.817 214.98 162.719 215.057 162.639 215.151C162.558 215.245 162.498 215.355 162.46 215.473C162.423 215.591 162.409 215.716 162.42 215.84C163.88 232.447 167.327 248.587 172.76 264.26C172.803 264.38 172.87 264.491 172.957 264.584C173.044 264.678 173.15 264.753 173.267 264.804C173.384 264.856 173.51 264.883 173.638 264.884C173.766 264.885 173.892 264.86 174.01 264.81C187.683 259.023 201.14 253.41 214.38 247.97Z" stroke="#97838D" stroke-width="2"/>
<path d="M148.49 214.72C139.957 214.173 131.66 212.863 123.6 210.79C123.42 210.743 123.228 210.768 123.066 210.86C122.904 210.951 122.784 211.102 122.73 211.28C115.657 235.34 115.783 259.303 123.11 283.17C123.55 284.597 123.937 286.073 124.27 287.6C124.301 287.736 124.362 287.864 124.449 287.973C124.537 288.083 124.648 288.171 124.775 288.231C124.902 288.292 125.041 288.323 125.182 288.323C125.323 288.323 125.463 288.291 125.59 288.23L161.84 270.5C161.979 270.432 162.087 270.315 162.143 270.172C162.199 270.029 162.198 269.871 162.14 269.73C155.48 252.597 151.247 234.563 149.44 215.63C149.419 215.391 149.311 215.167 149.136 215C148.962 214.833 148.732 214.733 148.49 214.72Z" stroke="#97838D" stroke-width="2"/>
<path d="M256.49 287.61C275.743 280.83 295.997 277.113 317.25 276.46C317.474 276.453 317.693 276.399 317.894 276.299C318.095 276.2 318.272 276.059 318.413 275.886C318.555 275.712 318.657 275.51 318.713 275.293C318.77 275.077 318.779 274.85 318.74 274.63C315.833 257.863 311.3 241.557 305.14 225.71C305.104 225.617 305.049 225.531 304.979 225.46C304.909 225.388 304.825 225.331 304.733 225.293C304.64 225.255 304.541 225.235 304.441 225.237C304.341 225.238 304.242 225.259 304.15 225.3C263.75 243.2 222.837 259.217 181.41 273.35C181.33 273.383 180.537 273.577 179.03 273.93C177.197 274.363 176.697 275.443 177.53 277.17C178.057 278.257 178.33 278.83 178.35 278.89C183.81 292.63 190.91 305.62 199.65 317.86C199.689 317.915 199.738 317.961 199.795 317.996C199.852 318.032 199.915 318.055 199.982 318.065C200.048 318.076 200.116 318.072 200.181 318.056C200.246 318.04 200.307 318.01 200.36 317.97C217.533 304.857 236.243 294.737 256.49 287.61Z" stroke="#97838D" stroke-width="2"/>
<path d="M189.43 327.18C190.49 326.227 191.487 325.21 192.42 324.13C192.513 324.022 192.567 323.886 192.572 323.746C192.578 323.606 192.534 323.469 192.45 323.36C181.957 309.567 173.103 294.787 165.89 279.02C165.835 278.893 165.735 278.79 165.608 278.731C165.481 278.672 165.336 278.661 165.2 278.7L126.71 289.8C126.546 289.848 126.395 289.93 126.264 290.04C126.134 290.149 126.028 290.285 125.954 290.438C125.88 290.59 125.838 290.757 125.832 290.926C125.826 291.095 125.856 291.263 125.92 291.42C135.28 314.68 149.97 333.55 169.99 348.03C170.079 348.096 170.18 348.144 170.288 348.171C170.396 348.198 170.508 348.203 170.618 348.186C170.727 348.169 170.833 348.131 170.927 348.073C171.022 348.016 171.105 347.94 171.17 347.85C175.85 341.563 180.897 335.64 186.31 330.08C186.737 329.647 187.777 328.68 189.43 327.18Z" stroke="#97838D" stroke-width="2"/>
<path d="M180.75 352.72C192.643 358.747 205.07 362.823 218.03 364.95C224.05 365.937 229.377 366.527 234.01 366.72C239.437 366.953 244.8 366.65 250.1 365.81C250.88 365.69 250.89 365.517 250.13 365.29C236.563 361.243 224.5 354.583 213.94 345.31C207.913 340.023 202.963 335.29 199.09 331.11C198.999 331.012 198.872 330.955 198.736 330.949C198.601 330.944 198.466 330.991 198.36 331.08C191.52 336.907 185.497 343.493 180.29 350.84C180.184 350.99 180.111 351.161 180.076 351.341C180.042 351.521 180.047 351.707 180.09 351.885C180.134 352.063 180.216 352.23 180.329 352.374C180.443 352.518 180.587 352.636 180.75 352.72Z" stroke="#97838D" stroke-width="2"/>
<path d="M464.24 236.24C464.24 297.229 440.012 355.72 396.886 398.846C353.76 441.972 295.269 466.2 234.28 466.2C173.291 466.2 114.8 441.972 71.6737 398.846C28.5479 355.72 4.32001 297.229 4.32001 236.24C4.32001 175.251 28.5479 116.76 71.6737 73.6338C114.8 30.5079 173.291 6.28003 234.28 6.28003C295.269 6.28003 353.76 30.5079 396.886 73.6338C440.012 116.76 464.24 175.251 464.24 236.24ZM311.02 222.1C324.987 215.587 338.833 208.827 352.56 201.82C353.573 201.3 353.423 201.197 352.11 201.51C337.677 204.977 323.12 209.06 308.44 213.76C308.262 213.816 308.069 213.803 307.901 213.724C307.732 213.644 307.599 213.503 307.53 213.33C305.51 208.35 303.38 203.43 301.14 198.57C299.14 194.237 296.57 189.547 293.43 184.5C290.097 179.153 286.79 173.793 283.51 168.42C283.436 168.302 283.405 168.162 283.421 168.024C283.437 167.886 283.501 167.757 283.6 167.66C288.953 162.487 294.13 157.143 299.13 151.63C302.703 147.683 305.513 143.827 307.56 140.06C308.787 137.8 308.94 135.703 308.02 133.77C307.407 132.49 306 131.227 303.8 129.98C286.233 120.02 267.3 114.427 247 113.2C234.087 112.42 221.407 113.517 208.96 116.49C199.927 118.65 194.8 119.913 193.58 120.28C188.46 121.82 183.647 124.117 179.14 127.17C177.753 128.11 175.81 129.157 173.31 130.31C166.697 133.37 160.237 137.49 153.93 142.67C147.45 147.997 143.037 151.92 140.69 154.44C128.203 167.807 118.723 182.927 112.25 199.8C109.863 206.027 108.007 212.42 106.68 218.98C103.173 236.38 103.113 253.47 106.5 270.25C111.28 293.923 122.307 314.9 139.58 333.18C149.52 343.7 161.847 352.703 176.56 360.19C195.393 369.77 214.79 374.703 234.75 374.99C241.263 375.083 247.907 374.62 254.68 373.6C274.247 370.647 291.957 363.8 307.81 353.06C331.863 336.767 348.433 314.313 357.52 285.7C357.547 285.607 357.567 285.513 357.58 285.42C357.687 284.487 357.543 284.487 357.15 285.42C351.91 298 344.95 309.54 336.27 320.04C316.97 343.367 292.5 358.02 262.86 364C261.073 364.36 259.343 364.323 257.67 363.89C248.197 361.457 238.953 356.847 229.94 350.06C220.853 343.227 212.75 335.13 205.63 325.77C205.463 325.55 205.39 325.272 205.428 324.997C205.465 324.722 205.61 324.471 205.83 324.3C228.177 307.147 252.877 294.553 279.93 286.52C292.197 282.873 305.067 280.593 318.54 279.68C318.717 279.666 318.893 279.724 319.029 279.839C319.166 279.955 319.252 280.121 319.27 280.3C319.59 283.327 319.923 283.193 320.27 279.9C320.284 279.773 320.342 279.654 320.435 279.565C320.528 279.475 320.65 279.421 320.78 279.41C331.887 278.403 343.04 278.877 354.24 280.83C354.547 280.883 354.77 280.88 354.91 280.82C355.343 280.64 355.243 280.48 354.61 280.34C343.383 277.86 332.177 276.42 320.99 276.02C320.761 276.013 320.543 275.919 320.379 275.756C320.214 275.593 320.115 275.374 320.1 275.14C319.02 256.767 315.89 239.317 310.71 222.79C310.668 222.657 310.677 222.513 310.734 222.386C310.791 222.259 310.893 222.157 311.02 222.1Z" fill="#4B3262"/>
<path d="M310.71 222.79C315.89 239.317 319.02 256.767 320.1 275.14C320.115 275.374 320.214 275.593 320.379 275.756C320.543 275.919 320.761 276.013 320.99 276.02C332.177 276.42 343.383 277.86 354.61 280.34C355.243 280.48 355.343 280.64 354.91 280.82C354.77 280.88 354.547 280.883 354.24 280.83C343.04 278.877 331.887 278.403 320.78 279.41C320.65 279.421 320.528 279.475 320.435 279.565C320.342 279.654 320.284 279.773 320.27 279.9C319.923 283.193 319.59 283.327 319.27 280.3C319.252 280.121 319.166 279.955 319.029 279.839C318.893 279.724 318.717 279.666 318.54 279.68C305.067 280.593 292.197 282.873 279.93 286.52C252.877 294.553 228.177 307.147 205.83 324.3C205.61 324.471 205.465 324.722 205.428 324.997C205.39 325.272 205.463 325.55 205.63 325.77C212.75 335.13 220.853 343.227 229.94 350.06C238.953 356.847 248.197 361.457 257.67 363.89C259.343 364.323 261.073 364.36 262.86 364C292.5 358.02 316.97 343.367 336.27 320.04C344.95 309.54 351.91 298 357.15 285.42C357.543 284.487 357.687 284.487 357.58 285.42C357.567 285.513 357.547 285.607 357.52 285.7C348.433 314.313 331.863 336.767 307.81 353.06C291.957 363.8 274.247 370.647 254.68 373.6C247.907 374.62 241.263 375.083 234.75 374.99C214.79 374.703 195.393 369.77 176.56 360.19C161.847 352.703 149.52 343.7 139.58 333.18C122.307 314.9 111.28 293.923 106.5 270.25C103.113 253.47 103.173 236.38 106.68 218.98C108.007 212.42 109.863 206.027 112.25 199.8C118.723 182.927 128.203 167.807 140.69 154.44C143.037 151.92 147.45 147.997 153.93 142.67C160.237 137.49 166.697 133.37 173.31 130.31C175.81 129.157 177.753 128.11 179.14 127.17C183.647 124.117 188.46 121.82 193.58 120.28C194.8 119.913 199.927 118.65 208.96 116.49C221.407 113.517 234.087 112.42 247 113.2C267.3 114.427 286.233 120.02 303.8 129.98C306 131.227 307.407 132.49 308.02 133.77C308.94 135.703 308.787 137.8 307.56 140.06C305.513 143.827 302.703 147.683 299.13 151.63C294.13 157.143 288.953 162.487 283.6 167.66C283.501 167.757 283.437 167.886 283.421 168.024C283.405 168.162 283.436 168.302 283.51 168.42C286.79 173.793 290.097 179.153 293.43 184.5C296.57 189.547 299.14 194.237 301.14 198.57C303.38 203.43 305.51 208.35 307.53 213.33C307.6 213.503 307.732 213.644 307.901 213.724C308.069 213.803 308.262 213.816 308.44 213.76C323.12 209.06 337.677 204.977 352.11 201.51C353.423 201.197 353.573 201.3 352.56 201.82C338.833 208.827 324.987 215.587 311.02 222.1C310.893 222.157 310.791 222.259 310.734 222.386C310.677 222.513 310.668 222.657 310.71 222.79ZM255.59 127.29C249.843 126.39 244.073 125.877 238.28 125.75C236.833 125.717 236.757 126.027 238.05 126.68C244.77 130.073 250.97 134.223 256.65 139.13C263.123 144.717 269.217 150.607 274.93 156.8C274.985 156.859 275.051 156.905 275.124 156.938C275.198 156.971 275.277 156.988 275.358 156.99C275.439 156.992 275.519 156.978 275.595 156.949C275.671 156.92 275.741 156.876 275.8 156.82C281.247 151.633 286.47 145.863 291.47 139.51C291.516 139.449 291.549 139.379 291.565 139.304C291.581 139.23 291.58 139.152 291.563 139.078C291.546 139.003 291.513 138.934 291.465 138.873C291.418 138.813 291.358 138.764 291.29 138.73C279.677 133.017 267.777 129.203 255.59 127.29ZM254.81 152.44C247.79 146.507 240.54 141.673 233.06 137.94C224.407 133.62 215.97 131.467 207.75 131.48C197.883 131.5 189.45 134.91 182.45 141.71C176.237 147.737 171.857 154.103 169.31 160.81C163.73 175.503 161.317 191.267 162.07 208.1C162.077 208.252 162.115 208.4 162.183 208.536C162.25 208.672 162.346 208.792 162.462 208.889C162.579 208.986 162.715 209.058 162.861 209.099C163.007 209.141 163.16 209.151 163.31 209.13C178.85 206.957 193.693 203.133 207.84 197.66C213.92 195.307 220.047 192.683 226.22 189.79C240.547 183.057 253.927 174.73 266.36 164.81C266.463 164.728 266.529 164.608 266.544 164.477C266.559 164.345 266.522 164.214 266.44 164.11C263.267 160.197 259.39 156.307 254.81 152.44ZM132 210.71C136.593 211.163 141.19 211.177 145.79 210.75C147.857 211.203 148.843 210.453 148.75 208.5C147.957 191.553 150.177 174.777 155.41 158.17C155.51 157.85 155.44 157.803 155.2 158.03C141.173 171.623 130.933 187.64 124.48 206.08C124.453 206.16 124.223 206.713 123.79 207.74C123.043 209.507 123.58 210.443 125.4 210.55C127.08 210.643 127.973 210.697 128.08 210.71C129.38 210.863 130.687 210.863 132 210.71ZM214.38 247.97C242.347 236.483 270.76 226.037 299.62 216.63C299.788 216.575 299.943 216.485 300.073 216.365C300.204 216.245 300.307 216.099 300.376 215.936C300.445 215.773 300.479 215.597 300.474 215.42C300.47 215.243 300.427 215.069 300.35 214.91C293.503 200.597 285.413 187.2 276.08 174.72C275.96 174.556 275.78 174.447 275.58 174.415C275.38 174.383 275.175 174.432 275.01 174.55C241.863 198.657 204.62 212.083 163.28 214.83C163.157 214.837 163.037 214.87 162.927 214.925C162.817 214.98 162.719 215.057 162.639 215.151C162.558 215.245 162.498 215.355 162.46 215.473C162.423 215.591 162.409 215.716 162.42 215.84C163.88 232.447 167.327 248.587 172.76 264.26C172.803 264.38 172.87 264.491 172.957 264.584C173.044 264.678 173.15 264.753 173.267 264.804C173.384 264.856 173.51 264.883 173.638 264.884C173.766 264.885 173.892 264.86 174.01 264.81C187.683 259.023 201.14 253.41 214.38 247.97ZM148.49 214.72C139.957 214.173 131.66 212.863 123.6 210.79C123.42 210.743 123.228 210.768 123.066 210.86C122.904 210.951 122.784 211.102 122.73 211.28C115.657 235.34 115.783 259.303 123.11 283.17C123.55 284.597 123.937 286.073 124.27 287.6C124.301 287.736 124.362 287.864 124.449 287.973C124.537 288.083 124.648 288.171 124.775 288.231C124.902 288.292 125.041 288.323 125.182 288.323C125.323 288.323 125.463 288.291 125.59 288.23L161.84 270.5C161.979 270.432 162.087 270.315 162.143 270.172C162.199 270.029 162.198 269.871 162.14 269.73C155.48 252.597 151.247 234.563 149.44 215.63C149.419 215.391 149.311 215.167 149.136 215C148.962 214.833 148.732 214.733 148.49 214.72ZM256.49 287.61C275.743 280.83 295.997 277.113 317.25 276.46C317.474 276.453 317.693 276.399 317.894 276.3C318.095 276.2 318.272 276.059 318.413 275.886C318.555 275.712 318.657 275.51 318.713 275.293C318.77 275.077 318.779 274.851 318.74 274.63C315.833 257.863 311.3 241.557 305.14 225.71C305.104 225.617 305.049 225.531 304.979 225.46C304.909 225.388 304.825 225.331 304.733 225.293C304.64 225.255 304.541 225.235 304.441 225.237C304.341 225.238 304.242 225.259 304.15 225.3C263.75 243.2 222.837 259.217 181.41 273.35C181.33 273.383 180.537 273.577 179.03 273.93C177.197 274.363 176.697 275.443 177.53 277.17C178.057 278.257 178.33 278.83 178.35 278.89C183.81 292.63 190.91 305.62 199.65 317.86C199.689 317.915 199.738 317.961 199.795 317.996C199.852 318.032 199.915 318.055 199.982 318.065C200.048 318.076 200.116 318.073 200.181 318.056C200.246 318.04 200.307 318.011 200.36 317.97C217.533 304.857 236.243 294.737 256.49 287.61ZM189.43 327.18C190.49 326.227 191.487 325.21 192.42 324.13C192.513 324.022 192.567 323.886 192.572 323.746C192.578 323.606 192.534 323.469 192.45 323.36C181.957 309.567 173.103 294.787 165.89 279.02C165.835 278.893 165.735 278.79 165.608 278.731C165.481 278.672 165.336 278.661 165.2 278.7L126.71 289.8C126.546 289.848 126.395 289.93 126.264 290.04C126.134 290.149 126.028 290.285 125.954 290.438C125.88 290.59 125.838 290.757 125.832 290.926C125.826 291.095 125.856 291.263 125.92 291.42C135.28 314.68 149.97 333.55 169.99 348.03C170.079 348.096 170.18 348.144 170.288 348.171C170.396 348.198 170.508 348.203 170.618 348.186C170.727 348.169 170.833 348.131 170.927 348.073C171.022 348.016 171.105 347.94 171.17 347.85C175.85 341.563 180.897 335.64 186.31 330.08C186.737 329.647 187.777 328.68 189.43 327.18ZM180.75 352.72C192.643 358.747 205.07 362.823 218.03 364.95C224.05 365.937 229.377 366.527 234.01 366.72C239.437 366.953 244.8 366.65 250.1 365.81C250.88 365.69 250.89 365.517 250.13 365.29C236.563 361.243 224.5 354.583 213.94 345.31C207.913 340.023 202.963 335.29 199.09 331.11C198.999 331.013 198.872 330.955 198.736 330.949C198.601 330.944 198.466 330.991 198.36 331.08C191.52 336.907 185.497 343.493 180.29 350.84C180.184 350.99 180.111 351.161 180.076 351.341C180.042 351.521 180.047 351.707 180.09 351.885C180.134 352.063 180.216 352.23 180.329 352.374C180.443 352.518 180.587 352.636 180.75 352.72Z" fill="#E2D4B7"/>
<path d="M255.59 127.29C267.777 129.203 279.677 133.017 291.29 138.73C291.358 138.764 291.418 138.813 291.465 138.873C291.513 138.933 291.546 139.003 291.563 139.078C291.58 139.152 291.581 139.23 291.565 139.304C291.549 139.379 291.516 139.449 291.47 139.51C286.47 145.863 281.247 151.633 275.8 156.82C275.741 156.876 275.671 156.92 275.595 156.949C275.519 156.978 275.439 156.992 275.358 156.99C275.277 156.988 275.198 156.971 275.124 156.938C275.051 156.905 274.985 156.858 274.93 156.8C269.217 150.607 263.123 144.717 256.65 139.13C250.97 134.223 244.77 130.073 238.05 126.68C236.757 126.027 236.833 125.717 238.28 125.75C244.073 125.877 249.843 126.39 255.59 127.29Z" fill="#4B3262"/>
<path d="M254.81 152.44C259.39 156.307 263.267 160.197 266.44 164.11C266.522 164.214 266.559 164.345 266.544 164.477C266.529 164.608 266.463 164.728 266.36 164.81C253.927 174.73 240.547 183.057 226.22 189.79C220.047 192.683 213.92 195.307 207.84 197.66C193.693 203.133 178.85 206.957 163.31 209.13C163.16 209.151 163.007 209.141 162.861 209.099C162.715 209.058 162.579 208.986 162.462 208.889C162.346 208.792 162.25 208.672 162.183 208.536C162.115 208.4 162.077 208.252 162.07 208.1C161.317 191.267 163.73 175.503 169.31 160.81C171.857 154.103 176.237 147.737 182.45 141.71C189.45 134.91 197.883 131.5 207.75 131.48C215.97 131.467 224.407 133.62 233.06 137.94C240.54 141.673 247.79 146.507 254.81 152.44Z" fill="#4B3262"/>
<path d="M145.79 210.75C145.097 210.25 144 210 142.5 210C139.833 210 137.167 210 134.5 210C133.267 210 132.433 210.237 132 210.71C130.687 210.863 129.38 210.863 128.08 210.71C127.973 210.697 127.08 210.643 125.4 210.55C123.58 210.443 123.043 209.507 123.79 207.74C124.223 206.713 124.453 206.16 124.48 206.08C130.933 187.64 141.173 171.623 155.2 158.03C155.44 157.803 155.51 157.85 155.41 158.17C150.177 174.777 147.957 191.553 148.75 208.5C148.843 210.453 147.857 211.203 145.79 210.75Z" fill="#4B3262"/>
<path d="M214.38 247.97C201.14 253.41 187.683 259.023 174.01 264.81C173.892 264.86 173.766 264.885 173.638 264.884C173.51 264.883 173.384 264.856 173.267 264.804C173.15 264.753 173.044 264.678 172.957 264.584C172.87 264.491 172.803 264.38 172.76 264.26C167.327 248.587 163.88 232.447 162.42 215.84C162.409 215.716 162.423 215.591 162.46 215.473C162.498 215.355 162.558 215.245 162.639 215.151C162.719 215.057 162.817 214.98 162.927 214.925C163.037 214.87 163.157 214.837 163.28 214.83C204.62 212.083 241.863 198.657 275.01 174.55C275.175 174.432 275.38 174.383 275.58 174.415C275.78 174.447 275.96 174.556 276.08 174.72C285.413 187.2 293.503 200.597 300.35 214.91C300.427 215.069 300.47 215.243 300.474 215.42C300.479 215.597 300.445 215.773 300.376 215.936C300.307 216.099 300.204 216.245 300.073 216.365C299.943 216.485 299.788 216.575 299.62 216.63C270.76 226.037 242.347 236.483 214.38 247.97Z" fill="#4B3262"/>
<path d="M145.79 210.75C141.19 211.177 136.593 211.163 132 210.71C132.433 210.237 133.267 210 134.5 210C137.167 210 139.833 210 142.5 210C144 210 145.097 210.25 145.79 210.75Z" fill="#21122B"/>
<path d="M148.49 214.72C148.732 214.733 148.962 214.833 149.136 215C149.311 215.167 149.419 215.391 149.44 215.63C151.247 234.563 155.48 252.597 162.14 269.73C162.198 269.871 162.199 270.029 162.143 270.172C162.087 270.315 161.979 270.432 161.84 270.5L125.59 288.23C125.463 288.291 125.323 288.323 125.182 288.323C125.041 288.323 124.902 288.292 124.775 288.231C124.648 288.171 124.537 288.083 124.449 287.973C124.362 287.864 124.301 287.736 124.27 287.6C123.937 286.073 123.55 284.597 123.11 283.17C115.783 259.303 115.657 235.34 122.73 211.28C122.784 211.102 122.904 210.951 123.066 210.86C123.228 210.768 123.42 210.743 123.6 210.79C131.66 212.863 139.957 214.173 148.49 214.72Z" fill="#4B3262"/>
<path d="M256.49 287.61C236.243 294.737 217.533 304.857 200.36 317.97C200.307 318.01 200.246 318.04 200.181 318.056C200.116 318.072 200.048 318.076 199.982 318.065C199.915 318.055 199.852 318.032 199.795 317.996C199.738 317.961 199.689 317.915 199.65 317.86C190.91 305.62 183.81 292.63 178.35 278.89C178.33 278.83 178.057 278.257 177.53 277.17C176.697 275.443 177.197 274.363 179.03 273.93C180.537 273.577 181.33 273.383 181.41 273.35C222.837 259.217 263.75 243.2 304.15 225.3C304.242 225.259 304.341 225.238 304.441 225.237C304.541 225.235 304.64 225.255 304.733 225.293C304.825 225.331 304.909 225.388 304.979 225.46C305.049 225.531 305.104 225.617 305.14 225.71C311.3 241.557 315.833 257.863 318.74 274.63C318.779 274.85 318.77 275.077 318.713 275.293C318.657 275.51 318.555 275.712 318.413 275.886C318.272 276.059 318.095 276.2 317.894 276.299C317.693 276.399 317.474 276.453 317.25 276.46C295.997 277.113 275.743 280.83 256.49 287.61Z" fill="#4B3262"/>
<path d="M186.31 330.08C180.897 335.64 175.85 341.563 171.17 347.85C171.105 347.94 171.022 348.016 170.927 348.073C170.833 348.131 170.727 348.169 170.618 348.186C170.508 348.203 170.396 348.198 170.288 348.171C170.18 348.144 170.079 348.096 169.99 348.03C149.97 333.55 135.28 314.68 125.92 291.42C125.856 291.263 125.826 291.095 125.832 290.926C125.838 290.756 125.88 290.59 125.954 290.438C126.028 290.285 126.134 290.149 126.264 290.039C126.395 289.93 126.546 289.848 126.71 289.8L165.2 278.7C165.336 278.661 165.481 278.672 165.608 278.731C165.735 278.79 165.835 278.892 165.89 279.02C173.103 294.787 181.957 309.567 192.45 323.36C192.534 323.469 192.578 323.606 192.572 323.746C192.567 323.886 192.513 324.022 192.42 324.13C191.487 325.21 190.49 326.227 189.43 327.18C187.777 328.68 186.737 329.647 186.31 330.08Z" fill="#4B3262"/>
<path d="M180.75 352.72C180.587 352.636 180.443 352.518 180.329 352.374C180.216 352.23 180.134 352.063 180.09 351.885C180.047 351.707 180.042 351.521 180.076 351.341C180.111 351.161 180.184 350.99 180.29 350.84C185.497 343.493 191.52 336.907 198.36 331.08C198.466 330.991 198.601 330.944 198.736 330.949C198.872 330.955 198.999 331.012 199.09 331.11C202.963 335.29 207.913 340.023 213.94 345.31C224.5 354.583 236.563 361.243 250.13 365.29C250.89 365.517 250.88 365.69 250.1 365.81C244.8 366.65 239.437 366.953 234.01 366.72C229.377 366.527 224.05 365.937 218.03 364.95C205.07 362.823 192.643 358.747 180.75 352.72Z" fill="#4B3262"/>
</g>
<defs>
<clipPath id="clip0_6_82">
<rect width="470" height="470" fill="white"/>
</clipPath>
</defs>
</svg>
