<svg width="288" height="509" viewBox="0 0 288 509" fill="none" xmlns="http://www.w3.org/2000/svg">
<path d="M218.56 120.44C223.84 125.34 229.983 131.54 236.99 139.04C237.023 139.073 237.687 139.72 238.98 140.98C240.267 142.233 241.26 143.67 241.96 145.29C242.493 146.55 242.76 148.23 242.76 150.33C242.76 162.577 241.757 174.3 239.75 185.5C237.603 197.473 234.5 210.037 230.44 223.19C228.4 229.783 223.453 242.483 215.6 261.29C214.367 264.243 213.507 267.187 213.02 270.12C212.233 274.833 211.55 279.563 210.97 284.31C210.277 290.037 209.623 294.77 209.01 298.51C206.863 311.597 204.887 324.707 203.08 337.84C202.34 343.233 201.297 349.817 199.95 357.59C197.837 369.743 196.167 381.96 194.94 394.24C194.56 398.027 195.253 401.877 197.02 405.79C197.385 406.616 197.475 407.609 197.28 408.63L195.5 418.02C195.227 419.46 195.693 419.737 196.9 418.85C204.147 413.523 211.543 408.15 219.09 402.73C220.43 401.763 222.15 400.21 224.25 398.07C227.05 395.21 230.263 392.963 233.89 391.33C233.91 391.323 237.187 390.14 243.72 387.78C247 386.593 250.283 385.42 253.57 384.26C253.603 384.253 255.14 383.603 258.18 382.31C260.98 381.117 263.753 380.763 266.5 381.25C270.447 381.943 274.063 383.593 277.35 386.2C280.31 388.54 282.55 390.917 284.07 393.33C285.83 396.123 286.807 399.347 287 403C287.207 406.8 286.93 410.213 286.17 413.24C284.91 418.247 283.343 423.153 281.47 427.96C281.263 428.493 280.98 428.907 280.62 429.2C280.347 429.427 280.053 429.633 279.74 429.82C279.612 429.9 279.506 430.01 279.432 430.142C279.359 430.273 279.32 430.42 279.32 430.57C279.36 433.97 278.817 436.593 277.69 438.44C266.937 456.027 253.827 471.533 238.36 484.96C231.873 490.593 227.127 494.437 224.12 496.49C218.98 499.99 213.437 502.667 207.49 504.52C202.537 506.06 195.967 507.04 187.78 507.46C180.693 507.82 173.597 507.887 166.49 507.66C157.83 507.38 149.167 507.163 140.5 507.01C132.98 506.883 122.647 507.38 109.5 508.5C104.44 508.933 99.01 508.707 93.21 507.82C87.9634 507.02 82.8 505.49 77.72 503.23C68.4334 499.09 59.9367 493.73 52.23 487.15C47.8767 483.43 43.1267 478.76 37.98 473.14C26.6134 460.74 17.5567 447.173 10.81 432.44C9.17003 428.847 7.5267 424.437 5.88003 419.21C4.0867 413.503 2.99003 409.863 2.59003 408.29C1.68337 404.69 1.07003 400.927 0.750034 397C0.496701 393.867 1.10003 391.047 2.56003 388.54C10.58 374.8 22.1234 371.39 37.19 378.31C41.6367 380.357 45.0467 382.197 47.42 383.83C57.2134 390.57 66.3867 398.067 74.94 406.32C77.62 408.907 81.01 411.74 85.11 414.82C85.181 414.874 85.262 414.912 85.3482 414.934C85.4345 414.955 85.5242 414.959 85.612 414.945C85.6998 414.931 85.7838 414.9 85.8591 414.852C85.9344 414.805 85.9993 414.743 86.05 414.67C87.1234 413.123 88.0334 411.387 88.78 409.46C89.3734 407.907 89.8467 406.023 90.2 403.81C91.6134 394.89 91.63 385.453 90.25 375.5C88.53 363.1 86.7567 352.29 84.93 343.07C84.2767 339.797 83.4267 335.233 82.38 329.38C81.8334 326.333 81.2234 323.297 80.55 320.27C79.6634 316.257 79.0334 313.227 78.66 311.18C77.2067 303.233 76.1534 296.923 75.5 292.25C74.9934 288.623 74.75 284.207 74.77 279C74.8034 269.16 72.63 259.493 68.25 250C65.41 243.847 63.1067 238.883 61.34 235.11C58.4267 228.897 56.2767 223.867 54.89 220.02C47.7434 200.213 43.4467 179.873 42 159C41.8467 156.833 41.9134 154.6 42.2 152.3C42.54 149.573 42.93 147.38 43.37 145.72C44.17 142.727 45.5534 140.07 47.52 137.75C47.7334 137.497 49.8534 135.457 53.88 131.63C61.9134 124.01 70.64 116.153 80.06 108.06C83.6534 104.98 87.3934 101.5 91.28 97.62C92.9067 96 94.7867 94.5367 96.92 93.23C102.933 89.5567 109.023 85.0433 115.19 79.69C120.11 75.4167 123.79 70.5233 126.23 65.01C127.21 62.8167 128.027 59.68 128.68 55.6C129.353 51.3933 129.96 48.1933 130.5 46C132.353 38.4867 134.223 30.98 136.11 23.48C137.883 16.46 139.243 9.35667 140.19 2.17001C140.232 1.85771 140.388 1.5698 140.629 1.35612C140.87 1.14245 141.182 1.01647 141.51 1.00001L148.14 0.620006C148.386 0.604998 148.628 0.682134 148.814 0.835132C149.001 0.988129 149.118 1.20502 149.14 1.44001C149.753 8.54667 150.603 15.36 151.69 21.88C152.563 27.0933 153.193 31.0167 153.58 33.65C154.167 37.59 154.81 41.52 155.51 45.44C157.043 54.0733 158.217 59.54 159.03 61.84C160.95 67.2867 164.003 72.11 168.19 76.31C170.603 78.7367 173.943 81.72 178.21 85.26C193.443 97.8867 206.893 109.613 218.56 120.44ZM113.81 211.19C109.97 208.97 107.287 206.373 105.76 203.4C104.567 201.087 103.573 198.697 102.78 196.23C102.1 194.11 101.777 191.573 101.81 188.62C101.87 182.573 101.767 178.533 101.5 176.5C100.56 169.28 101.747 162.383 105.06 155.81C108.467 149.063 113.06 143.533 118.84 139.22C123.067 136.067 127.123 134.14 131.01 133.44C135.537 132.627 140.18 133.177 144.94 135.09C146.06 135.543 147.207 135.623 148.38 135.33C150.34 134.837 152.29 134.9 154.23 135.52C155.637 135.973 157.23 136.963 159.01 138.49C169.243 147.25 175.617 158.177 178.13 171.27C178.983 175.69 179.57 179.673 179.89 183.22C180.257 187.267 180.147 191.317 179.56 195.37C179.387 196.53 179.063 197.753 178.59 199.04C178.097 200.367 177.65 201.557 177.25 202.61C176.75 203.923 175.9 204.947 174.7 205.68C171.133 207.853 168.62 210.713 167.16 214.26C166.627 215.547 165.79 219.107 164.65 224.94C163.657 230.033 162.917 235.313 162.43 240.78C162.409 241.012 162.444 241.246 162.532 241.464C162.621 241.681 162.761 241.875 162.94 242.03C165.853 244.53 168.783 245.13 171.73 243.83C173.357 243.117 175.283 241.29 177.51 238.35C183.27 230.723 188.88 222.99 194.34 215.15C197.253 210.963 199.33 207.303 200.57 204.17C202.01 200.517 203.237 196.46 204.25 192C205.363 187.093 207.827 178.143 211.64 165.15C212.387 162.623 212.64 160.653 212.4 159.24C212.08 157.32 211.26 155.427 209.94 153.56C190.107 125.647 168.12 99.41 143.98 74.85C143.866 74.7336 143.729 74.6414 143.578 74.5787C143.428 74.516 143.266 74.4842 143.103 74.4852C142.94 74.4861 142.778 74.5198 142.628 74.5841C142.479 74.6485 142.343 74.7423 142.23 74.86C134.09 83.4067 126.32 91.9333 118.92 100.44C105.9 115.407 92.8867 130.38 79.88 145.36C79.8467 145.393 79.1967 146.087 77.93 147.44C76.1634 149.32 74.7067 151.61 73.56 154.31C71.8 158.477 71.7367 162.547 73.37 166.52C74.9034 170.247 76.5334 173.93 78.26 177.57C80.1134 181.497 81.41 184.947 82.15 187.92C83.09 191.653 83.85 195.433 84.43 199.26C84.47 199.553 84.5934 199.847 84.8 200.14C85.1867 200.707 85.5034 201.41 85.75 202.25C86.5234 204.903 87.7534 207.59 89.44 210.31C90.18 211.51 90.6267 212.97 90.78 214.69C90.7924 214.844 90.8417 214.993 90.9235 215.124C91.0054 215.254 91.1174 215.363 91.25 215.44C92.9834 216.487 94.5034 217.763 95.81 219.27C97.69 221.443 98.6767 222.58 98.77 222.68C99.77 223.78 100.827 225.073 101.94 226.56C104.753 230.327 108.473 235.017 113.1 240.63C115 242.937 117.643 243.497 121.03 242.31C121.447 242.164 121.807 241.891 122.06 241.53C122.312 241.17 122.446 240.739 122.44 240.3C122.347 232.593 120.89 225.213 118.07 218.16C118.023 218.047 117.727 217.217 117.18 215.67C116.42 213.537 115.297 212.043 113.81 211.19Z" fill="#4B3262"/>
</svg>
